<?xml version="1.0" encoding="utf-8"?>
<!-- Generator: Adobe Illustrator 16.0.0, SVG Export Plug-In . SVG Version: 6.00 Build 0)  -->
<!DOCTYPE svg PUBLIC "-//W3C//DTD SVG 1.1//EN" "http://www.w3.org/Graphics/SVG/1.1/DTD/svg11.dtd">
<svg version="1.1" id="Layer_1" xmlns="http://www.w3.org/2000/svg" xmlns:xlink="http://www.w3.org/1999/xlink" x="0px" y="0px"
	 width="871.106px" height="357.026px" viewBox="0 0 871.106 357.026" enable-background="new 0 0 871.106 357.026"
	 xml:space="preserve">
<g>
	<path fill-rule="evenodd" clip-rule="evenodd" fill="#FEFEFE" d="M435.596,357.018c-143.667,0-287.333-0.017-431,0.094
		c-3.75,0.003-4.598-0.844-4.594-4.594C0.116,236.351,0.115,120.185,0,4.018c-0.003-3.424,0.672-4.096,4.095-4.094
		c287.667,0.102,575.333,0.102,863.001,0c3.424-0.002,4.098,0.67,4.096,4.094c-0.115,116.333-0.115,232.667,0,349
		c0.002,3.424-0.672,4.098-4.096,4.095C723.263,357.002,579.429,357.018,435.596,357.018z M119.965,192.331
		c-1.563-4.022-0.852-8.241-0.619-12.3c0.277-4.832-1.339-5.448-5.699-4.569c-28.176,5.684-56.391,11.184-84.625,16.578
		c-3.412,0.651-4.137,2.225-4.11,5.384c0.192,22.819,0.282,45.641,0.234,68.461c-0.006,2.944,1,4.432,3.567,5.7
		c22.229,10.98,44.335,22.21,66.617,33.083c7.876,3.844,15.383,8.516,23.813,11.189c0.684-0.421,1.448-0.75,2.038-1.275
		c23.038-20.511,46.127-40.966,69.037-61.617c5.721-5.156,12.226-9.521,16.816-15.884c0.063-0.327,0.178-0.654,0.178-0.981
		c0.02-40.125,0.009-80.251,0.094-120.377c0.006-2.528-1.252-3.843-2.944-5.341c-33.893-29.992-67.768-60.004-101.542-90.128
		c-2.979-2.657-4.087-2.647-5.583,1.242C86.447,49.554,75.494,77.55,64.523,105.54c-1.011,2.579-1.008,4.238,1.389,6.337
		c15.893,13.92,31.66,27.987,47.316,42.175c7.987,7.237,16.489,13.922,23.807,21.891
		C131.345,181.405,125.655,186.868,119.965,192.331z M256.915,178.703c0,12.665,0.1,25.331-0.072,37.993
		c-0.041,3.077,0.796,4.311,3.902,3.879c1.308-0.181,2.69-0.206,3.99,0.003c4.272,0.687,5.561-0.741,5.499-5.287
		c-0.288-21.159-0.145-42.324-0.1-63.487c0.004-1.887-1.07-4.443,2.762-4.312c10.15,0.348,20.324-0.407,30.467,0.526
		c15.524,1.429,25.716,10.545,28.952,25.755c1.331,6.256,1.139,12.551,0.809,18.862c-1.245,23.836-14.503,36.499-38.313,36.522
		c-10.995,0.012-21.995,0.058-32.984-0.238c-3.597-0.097-4.784,1.033-4.289,4.455c0.188,1.306,0.126,2.67,0.011,3.993
		c-0.188,2.17,0.699,2.888,2.864,2.865c14.826-0.15,29.711,0.596,44.466-0.481c19.04-1.39,32.929-10.903,38.972-29.779
		c3.606-11.265,4.335-22.935,2.626-34.582c-3.334-22.715-14.68-34.509-37.184-37.963c-16.352-2.511-32.93-0.98-49.407-1.258
		c-3.424-0.058-2.962,2.413-2.964,4.54C256.908,153.374,256.915,166.039,256.915,178.703z M754.146,188.018
		c0-2.662-0.186-5.339,0.029-7.983c1.508-18.601,11.48-29.854,29.168-32.67c3.748-0.597,7.643-0.52,11.453-0.366
		c2.371,0.095,3.426-0.402,3.178-2.923c-0.162-1.649-0.188-3.347,0.006-4.989c0.322-2.758-0.938-3.419-3.438-3.287
		c-3.986,0.209-7.998-0.007-11.979,0.262c-21.436,1.447-36.174,13.166-41.066,33.109c-3.303,13.459-3.234,27.031,0.529,40.462
		c4.15,14.806,13.621,24.412,28.406,28.671c13.078,3.767,26.291,3.817,39.467,0.721c16.861-3.964,27.082-14.768,31.131-31.445
		c2.746-11.313,2.803-22.774,0.859-34.208c-1.291-7.598-3.811-14.788-8.627-20.974c-0.842-1.08-1.58-3.021-3.426-1.431
		c-3.023,2.601-7.32,3.645-9.234,7.564c-0.074,0.154,0.322,0.548,0.512,0.821c8.24,11.899,8.195,25.333,6.885,38.865
		c-1.572,16.203-10.438,27.098-24.469,30.424c-7.025,1.664-14.125,1.757-21.305,0.529c-13.473-2.304-22.162-9.865-26.109-22.91
		C754.317,200.313,753.696,194.214,754.146,188.018z M442.085,224.181c0,3.285,0.229,6.294-0.066,9.25
		c-0.277,2.783,0.944,3.72,3.398,4.248c6.52,1.403,13.087,2.563,19.729,2.965c11.971,0.723,23.996,1.363,35.486-3.218
		c12.716-5.069,18.928-16.389,17.157-31.003c-1.663-13.737-9.076-21.206-23.035-23.546c-8.626-1.446-17.293-0.563-25.936-0.883
		c-9.568-0.353-15.274-5.017-16.526-13.423c-1.338-8.981,2.83-16.107,11.39-19.291c4.73-1.76,9.68-2.306,14.705-2.427
		c10.742-0.259,21.326,0.95,31.475,4.422c4.303,1.473,4.879,0.114,4.43-3.521c-0.102-0.821-0.137-1.687,0.006-2.494
		c0.717-4.035-0.708-6.099-5.004-6.535c-4.621-0.469-9.154-1.91-13.775-2.239c-13.618-0.971-27.336-2.146-40.419,3.286
		c-12.789,5.312-18.185,15.664-16.324,30.765c1.615,13.115,8.939,20.353,22.644,22.652c8.458,1.419,16.96,0.569,25.439,0.842
		c9.606,0.309,15.908,5.058,17.106,12.887c1.527,9.978-2.878,17.81-11.991,20.97c-4.591,1.592-9.395,2.124-14.257,2.125
		C465.648,230.016,453.891,228.072,442.085,224.181z M571.612,150.141c6.191,15.08,11.908,29.223,17.84,43.273
		c1.182,2.798,0.223,3.13-2.154,3.094c-4.164-0.063-8.332-0.018-12.496-0.018c-10.359,0-10.365-0.001-13.305,9.749
		c-0.131,0.436-0.016,0.944-0.016,1.627c10.029,0,20.021,0.11,30.008-0.068c2.908-0.053,4.475,0.728,5.514,3.569
		c2.104,5.763,4.617,11.374,6.934,17.061c5.135,12.606,5.127,12.61,18.801,11.61c0.154-0.012,0.301-0.109,0.488-0.181
		c0.359-1.78-0.709-3.207-1.342-4.689c-12.766-29.923-25.912-59.69-38.143-89.83c-3.016-7.43-6.578-10.198-14.365-9.374
		c-3.703,0.392-5.414,1.365-6.828,4.749c-10.748,25.728-21.703,51.368-32.598,77.035c-3.095,7.289-6.203,14.573-9.44,22.177
		c1.449,0.129,2.256,0.249,3.064,0.266c11.071,0.231,11.078,0.231,15.177-9.779C549.565,204.002,560.374,177.591,571.612,150.141z
		 M359.913,188.144c0,15.821,0.108,31.645-0.083,47.463c-0.043,3.529,0.527,4.758,4.486,4.708
		c20.147-0.249,40.303-0.263,60.451,0.009c4.108,0.055,4.836-1.419,4.344-4.794c-0.407-2.8,1.798-6.639-4.243-6.491
		c-15.812,0.387-31.64,0.043-47.459,0.206c-3.105,0.032-3.871-0.838-3.855-3.887c0.125-24.481,0.141-48.963-0.009-73.443
		c-0.021-3.499,0.916-4.499,4.437-4.451c14.486,0.195,28.977,0.082,43.465,0.082c6.718-0.001,6.542-0.006,6.737-6.946
		c0.094-3.307-0.55-4.561-4.248-4.523c-19.984,0.197-39.97,0.17-59.954,0.017c-3.245-0.025-4.179,0.806-4.145,4.09
		C360.005,156.167,359.913,172.157,359.913,188.144z M629.567,188.34c0,14.327,0,28.653,0,42.98c0,8.905,0.006,8.716,8.721,8.968
		c3.77,0.109,4.953-0.758,4.924-4.787c-0.201-27.819-0.021-55.641-0.205-83.46c-0.025-3.793,0.953-4.646,4.648-4.592
		c15.322,0.227,30.654-0.11,45.975,0.2c5.791,0.118,3.695-3.676,3.955-6.347c0.277-2.862,0.563-5.312-4.033-5.249
		c-19.986,0.269-39.98,0.212-59.969,0.024c-3.51-0.033-4.094,1.207-4.07,4.285C629.632,156.355,629.567,172.348,629.567,188.34z
		 M709.913,187.959c0,14.308,0,28.615,0,42.923c0,9.375,0.006,9.177,9.146,9.415c3.715,0.097,4.684-0.834,4.662-4.631
		c-0.178-30.111-0.1-60.224-0.1-90.336c0-9.258-0.004-9.062-9.514-9.261c-3.652-0.077-4.309,1.133-4.271,4.477
		C710.009,156.349,709.913,172.155,709.913,187.959z M403.076,182.007c-4.982,0-9.965,0-14.947,0c-7.173,0-6.998,0.003-7.128,7.421
		c-0.055,3.062,0.719,3.899,3.825,3.851c12.287-0.194,24.58-0.168,36.869-0.016c2.934,0.036,4.437-0.551,3.96-3.791
		c-0.191-1.301-0.177-2.672-0.003-3.978c0.39-2.924-0.888-3.629-3.644-3.547C415.702,182.136,409.386,182.007,403.076,182.007z
		 M672.577,193.199c6.477,0,12.955-0.086,19.43,0.046c2.271,0.047,3.443-0.426,3.131-2.967c-0.18-1.473-0.201-3.009,0.004-4.476
		c0.418-3.006-0.566-3.934-3.738-3.88c-12.285,0.209-24.58,0.231-36.865-0.009c-3.473-0.067-4.383,1.126-3.992,4.223
		c0.143,1.145,0.145,2.338-0.002,3.481c-0.361,2.826,0.754,3.733,3.6,3.642C660.282,193.062,666.431,193.199,672.577,193.199z
		 M787.556,288.746c2.322,0,4.676,0.24,6.959-0.056c3.572-0.463,6.17-2.4,7.094-6.065c0.863-3.416,0.873-6.858-2.459-8.903
		c-2.74-1.683-0.713-2.327,0.234-3.472c4.402-5.316,2.338-11.494-4.479-12.556c-4.061-0.633-8.275-0.229-12.414-0.447
		c-2.582-0.138-3.514,0.841-3.461,3.444c0.131,6.644,0.043,13.292,0.043,19.938C779.071,288.924,779.073,288.924,787.556,288.746z
		 M833.155,288.366c-2.596-3.581-4.771-6.904-7.283-9.949c-2.299-2.787-2.832-4.626,1.135-6.43c3.84-1.747,4.836-5.299,3.99-9.28
		c-0.797-3.746-3.844-4.969-7.074-5.241c-4.131-0.348-8.309-0.119-12.465-0.174c-2.428-0.031-2.518,1.582-2.514,3.365
		c0.016,8.318-0.006,16.638,0.02,24.956c0.004,1.448-0.279,3.159,2.018,3.237c2.342,0.079,2.117-1.617,2.123-3.091
		c0.025-5.657,0.014-11.313,0.014-16.97c0-8.347,0.662-8.914,8.982-7.718c0.164,0.023,0.334,0.023,0.496,0.057
		c3.83,0.791,5.145,4.71,2.395,7.562c-0.99,1.026-2.412,1.9-3.785,2.243c-4.348,1.083-3.768,3.469-1.875,6.245
		c1.967,2.885,4.16,5.618,6.041,8.556C827.112,288.455,829.249,289.717,833.155,288.366z M712.356,272.962
		c0,4.321,0.047,8.643-0.02,12.963c-0.033,2.052,0.68,3.052,2.879,3.019c5.316-0.08,10.637-0.021,15.955-0.03
		c1.199-0.002,2.43-0.065,2.549-1.673c0.141-1.894-1.146-2.126-2.602-2.125c-3.158,0.002-6.352-0.303-9.465,0.068
		c-4.4,0.524-4.68-1.759-4.758-5.239c-0.084-3.741,0.758-5.656,4.908-5.067c1.955,0.276,4.01,0.254,5.967-0.016
		c1.715-0.235,4.688,1.384,4.828-1.729c0.148-3.274-2.902-1.766-4.584-1.962c-2.133-0.248-4.332-0.232-6.471-0.021
		c-3.324,0.329-4.631-0.66-4.674-4.315c-0.053-4.251,0.693-6.61,5.617-5.859c2.438,0.372,4.979,0.117,7.469,0.04
		c1.375-0.042,3.299,0.481,3.152-1.964c-0.115-1.919-1.676-1.755-2.975-1.763c-4.82-0.027-9.643,0.06-14.459-0.034
		c-2.721-0.054-3.393,1.36-3.344,3.741C712.411,264.983,712.353,268.973,712.356,272.962z M763.243,280.545
		c-1.277-1.449,2.004-5.842-1.955-5.914c-4.344-0.081-1.547,4.356-2.328,6.668c-0.102,0.299-0.039,0.662-0.016,0.992
		c0.125,1.818-0.668,2.565-2.527,2.887c-7.506,1.295-13.098-2.74-14.152-10.413c-1.102-8.009,3.26-13.406,11.195-13.792
		c2.492-0.121,4.979-0.079,7.398,0.74c0.973,0.329,2.031,0.375,2.256-1.051c0.166-1.06-0.125-1.853-1.164-2.458
		c-7.436-4.336-21.695,0.653-23.361,8.745c-2.494,12.127,0.857,22.256,16.764,22.082
		C762.854,288.951,763.241,288.543,763.243,280.545z M686.954,272.812c0,4.332,0.041,8.664-0.018,12.995
		c-0.027,1.967,0.486,3.16,2.766,3.128c5.164-0.072,10.33-0.017,15.494-0.021c1.215-0.001,2.426-0.1,2.523-1.707
		c0.117-1.914-1.209-2.091-2.645-2.091c-3.166,0.001-6.348-0.208-9.492,0.051c-3.424,0.283-4.686-0.797-4.543-4.395
		c0.271-6.819,0.084-13.658,0.068-20.488c-0.004-1.324,0.145-2.796-1.82-2.92c-2.195-0.138-2.342,1.334-2.338,2.953
		C686.96,264.482,686.952,268.647,686.954,272.812z M772.96,286.46c0.125-1.611-0.787-2.237-2.385-2.12
		c-1.646,0.121-2.201,1.135-2.166,2.646c0.033,1.486,0.92,1.904,2.24,1.928C772.284,288.943,773.081,288.226,772.96,286.46z"/>
	<path fill-rule="evenodd" clip-rule="evenodd" fill="#EE8A01" d="M137.035,175.941c-7.317-7.968-15.819-14.652-23.807-21.89
		c-15.656-14.188-31.424-28.255-47.316-42.175c-2.396-2.099-2.399-3.758-1.389-6.337C75.494,77.55,86.447,49.554,97.237,21.496
		c1.496-3.89,2.604-3.899,5.583-1.242c33.774,30.124,67.649,60.136,101.542,90.128c1.692,1.498,2.95,2.813,2.944,5.341
		c-0.085,40.126-0.074,80.252-0.094,120.377c0,0.327-0.115,0.654-0.178,0.98c-1.13-0.694-2.398-1.234-3.371-2.104
		c-13.592-12.169-27.023-24.521-40.751-36.535C154.312,190.914,146.398,182.589,137.035,175.941z"/>
	<path fill-rule="evenodd" clip-rule="evenodd" fill="#F8B153" d="M119.143,315.857c-8.431-2.674-15.938-7.346-23.813-11.189
		c-22.281-10.873-44.388-22.103-66.617-33.083c-2.567-1.269-3.573-2.756-3.567-5.7c0.048-22.82-0.042-45.642-0.234-68.461
		c-0.027-3.159,0.699-4.732,4.11-5.384c28.234-5.395,56.449-10.895,84.625-16.578c4.36-0.879,5.977-0.263,5.699,4.569
		c-0.232,4.059-0.943,8.277,0.621,12.298c-0.961,1.475-0.898,3.133-0.897,4.8C119.102,236.705,119.122,276.281,119.143,315.857z"/>
	<path fill-rule="evenodd" clip-rule="evenodd" fill="#BE7112" d="M119.143,315.857c-0.021-39.576-0.041-79.152-0.073-118.729
		c-0.001-1.667-0.063-3.325,0.897-4.8c5.688-5.461,11.378-10.924,17.067-16.388c9.363,6.648,17.277,14.973,25.878,22.499
		c13.728,12.014,27.159,24.366,40.751,36.535c0.973,0.87,2.241,1.41,3.371,2.104c-4.591,6.363-11.096,10.729-16.816,15.885
		c-22.91,20.651-45.999,41.106-69.037,61.617C120.591,315.107,119.827,315.436,119.143,315.857z"/>
	<path fill-rule="evenodd" clip-rule="evenodd" fill="#070808" d="M256.915,178.703c0-12.664-0.007-25.329,0.007-37.993
		c0.002-2.127-0.46-4.598,2.964-4.54c16.478,0.277,33.056-1.253,49.407,1.258c22.504,3.454,33.85,15.248,37.184,37.963
		c1.709,11.647,0.98,23.317-2.626,34.582c-6.043,18.876-19.932,28.39-38.972,29.779c-14.755,1.077-29.64,0.331-44.466,0.481
		c-2.165,0.022-3.052-0.695-2.864-2.865c0.115-1.323,0.178-2.688-0.011-3.993c-0.495-3.422,0.692-4.552,4.289-4.455
		c10.989,0.296,21.989,0.25,32.984,0.238c23.81-0.023,37.067-12.687,38.313-36.522c0.33-6.312,0.522-12.606-0.809-18.862
		c-3.236-15.21-13.428-24.326-28.952-25.755c-10.143-0.934-20.316-0.179-30.467-0.526c-3.832-0.132-2.758,2.425-2.762,4.312
		c-0.045,21.163-0.188,42.328,0.1,63.487c0.062,4.546-1.227,5.974-5.499,5.287c-1.3-0.209-2.683-0.184-3.99-0.003
		c-3.106,0.432-3.943-0.802-3.902-3.879C257.014,204.034,256.915,191.368,256.915,178.703z"/>
	<path fill-rule="evenodd" clip-rule="evenodd" fill="#070808" d="M754.146,188.018c-0.449,6.196,0.172,12.295,1.971,18.242
		c3.947,13.045,12.637,20.606,26.109,22.91c7.18,1.228,14.279,1.135,21.305-0.529c14.031-3.326,22.896-14.221,24.469-30.424
		c1.311-13.532,1.355-26.966-6.885-38.865c-0.189-0.273-0.586-0.667-0.512-0.821c1.914-3.92,6.211-4.964,9.234-7.564
		c1.846-1.59,2.584,0.351,3.426,1.431c4.816,6.186,7.336,13.376,8.627,20.974c1.943,11.434,1.887,22.896-0.859,34.208
		c-4.049,16.678-14.27,27.481-31.131,31.445c-13.176,3.097-26.389,3.046-39.467-0.721c-14.785-4.259-24.256-13.865-28.406-28.671
		c-3.764-13.431-3.832-27.003-0.529-40.462c4.893-19.943,19.631-31.662,41.066-33.109c3.98-0.269,7.992-0.053,11.979-0.262
		c2.5-0.132,3.76,0.529,3.438,3.287c-0.193,1.643-0.168,3.34-0.006,4.989c0.248,2.521-0.807,3.018-3.178,2.923
		c-3.811-0.153-7.705-0.23-11.453,0.366c-17.688,2.815-27.66,14.069-29.168,32.67C753.96,182.679,754.146,185.356,754.146,188.018z"
		/>
	<path fill-rule="evenodd" clip-rule="evenodd" fill="#070808" d="M442.085,224.181c11.806,3.891,23.563,5.835,35.631,5.831
		c4.862-0.001,9.666-0.533,14.257-2.125c9.113-3.16,13.519-10.992,11.991-20.97c-1.198-7.829-7.5-12.578-17.106-12.887
		c-8.479-0.272-16.981,0.577-25.439-0.842c-13.704-2.3-21.028-9.537-22.644-22.652c-1.86-15.101,3.535-25.453,16.324-30.765
		c13.083-5.433,26.801-4.257,40.419-3.286c4.621,0.329,9.154,1.771,13.775,2.239c4.296,0.437,5.721,2.5,5.004,6.535
		c-0.143,0.808-0.107,1.673-0.006,2.494c0.449,3.636-0.127,4.994-4.43,3.521c-10.148-3.472-20.732-4.681-31.475-4.422
		c-5.025,0.121-9.975,0.667-14.705,2.427c-8.56,3.184-12.728,10.31-11.39,19.291c1.252,8.406,6.958,13.07,16.526,13.423
		c8.643,0.319,17.31-0.563,25.936,0.883c13.959,2.34,21.372,9.809,23.035,23.546c1.771,14.614-4.441,25.934-17.157,31.003
		c-11.49,4.581-23.516,3.94-35.486,3.218c-6.642-0.401-13.209-1.562-19.729-2.965c-2.454-0.528-3.676-1.465-3.398-4.248
		C442.313,230.475,442.085,227.466,442.085,224.181z"/>
	<path fill-rule="evenodd" clip-rule="evenodd" fill="#070808" d="M571.612,150.141c-11.238,27.45-22.047,53.861-32.861,80.271
		c-4.099,10.011-4.105,10.011-15.177,9.779c-0.809-0.017-1.615-0.137-3.064-0.266c3.237-7.604,6.346-14.888,9.44-22.177
		c10.895-25.667,21.85-51.308,32.598-77.035c1.414-3.384,3.125-4.357,6.828-4.749c7.787-0.824,11.35,1.944,14.365,9.374
		c12.23,30.14,25.377,59.907,38.143,89.83c0.633,1.482,1.701,2.909,1.342,4.689c-0.188,0.071-0.334,0.169-0.488,0.181
		c-13.674,1-13.666,0.996-18.801-11.61c-2.316-5.687-4.83-11.298-6.934-17.061c-1.039-2.842-2.605-3.622-5.514-3.569
		c-9.986,0.179-19.979,0.068-30.008,0.068c0-0.683-0.115-1.191,0.016-1.627c2.939-9.75,2.945-9.749,13.305-9.749
		c4.164,0,8.332-0.046,12.496,0.018c2.377,0.036,3.336-0.296,2.154-3.094C583.521,179.364,577.804,165.221,571.612,150.141z"/>
	<path fill-rule="evenodd" clip-rule="evenodd" fill="#070808" d="M359.913,188.144c0-15.987,0.093-31.977-0.076-47.962
		c-0.034-3.284,0.899-4.115,4.145-4.09c19.983,0.153,39.97,0.181,59.954-0.017c3.698-0.037,4.342,1.217,4.248,4.523
		c-0.195,6.94-0.02,6.945-6.737,6.946c-14.489,0-28.979,0.113-43.465-0.082c-3.521-0.048-4.458,0.952-4.437,4.451
		c0.149,24.48,0.134,48.962,0.009,73.443c-0.016,3.049,0.75,3.919,3.855,3.887c15.819-0.163,31.647,0.181,47.459-0.206
		c6.041-0.147,3.836,3.691,4.243,6.491c0.492,3.375-0.235,4.849-4.344,4.794c-20.148-0.271-40.303-0.258-60.451-0.009
		c-3.959,0.05-4.529-1.179-4.486-4.708C360.021,219.789,359.913,203.965,359.913,188.144z"/>
	<path fill-rule="evenodd" clip-rule="evenodd" fill="#070808" d="M629.567,188.34c0-15.992,0.064-31.985-0.055-47.977
		c-0.023-3.078,0.561-4.318,4.07-4.285c19.988,0.188,39.982,0.244,59.969-0.024c4.596-0.063,4.311,2.387,4.033,5.249
		c-0.26,2.671,1.836,6.465-3.955,6.347c-15.32-0.311-30.652,0.026-45.975-0.2c-3.695-0.055-4.674,0.799-4.648,4.592
		c0.184,27.819,0.004,55.641,0.205,83.46c0.029,4.029-1.154,4.896-4.924,4.787c-8.715-0.252-8.721-0.063-8.721-8.968
		C629.567,216.994,629.567,202.667,629.567,188.34z"/>
	<path fill-rule="evenodd" clip-rule="evenodd" fill="#070808" d="M709.913,187.959c0-15.805,0.096-31.61-0.076-47.413
		c-0.037-3.344,0.619-4.554,4.271-4.477c9.51,0.199,9.514,0.003,9.514,9.261c0,30.112-0.078,60.225,0.1,90.336
		c0.021,3.797-0.947,4.728-4.662,4.631c-9.141-0.238-9.146-0.04-9.146-9.415C709.913,216.575,709.913,202.267,709.913,187.959z"/>
	<path fill-rule="evenodd" clip-rule="evenodd" fill="#070808" d="M403.076,182.007c6.311,0,12.626,0.129,18.932-0.06
		c2.756-0.082,4.033,0.623,3.644,3.547c-0.174,1.306-0.188,2.677,0.003,3.978c0.477,3.24-1.026,3.827-3.96,3.791
		c-12.289-0.152-24.582-0.179-36.869,0.016c-3.106,0.049-3.88-0.789-3.825-3.851c0.13-7.418-0.045-7.421,7.128-7.421
		C393.111,182.007,398.093,182.007,403.076,182.007z"/>
	<path fill-rule="evenodd" clip-rule="evenodd" fill="#070808" d="M672.577,193.199c-6.146,0-12.295-0.137-18.434,0.061
		c-2.846,0.092-3.961-0.815-3.6-3.642c0.146-1.144,0.145-2.337,0.002-3.481c-0.391-3.097,0.52-4.29,3.992-4.223
		c12.285,0.24,24.58,0.218,36.865,0.009c3.172-0.054,4.156,0.874,3.738,3.88c-0.205,1.467-0.184,3.003-0.004,4.476
		c0.313,2.541-0.859,3.014-3.131,2.967C685.532,193.113,679.054,193.199,672.577,193.199z"/>
	<path fill-rule="evenodd" clip-rule="evenodd" fill="#999999" d="M787.556,288.746c-8.482,0.179-8.484,0.179-8.482-8.117
		c0-6.646,0.088-13.294-0.043-19.938c-0.053-2.604,0.879-3.582,3.461-3.444c4.139,0.219,8.354-0.186,12.414,0.447
		c6.816,1.062,8.881,7.239,4.479,12.556c-0.947,1.145-2.975,1.789-0.234,3.472c3.332,2.045,3.322,5.487,2.459,8.903
		c-0.924,3.665-3.521,5.603-7.094,6.065C792.231,288.986,789.878,288.746,787.556,288.746z M783.243,272.88
		c0,1.658-0.031,3.317,0.004,4.975c0.172,7.937-1.527,7.158,7.52,7.271c3.322,0.041,6.006-0.645,6.332-4.611
		c0.309-3.771-1.771-5.297-5.227-5.9c-1.25-0.218-3.447,0.283-3.592-1.79c-0.154-2.241,2.139-1.5,3.334-2.103
		c0.885-0.446,1.844-0.762,2.688-1.273c2.053-1.242,3.078-3.108,2.445-5.464c-0.604-2.249-2.469-2.801-4.635-2.963
		c-8.873-0.663-8.869-0.7-8.869,8.377C783.243,270.559,783.243,271.72,783.243,272.88z"/>
	<path fill-rule="evenodd" clip-rule="evenodd" fill="#999999" d="M833.155,288.366c-3.906,1.352-6.043,0.089-7.783-2.632
		c-1.881-2.938-4.074-5.671-6.041-8.556c-1.893-2.776-2.473-5.162,1.875-6.245c1.373-0.343,2.795-1.217,3.785-2.243
		c2.75-2.852,1.436-6.771-2.395-7.562c-0.162-0.033-0.332-0.033-0.496-0.057c-8.32-1.196-8.982-0.629-8.982,7.718
		c0,5.656,0.012,11.313-0.014,16.97c-0.006,1.474,0.219,3.17-2.123,3.091c-2.297-0.078-2.014-1.789-2.018-3.237
		c-0.025-8.318-0.004-16.638-0.02-24.956c-0.004-1.783,0.086-3.396,2.514-3.365c4.156,0.055,8.334-0.174,12.465,0.174
		c3.23,0.272,6.277,1.495,7.074,5.241c0.846,3.981-0.15,7.533-3.99,9.28c-3.967,1.804-3.434,3.643-1.135,6.43
		C828.384,281.461,830.56,284.785,833.155,288.366z"/>
	<path fill-rule="evenodd" clip-rule="evenodd" fill="#999999" d="M712.354,272.962c-0.002-3.989,0.057-7.979-0.023-11.966
		c-0.049-2.381,0.623-3.795,3.344-3.741c4.816,0.094,9.639,0.007,14.459,0.034c1.299,0.008,2.859-0.156,2.975,1.763
		c0.146,2.445-1.777,1.922-3.152,1.964c-2.49,0.077-5.031,0.332-7.469-0.04c-4.924-0.751-5.67,1.608-5.617,5.859
		c0.043,3.655,1.35,4.645,4.674,4.315c2.139-0.212,4.338-0.228,6.471,0.021c1.682,0.196,4.732-1.313,4.584,1.962
		c-0.141,3.112-3.113,1.493-4.828,1.729c-1.957,0.27-4.012,0.292-5.967,0.016c-4.15-0.589-4.992,1.326-4.908,5.067
		c0.078,3.48,0.357,5.764,4.758,5.239c3.113-0.371,6.307-0.066,9.465-0.068c1.455-0.001,2.742,0.231,2.602,2.125
		c-0.119,1.607-1.35,1.671-2.549,1.673c-5.318,0.009-10.639-0.05-15.955,0.03c-2.199,0.033-2.912-0.967-2.879-3.019
		C712.403,281.605,712.356,277.284,712.354,272.962z"/>
	<path fill-rule="evenodd" clip-rule="evenodd" fill="#999999" d="M763.243,280.545c-0.002,7.998-0.389,8.405-7.891,8.486
		c-15.906,0.174-19.258-9.955-16.764-22.082c1.666-8.092,15.926-13.081,23.361-8.745c1.039,0.605,1.33,1.398,1.164,2.458
		c-0.225,1.426-1.283,1.38-2.256,1.051c-2.42-0.819-4.906-0.861-7.398-0.74c-7.936,0.386-12.297,5.783-11.195,13.792
		c1.055,7.673,6.646,11.708,14.152,10.413c1.859-0.321,2.652-1.068,2.527-2.887c-0.023-0.33-0.086-0.693,0.016-0.992
		c0.781-2.312-2.016-6.749,2.328-6.668C765.247,274.704,761.966,279.096,763.243,280.545z"/>
	<path fill-rule="evenodd" clip-rule="evenodd" fill="#999999" d="M686.954,272.812c-0.002-4.165,0.006-8.33-0.004-12.495
		c-0.004-1.619,0.143-3.091,2.338-2.953c1.965,0.124,1.816,1.596,1.82,2.92c0.016,6.83,0.203,13.669-0.068,20.488
		c-0.143,3.598,1.119,4.678,4.543,4.395c3.145-0.259,6.326-0.05,9.492-0.051c1.436,0,2.762,0.177,2.645,2.091
		c-0.098,1.607-1.309,1.706-2.523,1.707c-5.164,0.005-10.33-0.051-15.494,0.021c-2.279,0.032-2.793-1.161-2.766-3.128
		C686.995,281.476,686.954,277.144,686.954,272.812z"/>
	<path fill-rule="evenodd" clip-rule="evenodd" fill="#999999" d="M772.96,286.46c0.121,1.766-0.676,2.482-2.311,2.454
		c-1.32-0.023-2.207-0.441-2.24-1.928c-0.035-1.512,0.52-2.525,2.166-2.646C772.173,284.223,773.085,284.849,772.96,286.46z"/>
	<path fill-rule="evenodd" clip-rule="evenodd" fill="#FEFEFE" d="M783.243,272.88c0-1.16,0-2.321,0-3.481
		c0-9.077-0.004-9.04,8.869-8.377c2.166,0.162,4.031,0.714,4.635,2.963c0.633,2.355-0.393,4.222-2.445,5.464
		c-0.844,0.512-1.803,0.827-2.688,1.273c-1.195,0.603-3.488-0.139-3.334,2.103c0.145,2.073,2.342,1.572,3.592,1.79
		c3.455,0.604,5.535,2.129,5.227,5.9c-0.326,3.967-3.01,4.652-6.332,4.611c-9.047-0.113-7.348,0.665-7.52-7.271
		C783.212,276.198,783.243,274.539,783.243,272.88z"/>
</g>
</svg>
