<?xml version="1.0" encoding="utf-8"?>
<!-- Generator: Adobe Illustrator 16.0.0, SVG Export Plug-In . SVG Version: 6.00 Build 0)  -->
<!DOCTYPE svg PUBLIC "-//W3C//DTD SVG 1.1//EN" "http://www.w3.org/Graphics/SVG/1.1/DTD/svg11.dtd">
<svg version="1.1" id="Layer_1" xmlns="http://www.w3.org/2000/svg" xmlns:xlink="http://www.w3.org/1999/xlink" x="0px" y="0px"
	 width="248px" height="173.5px" viewBox="0 0 248 173.5" enable-background="new 0 0 248 173.5" xml:space="preserve">
<g>
	<path fill="#4D4D4E" d="M297.574,225.203c0.576,0,1.137,0.115,1.68,0.345c0.545,0.229,1.021,0.547,1.436,0.952
		c0.412,0.406,0.742,0.878,0.992,1.415c0.248,0.536,0.373,1.118,0.373,1.747v3.636c0,0.589-0.121,1.151-0.363,1.688
		c-0.243,0.537-0.566,1.013-0.973,1.424c-0.408,0.412-0.882,0.74-1.425,0.982c-0.544,0.242-1.116,0.363-1.72,0.363h-2.671
		c-0.354,0-0.665-0.128-0.935-0.383c-0.269-0.256-0.402-0.573-0.402-0.953v-9.883c0-0.34,0.128-0.646,0.384-0.922
		c0.255-0.275,0.571-0.412,0.953-0.412H297.574L297.574,225.203z M296.219,227.875v7.21h1.355c0.249,0,0.484-0.046,0.708-0.138
		c0.222-0.092,0.415-0.219,0.579-0.383s0.291-0.354,0.383-0.57c0.092-0.217,0.139-0.448,0.139-0.696v-3.636
		c0-0.248-0.047-0.48-0.139-0.696s-0.219-0.405-0.383-0.569s-0.357-0.291-0.579-0.384c-0.224-0.091-0.459-0.138-0.708-0.138H296.219
		z"/>
	<path fill="#4D4D4E" d="M310.609,235.498c0.255,0.262,0.383,0.568,0.383,0.923c0,0.38-0.128,0.696-0.383,0.953
		c-0.256,0.255-0.566,0.383-0.934,0.383h-5.227c-0.34,0-0.645-0.128-0.913-0.383c-0.269-0.257-0.401-0.573-0.401-0.953v-9.882
		c0-0.34,0.123-0.646,0.373-0.924c0.248-0.274,0.563-0.412,0.941-0.412h5.227c0.366,0,0.678,0.132,0.934,0.394
		c0.255,0.263,0.383,0.576,0.383,0.942c0,0.381-0.128,0.693-0.383,0.943c-0.256,0.248-0.566,0.373-0.934,0.373h-3.93v1.905h2.613
		c0.354,0,0.66,0.132,0.923,0.394c0.262,0.262,0.394,0.576,0.394,0.942s-0.132,0.679-0.394,0.933
		c-0.263,0.256-0.569,0.383-0.923,0.383h-2.613v2.691h3.93C310.043,235.105,310.354,235.234,310.609,235.498z"/>
	<path fill="#4D4D4E" d="M320.932,225.203c0.604,0,1.166,0.115,1.689,0.345s0.984,0.547,1.387,0.952
		c0.398,0.406,0.719,0.878,0.961,1.415c0.242,0.536,0.377,1.118,0.403,1.747v3.615c-0.026,0.59-0.153,1.156-0.384,1.699
		c-0.229,0.543-0.54,1.021-0.934,1.434c-0.393,0.414-0.854,0.74-1.385,0.982s-1.109,0.363-1.738,0.363
		c-0.604,0-1.17-0.113-1.699-0.344c-0.53-0.23-1-0.547-1.404-0.953c-0.406-0.405-0.73-0.881-0.973-1.424s-0.377-1.131-0.402-1.76
		v-3.613c0.014-0.59,0.139-1.155,0.373-1.699c0.234-0.543,0.553-1.02,0.953-1.426c0.398-0.404,0.869-0.729,1.414-0.971
		C319.736,225.324,320.316,225.203,320.932,225.203z M320.932,235.105c0.25,0,0.481-0.047,0.697-0.139
		c0.217-0.091,0.406-0.223,0.57-0.393c0.163-0.17,0.295-0.363,0.393-0.58c0.1-0.217,0.147-0.454,0.147-0.717v-3.615
		c0-0.248-0.05-0.483-0.147-0.706c-0.098-0.224-0.229-0.416-0.393-0.58c-0.164-0.163-0.354-0.291-0.57-0.384
		c-0.216-0.092-0.447-0.137-0.697-0.137c-0.262,0-0.5,0.045-0.717,0.137c-0.216,0.093-0.408,0.221-0.578,0.384
		c-0.172,0.164-0.303,0.356-0.395,0.58c-0.092,0.223-0.137,0.458-0.137,0.706v3.615c0,0.51,0.177,0.942,0.529,1.297
		C319.988,234.928,320.422,235.105,320.932,235.105z"/>
	<path fill="#4D4D4E" d="M333.652,235.391c0.256,0.254,0.384,0.565,0.384,0.932c0,0.381-0.128,0.699-0.384,0.953
		c-0.256,0.256-0.561,0.383-0.913,0.383h-4.931c-0.381,0-0.694-0.127-0.943-0.383c-0.249-0.254-0.387-0.572-0.412-0.953v-9.881
		c0-0.365,0.131-0.678,0.393-0.934c0.262-0.255,0.584-0.383,0.963-0.383c0.34,0,0.646,0.128,0.914,0.383
		c0.269,0.256,0.401,0.566,0.401,0.934v8.565h3.615C333.094,235.007,333.396,235.134,333.652,235.391z"/>
	<path fill="#4D4D4E" d="M342.109,225.225c0.341,0,0.65,0.123,0.934,0.372c0.281,0.249,0.422,0.563,0.422,0.942v9.9
		c0,0.172-0.035,0.334-0.107,0.491c-0.071,0.157-0.174,0.298-0.305,0.423s-0.277,0.223-0.441,0.295
		c-0.164,0.071-0.331,0.107-0.501,0.107c-0.341,0-0.642-0.128-0.903-0.383c-0.262-0.256-0.393-0.566-0.393-0.934v-3.615h-3.42v3.615
		c0,0.367-0.127,0.678-0.383,0.934c-0.254,0.255-0.572,0.383-0.953,0.383c-0.354,0-0.656-0.124-0.912-0.373
		s-0.391-0.563-0.402-0.943v-9.9c0-0.405,0.141-0.727,0.422-0.963c0.281-0.235,0.58-0.354,0.895-0.354
		c0.379,0,0.697,0.131,0.953,0.393c0.256,0.263,0.383,0.57,0.383,0.924v3.615h3.418v-3.615c0-0.354,0.132-0.661,0.394-0.924
		C341.471,225.354,341.768,225.225,342.109,225.225z"/>
	<path fill="#4D4D4E" d="M349.023,225.203c0.604,0,1.166,0.115,1.689,0.345c0.524,0.229,0.985,0.547,1.387,0.952
		c0.398,0.406,0.72,0.878,0.961,1.415c0.242,0.536,0.377,1.118,0.404,1.747v3.615c-0.027,0.59-0.154,1.156-0.385,1.699
		c-0.229,0.543-0.54,1.021-0.934,1.434c-0.393,0.414-0.854,0.74-1.385,0.982s-1.109,0.363-1.738,0.363
		c-0.604,0-1.17-0.113-1.699-0.344c-0.53-0.23-0.999-0.547-1.404-0.953c-0.406-0.405-0.73-0.881-0.973-1.424
		s-0.376-1.131-0.402-1.76v-3.613c0.014-0.59,0.139-1.155,0.373-1.699c0.235-0.543,0.553-1.02,0.953-1.426
		c0.398-0.404,0.87-0.729,1.414-0.971S348.409,225.203,349.023,225.203z M349.023,235.105c0.25,0,0.482-0.047,0.697-0.139
		c0.217-0.091,0.406-0.223,0.57-0.393c0.163-0.17,0.295-0.363,0.393-0.58c0.1-0.217,0.147-0.454,0.147-0.717v-3.615
		c0-0.248-0.049-0.483-0.147-0.706c-0.098-0.224-0.229-0.416-0.393-0.58c-0.164-0.163-0.354-0.291-0.57-0.384
		c-0.215-0.092-0.447-0.137-0.697-0.137c-0.262,0-0.5,0.045-0.717,0.137c-0.215,0.093-0.408,0.221-0.578,0.384
		c-0.172,0.164-0.303,0.356-0.395,0.58c-0.092,0.223-0.137,0.458-0.137,0.706v3.615c0,0.51,0.177,0.942,0.529,1.297
		C348.08,234.928,348.514,235.105,349.023,235.105z"/>
</g>
<g>
	<g>
		<g>
			<path fill="#54AF47" d="M165.19,107.456c1.313,0,2.429,0.458,3.346,1.377c0.225,0.25,0.324,0.545,0.305,0.885
				c-0.019,0.342-0.147,0.626-0.384,0.849s-0.537,0.339-0.904,0.354c-0.368,0.014-0.671-0.104-0.907-0.354
				c-0.406-0.368-0.893-0.551-1.455-0.551c-0.303,0-0.589,0.061-0.856,0.186c-0.27,0.126-0.507,0.29-0.709,0.494
				c-0.204,0.202-0.365,0.436-0.482,0.699c-0.119,0.263-0.177,0.537-0.177,0.823c0,0.304,0.058,0.591,0.177,0.858
				c0.117,0.269,0.281,0.507,0.492,0.709c0.209,0.202,0.447,0.364,0.71,0.482c0.262,0.117,0.543,0.17,0.846,0.157
				c0.577,0,1.063-0.179,1.458-0.53c0.236-0.263,0.537-0.396,0.904-0.396c0.368,0,0.671,0.133,0.907,0.396
				c0.116,0.102,0.209,0.228,0.275,0.372c0.063,0.142,0.102,0.294,0.109,0.451c0.005,0.157-0.019,0.312-0.071,0.463
				s-0.131,0.287-0.235,0.404c-0.46,0.459-0.964,0.807-1.517,1.046c-0.551,0.235-1.161,0.352-1.831,0.352
				c-0.656,0-1.274-0.126-1.852-0.384c-0.577-0.254-1.082-0.6-1.516-1.031c-0.434-0.436-0.777-0.938-1.033-1.517
				c-0.257-0.579-0.385-1.188-0.385-1.833c0-0.628,0.128-1.232,0.385-1.811c0.256-0.575,0.604-1.082,1.043-1.514
				c0.44-0.436,0.95-0.783,1.527-1.046C163.937,107.584,164.546,107.456,165.19,107.456z"/>
			<path fill="#54AF47" d="M175.841,107.475c0.59,0.067,1.146,0.237,1.664,0.513c0.52,0.275,0.966,0.626,1.339,1.052
				c0.374,0.427,0.669,0.911,0.886,1.458c0.217,0.543,0.324,1.119,0.324,1.721v3.487c0,0.353-0.132,0.654-0.394,0.904
				c-0.262,0.251-0.56,0.373-0.886,0.373c-0.461,0-0.827-0.209-1.104-0.628c-0.065,0.026-0.124,0.056-0.177,0.087
				s-0.104,0.064-0.156,0.087c-0.315,0.145-0.638,0.256-0.966,0.337c-0.342,0.078-0.702,0.117-1.083,0.117
				c-0.983,0-1.863-0.265-2.637-0.796c-0.774-0.534-1.353-1.219-1.733-2.06c-0.131-0.302-0.231-0.612-0.306-0.925
				c-0.072-0.315-0.109-0.645-0.109-0.987c0-0.339,0.037-0.667,0.109-0.983c0.074-0.317,0.175-0.623,0.306-0.927
				c0.381-0.854,0.959-1.542,1.733-2.064c0.773-0.525,1.653-0.787,2.637-0.787c0.104,0,0.2,0,0.285,0
				C175.659,107.456,175.749,107.461,175.841,107.475z M175.271,114.425c0.302,0,0.588-0.057,0.856-0.166
				c0.27-0.111,0.502-0.266,0.699-0.466c0.197-0.195,0.354-0.429,0.472-0.697c0.119-0.271,0.18-0.563,0.18-0.878
				c0-0.286-0.061-0.567-0.18-0.834c-0.117-0.27-0.278-0.506-0.481-0.706c-0.202-0.204-0.438-0.368-0.709-0.483
				c-0.268-0.118-0.548-0.177-0.836-0.177s-0.564,0.059-0.827,0.177c-0.263,0.117-0.495,0.279-0.698,0.483
				c-0.203,0.2-0.365,0.437-0.481,0.706c-0.119,0.267-0.179,0.548-0.179,0.834c0,0.304,0.062,0.591,0.187,0.858
				c0.126,0.269,0.289,0.503,0.492,0.701c0.204,0.196,0.436,0.355,0.698,0.472C174.725,114.366,174.995,114.425,175.271,114.425z"/>
			<path fill="#54AF47" d="M185.45,107.456c0.395,0,0.779,0.061,1.151,0.187c0.373,0.125,0.718,0.316,1.032,0.581
				c0.631-0.512,1.366-0.766,2.207-0.766c0.458,0,0.903,0.086,1.329,0.266c0.426,0.178,0.8,0.416,1.121,0.717
				c0.323,0.302,0.579,0.661,0.769,1.082c0.191,0.423,0.286,0.868,0.286,1.338v4.943c0,0.315-0.133,0.591-0.396,0.827
				c-0.261,0.237-0.564,0.354-0.903,0.354c-0.343,0-0.641-0.128-0.896-0.383c-0.256-0.257-0.385-0.554-0.385-0.895v-4.787
				c0-0.25-0.089-0.46-0.266-0.629c-0.179-0.173-0.397-0.257-0.659-0.257c-0.226,0-0.431,0.078-0.621,0.228
				c-0.19,0.151-0.286,0.37-0.286,0.658v4.785c0,0.353-0.128,0.654-0.385,0.904c-0.255,0.251-0.56,0.373-0.915,0.373
				c-0.328,0-0.623-0.113-0.884-0.344c-0.263-0.229-0.395-0.507-0.395-0.835v-4.884c-0.013-0.263-0.111-0.476-0.297-0.64
				c-0.183-0.165-0.387-0.247-0.608-0.247c-0.25,0-0.463,0.085-0.64,0.258c-0.179,0.169-0.273,0.387-0.286,0.648v4.883
				c-0.027,0.314-0.162,0.59-0.404,0.817c-0.242,0.231-0.534,0.345-0.876,0.345c-0.185,0-0.354-0.03-0.512-0.097
				c-0.157-0.067-0.296-0.156-0.415-0.275c-0.116-0.117-0.212-0.257-0.283-0.415c-0.073-0.155-0.104-0.32-0.089-0.49v-4.844
				c0-0.459,0.091-0.896,0.274-1.311c0.184-0.413,0.435-0.773,0.749-1.082c0.313-0.309,0.686-0.554,1.112-0.739
				C184.508,107.547,184.964,107.456,185.45,107.456z"/>
			<path fill="#54AF47" d="M200.451,107.475c0.59,0.067,1.146,0.237,1.664,0.513c0.52,0.275,0.966,0.626,1.339,1.052
				c0.374,0.427,0.669,0.911,0.886,1.458c0.217,0.543,0.324,1.119,0.324,1.721v3.487c0,0.353-0.132,0.654-0.394,0.904
				c-0.262,0.251-0.56,0.373-0.885,0.373c-0.462,0-0.828-0.209-1.104-0.628c-0.066,0.026-0.125,0.056-0.178,0.087
				s-0.104,0.064-0.156,0.087c-0.315,0.145-0.638,0.256-0.966,0.337c-0.341,0.078-0.702,0.117-1.082,0.117
				c-0.984,0-1.863-0.265-2.638-0.796c-0.774-0.534-1.353-1.219-1.733-2.06c-0.131-0.302-0.231-0.612-0.306-0.925
				c-0.072-0.315-0.109-0.645-0.109-0.987c0-0.339,0.037-0.667,0.109-0.983c0.074-0.317,0.175-0.623,0.306-0.927
				c0.381-0.854,0.959-1.542,1.733-2.064c0.774-0.525,1.653-0.787,2.638-0.787c0.104,0,0.2,0,0.284,0
				C200.272,107.456,200.359,107.461,200.451,107.475z M199.881,114.425c0.302,0,0.588-0.057,0.857-0.166
				c0.269-0.111,0.501-0.266,0.698-0.466c0.197-0.195,0.354-0.429,0.473-0.697c0.118-0.271,0.178-0.563,0.178-0.878
				c0-0.286-0.06-0.567-0.178-0.834c-0.118-0.27-0.279-0.506-0.482-0.706c-0.202-0.204-0.438-0.368-0.709-0.483
				c-0.268-0.118-0.548-0.177-0.836-0.177s-0.564,0.059-0.827,0.177c-0.262,0.117-0.495,0.279-0.698,0.483
				c-0.203,0.2-0.365,0.437-0.481,0.706c-0.119,0.267-0.178,0.548-0.178,0.834c0,0.304,0.061,0.591,0.186,0.858
				c0.126,0.269,0.289,0.503,0.493,0.701c0.203,0.196,0.435,0.355,0.697,0.472C199.336,114.366,199.605,114.425,199.881,114.425z"/>
			<path fill="#54AF47" d="M207.697,117.008c-0.354,0-0.65-0.118-0.886-0.346c-0.238-0.23-0.369-0.536-0.396-0.919v-3.642
				c0.014-0.632,0.148-1.224,0.403-1.782c0.256-0.557,0.598-1.045,1.023-1.458c0.427-0.414,0.927-0.74,1.498-0.984
				c0.57-0.241,1.179-0.377,1.821-0.402c0.368,0,0.671,0.124,0.915,0.373c0.243,0.25,0.377,0.552,0.403,0.907
				c0,0.353-0.125,0.651-0.375,0.894c-0.251,0.244-0.559,0.37-0.925,0.384c-0.302,0-0.585,0.055-0.848,0.166
				c-0.262,0.111-0.491,0.268-0.687,0.466c-0.198,0.196-0.355,0.429-0.474,0.698s-0.177,0.562-0.177,0.876v3.584
				c-0.026,0.342-0.153,0.623-0.384,0.845C208.383,116.896,208.078,117.008,207.697,117.008z"/>
			<path fill="#54AF47" d="M218.683,107.475c0.592,0.067,1.146,0.237,1.665,0.513s0.964,0.626,1.34,1.052
				c0.373,0.427,0.668,0.911,0.885,1.458c0.217,0.543,0.324,1.119,0.324,1.721v3.487c0,0.353-0.133,0.654-0.394,0.904
				c-0.263,0.251-0.559,0.373-0.886,0.373c-0.46,0-0.826-0.209-1.102-0.628c-0.067,0.026-0.125,0.056-0.179,0.087
				c-0.053,0.031-0.105,0.064-0.158,0.087c-0.314,0.145-0.637,0.256-0.966,0.337c-0.339,0.078-0.699,0.117-1.082,0.117
				c-0.983,0-1.863-0.265-2.637-0.796c-0.774-0.534-1.353-1.219-1.732-2.06c-0.131-0.302-0.232-0.612-0.306-0.925
				c-0.071-0.315-0.108-0.645-0.108-0.987c0-0.339,0.034-0.667,0.108-0.983c0.073-0.317,0.175-0.623,0.306-0.927
				c0.38-0.854,0.958-1.542,1.732-2.064c0.773-0.525,1.653-0.787,2.637-0.787c0.106,0,0.2,0,0.287,0
				C218.503,107.456,218.593,107.461,218.683,107.475z M218.112,114.425c0.303,0,0.589-0.057,0.856-0.166
				c0.27-0.111,0.503-0.266,0.701-0.466c0.195-0.195,0.354-0.429,0.472-0.697c0.117-0.271,0.178-0.563,0.178-0.878
				c0-0.286-0.061-0.567-0.178-0.834c-0.118-0.27-0.28-0.506-0.482-0.706c-0.203-0.204-0.439-0.368-0.709-0.483
				c-0.268-0.118-0.548-0.177-0.836-0.177c-0.289,0-0.564,0.059-0.826,0.177c-0.264,0.117-0.496,0.279-0.7,0.483
				c-0.204,0.2-0.363,0.437-0.482,0.706c-0.117,0.267-0.178,0.548-0.178,0.834c0,0.304,0.063,0.591,0.188,0.858
				c0.125,0.269,0.287,0.503,0.49,0.701c0.204,0.196,0.438,0.355,0.7,0.472C217.566,114.366,217.837,114.425,218.112,114.425z"/>
		</g>
		<g>
			<path fill="#54AF47" d="M172.878,106.79c0.187,0.014,0.354-0.04,0.501-0.16l1.902-1.622l1.923,1.622
				c0.146,0.12,0.312,0.174,0.492,0.16c0.18-0.014,0.336-0.093,0.47-0.241c0.119-0.146,0.173-0.313,0.161-0.501
				c-0.014-0.186-0.095-0.34-0.241-0.459l-2.343-1.983c-0.095-0.081-0.229-0.136-0.41-0.162c-0.18-0.024-0.344,0.028-0.491,0.162
				l-2.344,1.983c-0.146,0.119-0.227,0.273-0.241,0.459c-0.013,0.188,0.04,0.355,0.162,0.501
				C172.538,106.697,172.691,106.776,172.878,106.79z"/>
		</g>
	</g>
	<g>
		<path fill="#4D4D4E" d="M11.037,102.15c-0.665-1.689-0.755-3.276-0.269-4.763c0.487-1.484,1.319-2.714,2.497-3.688
			c1.177-0.972,2.612-1.587,4.302-1.844c1.69-0.255,3.431,0,5.224,0.769c0.102,0.052,0.23-0.204,0.384-0.769
			c0.154-0.563,0.281-1.306,0.384-2.228c0.102-0.922,0.153-1.959,0.153-3.112c0-1.152-0.077-2.291-0.23-3.418
			c-0.666,0.359-1.473,0.718-2.419,1.076c-0.948,0.359-1.87,0.614-2.766,0.769c-0.896,0.153-1.69,0.191-2.381,0.115
			c-0.691-0.077-1.063-0.371-1.114-0.884c-0.103-0.461,0.102-0.922,0.615-1.383c0.511-0.461,1.178-0.972,1.998-1.536
			c0.818-0.563,1.74-1.229,2.765-1.998c1.024-0.768,1.998-1.715,2.919-2.842c0.05-0.05,0.089-0.73,0.115-2.036
			c0.025-1.306,0.077-2.958,0.153-4.955c0.077-1.997,0.179-4.187,0.308-6.568c0.127-2.381,0.333-4.648,0.614-6.799
			c0.281-2.151,0.64-4.045,1.076-5.685c0.435-1.639,1.011-2.739,1.729-3.303c1.279-1.126,2.766-1.575,4.456-1.344
			s3.265,0.948,4.724,2.151c1.46,1.204,2.676,2.804,3.649,4.801c0.973,1.997,1.434,4.2,1.383,6.606
			c-0.103,3.227-0.641,6.019-1.613,8.374c-0.974,2.356-2.024,4.34-3.15,5.953c-1.127,1.613-2.151,2.856-3.073,3.726
			c-0.922,0.872-1.383,1.434-1.383,1.69c-0.103,1.435-0.154,2.907-0.154,4.417c0,1.511-0.013,2.971-0.038,4.38
			c-0.026,1.409-0.09,2.701-0.192,3.879c-0.103,1.179-0.307,2.151-0.614,2.919c1.792,1.076,3.431,2.164,4.917,3.265
			c1.485,1.103,3.06,2.036,4.724,2.805c1.664,0.768,3.546,1.292,5.646,1.574c2.099,0.281,4.686,0.166,7.759-0.346
			c0.768-0.153,1.178,0.051,1.229,0.615c0.051,0.563-0.307,1.229-1.075,1.997c-0.769,0.769-1.947,1.498-3.534,2.189
			c-1.588,0.691-3.637,1.113-6.146,1.268c-2.458,0.153-4.737-0.09-6.837-0.73c-2.101-0.641-3.944-1.396-5.531-2.266
			c-1.844-0.974-3.56-2.126-5.147-3.457c-0.307,0.461-0.718,0.973-1.229,1.536c-0.411,0.461-0.922,0.961-1.537,1.498
			c-0.615,0.538-1.357,1.011-2.228,1.421c-0.872,0.461-1.819,0.756-2.843,0.884c-1.025,0.127-2.036,0.063-3.034-0.192
			c-0.999-0.257-1.947-0.742-2.842-1.459C12.483,104.506,11.703,103.481,11.037,102.15z M15.108,99.77
			c0.204,0.718,0.538,1.28,0.999,1.689s0.999,0.615,1.613,0.615s1.254-0.282,1.92-0.846c0.665-0.563,1.356-1.459,2.074-2.688
			c-0.564-0.409-1.281-0.769-2.151-1.075c-0.872-0.308-1.69-0.473-2.458-0.5c-0.768-0.024-1.383,0.167-1.844,0.576
			C14.801,97.952,14.75,98.693,15.108,99.77z M31.471,69.425c1.639-1.69,2.868-3.457,3.688-5.3c0.717-1.587,1.049-3.38,0.999-5.377
			c-0.051-1.998-0.973-4.072-2.765-6.223c-0.154-0.154-0.295-0.025-0.423,0.384c-0.128,0.411-0.257,0.999-0.384,1.767
			c-0.128,0.769-0.244,1.665-0.346,2.689c-0.104,1.025-0.18,2.074-0.23,3.149C31.803,63.075,31.625,66.045,31.471,69.425z"/>
		<path fill="#4D4D4E" d="M47.142,71.729c0.717-1.383,1.664-2.585,2.842-3.61c1.178-1.024,2.47-1.856,3.879-2.497
			c1.408-0.64,2.893-1.114,4.456-1.421c1.562-0.307,3.085-0.461,4.571-0.461c1.537,0.103,2.854,0.603,3.957,1.498
			c1.101,0.896,1.882,2.049,2.343,3.457c0.461,1.409,0.55,2.984,0.269,4.724c-0.282,1.742-1.037,3.509-2.267,5.301
			c-1.332,1.947-2.753,3.406-4.263,4.378c-1.511,0.974-2.907,1.665-4.187,2.075c-1.486,0.512-2.945,0.742-4.378,0.691
			c-0.052,1.947,0.153,3.611,0.614,4.994c0.204,0.614,0.448,1.19,0.73,1.729c0.281,0.537,0.653,1.012,1.114,1.421
			c0.461,0.41,1.024,0.704,1.69,0.884c0.665,0.18,1.434,0.191,2.305,0.038c1.844-0.308,3.342-0.985,4.494-2.036
			c1.152-1.049,2.112-2.112,2.881-3.188c0.768-1.076,1.395-2.01,1.882-2.804c0.486-0.794,0.96-1.088,1.421-0.884
			c0.563,0.257,0.857,0.896,0.883,1.921c0.025,1.024-0.218,2.228-0.73,3.61c-0.512,1.383-1.267,2.804-2.266,4.264
			c-0.999,1.459-2.266,2.701-3.802,3.726c-1.537,1.024-3.303,1.729-5.301,2.112c-1.997,0.384-4.225,0.192-6.683-0.576
			c-1.998-0.614-3.663-1.587-4.994-2.919c-1.332-1.331-2.381-2.868-3.149-4.609c-0.768-1.74-1.281-3.61-1.537-5.607
			c-0.257-1.999-0.295-3.982-0.115-5.955c0.179-1.971,0.563-3.853,1.152-5.646C45.541,74.546,46.271,73.01,47.142,71.729z
			 M54.286,80.103c0.665-0.102,1.408-0.308,2.228-0.615c0.717-0.256,1.498-0.64,2.343-1.152c0.845-0.511,1.754-1.229,2.728-2.151
			c0.922-0.87,1.548-1.715,1.882-2.535c0.333-0.818,0.524-1.51,0.576-2.074c0.05-0.665-0.052-1.279-0.307-1.844
			c-0.718-0.204-1.486-0.204-2.305,0c-0.718,0.206-1.511,0.615-2.381,1.229c-0.872,0.614-1.767,1.588-2.689,2.919
			c-0.718,1.025-1.229,1.934-1.536,2.727c-0.308,0.795-0.513,1.448-0.615,1.959C54.106,79.181,54.133,79.693,54.286,80.103z"/>
		<path fill="#4D4D4E" d="M108.828,92.241c1.125-0.461,1.997-0.665,2.612-0.615c0.614,0.052,0.999,0.244,1.152,0.576
			c0.153,0.334,0.088,0.757-0.192,1.268c-0.282,0.513-0.729,0.999-1.344,1.46c-0.513,0.358-1.14,0.845-1.882,1.46
			c-0.743,0.614-1.511,1.267-2.305,1.958c-0.795,0.691-1.563,1.371-2.305,2.036c-0.743,0.666-1.371,1.203-1.882,1.613
			c0.358,2.406,0.563,4.852,0.615,7.336c0.05,2.483-0.103,4.865-0.461,7.145c-0.359,2.278-0.948,4.379-1.767,6.299
			c-0.819,1.921-1.92,3.496-3.303,4.725c-1.947,1.741-3.917,2.739-5.915,2.996c-1.997,0.256-3.764-0.076-5.3-0.998
			c-1.537-0.922-2.741-2.344-3.611-4.264c-0.871-1.921-1.127-4.187-0.768-6.799c0.409-2.663,1.241-5.02,2.497-7.067
			c1.254-2.049,2.574-3.765,3.956-5.147c1.639-1.64,3.405-3.047,5.301-4.225c-0.052-0.41-0.154-0.973-0.307-1.69
			c-0.104-0.614-0.282-1.395-0.538-2.343c-0.257-0.947-0.589-2.163-0.999-3.648c-0.257-0.871-0.576-1.702-0.96-2.497
			c-0.384-0.793-0.756-1.472-1.114-2.036c-0.461-0.664-0.896-1.254-1.306-1.767c-0.82,0.922-1.665,1.742-2.535,2.458
			c-0.718,0.615-1.511,1.166-2.381,1.652c-0.872,0.487-1.69,0.729-2.458,0.729c-0.82,0-1.742-0.435-2.765-1.306
			c-1.025-0.87-1.934-2.022-2.728-3.457c-0.794-1.434-1.409-3.074-1.843-4.917c-0.436-1.844-0.5-3.738-0.192-5.685
			c0.358-1.946,0.819-3.507,1.383-4.686c0.563-1.178,1.178-2.113,1.844-2.804c0.665-0.691,1.383-1.19,2.151-1.498
			c0.768-0.307,1.537-0.538,2.305-0.691c1.126-0.204,2.47-0.05,4.033,0.461c1.562,0.513,3.046,1.166,4.456,1.959
			c1.408,0.794,2.612,1.613,3.61,2.458c0.999,0.845,1.472,1.498,1.421,1.958c-0.052,0.461-0.603,0.628-1.652,0.5
			c-1.05-0.127-2.254-0.294-3.61-0.5c-1.358-0.204-2.689-0.307-3.995-0.307c-1.306,0-2.216,0.411-2.727,1.229
			c-0.513,0.82-0.922,1.793-1.229,2.919c-0.307,1.127-0.499,2.254-0.576,3.38c-0.077,1.127-0.013,2.164,0.192,3.111
			c0.204,0.948,0.588,1.651,1.152,2.112c0.307,0.257,0.729,0.167,1.268-0.269c0.538-0.435,1.164-0.973,1.882-1.613
			c0.717-0.64,1.51-1.254,2.381-1.844c0.87-0.588,1.805-0.947,2.804-1.076c0.999-0.127,2.036,0.129,3.111,0.769
			c1.076,0.641,2.176,1.882,3.303,3.726c0.665,1.076,1.37,2.318,2.113,3.726c0.742,1.409,1.395,3.418,1.959,6.03
			c1.331-0.818,2.585-1.601,3.764-2.343C106.317,93.458,107.547,92.805,108.828,92.241z M93.002,120.434
			c0.307-0.871,0.5-1.985,0.576-3.342c0.077-1.357,0.115-2.701,0.115-4.032c-0.052-1.537-0.128-3.15-0.23-4.84
			c-1.076,0.922-2.024,1.894-2.842,2.919c-0.718,0.87-1.344,1.894-1.882,3.072c-0.538,1.178-0.756,2.433-0.653,3.765
			c0.102,1.279,0.384,2.215,0.845,2.804c0.461,0.588,0.96,0.922,1.498,0.999c0.538,0.077,1.049-0.026,1.536-0.308
			C92.452,121.188,92.797,120.843,93.002,120.434z"/>
		<path fill="#4D4D4E" d="M104.448,80.948c0.154-1.229,0.358-2.407,0.615-3.534c0.256-1.126,0.576-2.176,0.96-3.149
			c0.384-0.972,0.806-1.805,1.267-2.497s0.973-1.191,1.537-1.498c0.563-0.256,1.292-0.524,2.189-0.807
			c0.896-0.281,1.74-0.384,2.535-0.307c0.793,0.077,1.395,0.436,1.805,1.075c0.409,0.641,0.384,1.755-0.077,3.342
			c-0.205,0.872-0.384,1.959-0.538,3.265c-0.153,1.306-0.244,2.715-0.269,4.225c-0.027,1.511,0.012,3.022,0.115,4.532
			c0.102,1.512,0.294,2.908,0.576,4.187c0.281,1.281,0.665,2.37,1.152,3.266c0.486,0.896,1.088,1.473,1.806,1.729
			c1.484,0.512,2.765,0.461,3.841-0.154c1.076-0.614,2.074-1.562,2.996-2.842c0.357-0.563,0.793-1.037,1.306-1.422
			c0.512-0.384,0.934-0.55,1.268-0.499c0.333,0.052,0.499,0.384,0.499,0.999c0,0.614-0.333,1.64-0.998,3.072
			c-0.718,1.486-1.627,2.792-2.728,3.918c-1.102,1.127-2.331,2.011-3.687,2.65c-1.358,0.64-2.804,1.011-4.34,1.114
			c-1.537,0.102-3.073-0.129-4.609-0.691c-1.536-0.512-2.792-1.241-3.764-2.189c-0.974-0.947-1.729-2.215-2.266-3.803
			c-0.538-1.587-0.896-3.521-1.076-5.8C104.383,86.851,104.345,84.124,104.448,80.948z M107.905,53.523
			c0.563-1.125,1.421-1.817,2.574-2.074c1.152-0.256,2.278-0.23,3.38,0.077c1.101,0.307,2.048,0.833,2.842,1.575
			c0.793,0.743,1.114,1.601,0.96,2.574c-0.206,1.179-0.858,2.189-1.959,3.034c-1.102,0.845-2.753,1.166-4.955,0.96
			c-0.614-0.051-1.166-0.281-1.651-0.691c-0.487-0.41-0.884-0.909-1.191-1.498c-0.307-0.588-0.474-1.241-0.5-1.959
			C107.379,54.804,107.546,54.138,107.905,53.523z"/>
		<path fill="#4D4D4E" d="M142.473,63.664c0.204,0.41,0.179,0.729-0.076,0.96c-0.257,0.23-0.628,0.461-1.114,0.691
			c-0.487,0.23-1.037,0.513-1.651,0.845c-0.615,0.333-1.204,0.807-1.768,1.421c-0.563,0.615-1.037,1.409-1.421,2.381
			c-0.384,0.974-0.576,2.203-0.576,3.688c-0.052,1.486,0.294,2.919,1.037,4.302c0.742,1.383,1.651,2.728,2.728,4.033
			c1.075,1.306,2.253,2.587,3.533,3.841c1.279,1.256,2.432,2.536,3.457,3.841c1.023,1.307,1.83,2.639,2.42,3.995
			c0.588,1.357,0.78,2.754,0.576,4.187c-0.257,1.435-1.063,2.65-2.42,3.649c-1.357,0.998-3.009,1.767-4.955,2.305
			c-1.946,0.537-4.046,0.831-6.299,0.883c-2.254,0.051-4.367-0.142-6.338-0.576c-1.972-0.436-3.676-1.113-5.108-2.035
			c-1.435-0.922-2.33-2.1-2.689-3.534c-0.563-2.1-0.729-3.866-0.499-5.301c0.23-1.433,0.653-2.624,1.268-3.572
			c0.614-0.946,1.306-1.689,2.074-2.228c0.769-0.538,1.434-0.96,1.997-1.268c1.178-0.665,1.959-0.665,2.344,0
			c0.384,0.666,0.141,1.717-0.73,3.15c-0.41,0.718-0.512,1.524-0.307,2.42c0.204,0.897,0.678,1.742,1.421,2.535
			c0.742,0.795,1.69,1.473,2.843,2.036c1.152,0.564,2.47,0.871,3.956,0.922c0.922,0.052,1.855-0.039,2.804-0.27
			c0.947-0.229,1.729-0.588,2.343-1.075c0.615-0.486,0.985-1.075,1.114-1.767c0.127-0.691-0.142-1.472-0.807-2.343
			c-0.666-0.87-1.818-1.972-3.457-3.304c-1.64-1.332-3.316-2.804-5.031-4.417c-1.717-1.613-3.227-3.329-4.533-5.147
			c-1.306-1.817-1.959-3.649-1.959-5.493c0-3.636,0.653-6.299,1.959-7.989c1.307-1.69,3.419-2.791,6.338-3.303
			c1.434-0.256,2.612-0.371,3.534-0.346c0.922,0.026,1.651,0.142,2.189,0.346c0.537,0.205,0.934,0.449,1.19,0.73
			C142.114,63.139,142.319,63.408,142.473,63.664z"/>
		<path fill="#4D4D4E" d="M174.199,54.599c-0.205,2.305-0.563,4.507-1.075,6.606c-0.513,2.101-1.114,4.098-1.806,5.992
			c-0.691,1.895-1.447,3.687-2.266,5.377c-0.82,1.69-1.64,3.226-2.458,4.609c-1.947,3.278-4.099,6.249-6.453,8.912
			c0,0.358,0.077,0.819,0.23,1.383c0.102,0.512,0.308,1.14,0.614,1.882c0.308,0.743,0.794,1.626,1.46,2.65
			c1.331,2.15,2.804,3.495,4.417,4.033c1.613,0.537,3.175,0.589,4.686,0.153c1.511-0.435,2.829-1.203,3.957-2.305
			c1.126-1.101,1.894-2.215,2.305-3.342c0.409-1.178,0.818-1.945,1.229-2.305c0.409-0.357,0.78-0.447,1.114-0.269
			c0.332,0.18,0.588,0.551,0.768,1.113c0.18,0.564,0.243,1.179,0.192,1.844c-0.871,2.305-1.972,4.329-3.303,6.069
			c-0.564,0.768-1.229,1.511-1.998,2.228c-0.768,0.718-1.613,1.357-2.535,1.921c-0.922,0.563-1.934,1.011-3.034,1.344
			c-1.102,0.333-2.292,0.474-3.572,0.423c-3.277-0.052-6.005-0.845-8.181-2.382c-2.178-1.536-3.932-3.507-5.263-5.915
			c-1.332-2.406-2.279-5.134-2.842-8.181c-0.564-3.047-0.884-6.133-0.961-9.257c-0.076-3.123,0.051-6.132,0.385-9.026
			c0.332-2.893,0.729-5.416,1.19-7.566c0.512-2.253,1.19-4.481,2.036-6.684c0.845-2.201,1.894-4.148,3.149-5.838
			c1.254-1.69,2.739-3.021,4.455-3.995c1.716-0.972,3.726-1.331,6.03-1.075c1.69,0.257,3.15,0.845,4.379,1.767
			c1.024,0.768,1.895,1.934,2.612,3.495C174.378,49.824,174.558,51.937,174.199,54.599z M159.373,79.334
			c1.331-2.201,2.561-4.48,3.688-6.837c0.973-1.997,1.921-4.187,2.843-6.568s1.587-4.725,1.997-7.029
			c0.204-1.126,0.396-2.278,0.576-3.457c0.179-1.178,0.256-2.267,0.23-3.265c-0.026-0.999-0.219-1.844-0.576-2.535
			c-0.359-0.691-0.948-1.087-1.767-1.19c-1.076-0.102-2.036,0.269-2.881,1.114c-0.846,0.845-1.563,2.024-2.151,3.534
			c-0.589,1.511-1.063,3.303-1.421,5.377c-0.359,2.074-0.614,4.277-0.769,6.606c-0.153,2.331-0.205,4.725-0.153,7.183
			C159.04,74.726,159.168,77.082,159.373,79.334z"/>
		<path fill="#4D4D4E" d="M197.783,68.58c-0.153,0.666-0.589,1.217-1.306,1.651c-0.718,0.436-1.536,0.883-2.458,1.344
			s-1.87,0.974-2.843,1.537c-0.973,0.564-1.793,1.306-2.458,2.228c-1.025,1.486-1.741,3.253-2.15,5.301
			c-0.411,2.049-0.603,4.008-0.576,5.876c0.024,1.871,0.255,3.484,0.691,4.84c0.434,1.357,0.985,2.036,1.651,2.036
			c0.818,0,1.677-0.385,2.573-1.152c0.896-0.769,1.702-1.652,2.42-2.65c0.717-0.999,1.306-2.022,1.767-3.074
			c0.461-1.049,0.691-1.855,0.691-2.419c0-0.563-0.026-1.345-0.076-2.343c-0.052-0.999-0.039-1.984,0.038-2.958
			c0.077-0.972,0.23-1.817,0.461-2.535c0.23-0.716,0.626-1.101,1.19-1.152c0.563-0.05,1.241-0.179,2.036-0.384
			c0.793-0.204,1.548-0.23,2.266-0.077c0.717,0.154,1.293,0.653,1.729,1.498c0.435,0.845,0.602,2.293,0.5,4.34
			c-0.154,4.148,0.05,7.287,0.614,9.411c0.563,2.126,1.663,3.368,3.303,3.727c1.126,0.205,2.138-0.064,3.035-0.807
			c0.896-0.742,1.701-1.575,2.419-2.497c0.717-0.922,1.332-1.754,1.844-2.496c0.512-0.743,0.922-1.038,1.229-0.884
			c0.357,0.153,0.486,0.795,0.384,1.92c-0.103,1.128-0.487,2.396-1.152,3.803c-0.666,1.409-1.651,2.817-2.957,4.226
			c-1.306,1.409-2.984,2.496-5.032,3.265c-1.075,0.41-2.074,0.614-2.995,0.614c-0.922,0-1.755-0.127-2.497-0.384
			c-0.743-0.256-1.396-0.614-1.959-1.075c-0.564-0.461-1.075-0.973-1.536-1.537c-1.025-1.279-1.844-2.867-2.458-4.763
			c-0.513,1.229-1.229,2.305-2.151,3.227c-0.769,0.82-1.767,1.575-2.996,2.267s-2.74,1.089-4.532,1.19
			c-1.793,0.052-3.483-0.512-5.07-1.69c-1.588-1.177-2.855-2.765-3.803-4.763c-0.948-1.997-1.459-4.313-1.536-6.953
			c-0.077-2.637,0.499-5.416,1.729-8.335c0.818-1.894,1.894-3.507,3.227-4.839c1.331-1.331,2.752-2.42,4.264-3.265
			c1.51-0.845,3.021-1.459,4.532-1.843c1.51-0.384,2.867-0.602,4.071-0.653c1.203-0.05,2.176,0.039,2.919,0.269
			C197.565,67.85,197.886,68.17,197.783,68.58z"/>
		<path fill="#4D4D4E" d="M211.61,71.038c-0.563-0.307-1.075-0.486-1.536-0.538c-0.461-0.051-0.884-0.077-1.268-0.077
			s-0.717-0.038-0.999-0.115c-0.28-0.077-0.524-0.319-0.729-0.729c-0.153-0.358,0.09-0.845,0.729-1.459
			c0.642-0.615,1.498-1.126,2.574-1.537c1.075-0.409,2.278-0.576,3.61-0.5c1.331,0.077,2.611,0.603,3.841,1.575
			c1.075,0.922,1.959,1.805,2.65,2.65c0.691,0.845,1.241,1.602,1.651,2.267c0.461,0.768,0.794,1.511,0.999,2.228
			c1.433-1.383,2.919-2.535,4.455-3.457c1.331-0.818,2.816-1.484,4.456-1.997c1.639-0.511,3.276-0.538,4.916-0.077
			c0.409,0.153,0.602,0.474,0.576,0.96c-0.026,0.487-0.23,1.012-0.614,1.575c-0.384,0.564-0.91,1.102-1.575,1.613
			c-0.666,0.513-1.459,0.872-2.381,1.076c-1.794,0.41-3.215,1.179-4.264,2.305c-1.051,1.127-1.857,2.446-2.42,3.956
			c-0.564,1.511-0.922,3.125-1.075,4.839c-0.154,1.717-0.23,3.369-0.23,4.956c0.05,3.33-0.411,5.8-1.383,7.413
			c-0.974,1.613-2.279,2.472-3.918,2.573c-1.896,0.104-3.304-0.768-4.226-2.611c-0.921-1.844-1.382-4.967-1.382-9.372
			c0.05-2.766,0.076-5.173,0.076-7.222c0-2.048-0.076-3.776-0.23-5.186c-0.153-1.408-0.41-2.521-0.768-3.341
			C212.788,71.986,212.275,71.397,211.61,71.038z"/>
	</g>
</g>
</svg>
