<?xml version="1.0" encoding="utf-8"?>
<!-- Generator: Adobe Illustrator 16.0.0, SVG Export Plug-In . SVG Version: 6.00 Build 0)  -->
<!DOCTYPE svg PUBLIC "-//W3C//DTD SVG 1.1//EN" "http://www.w3.org/Graphics/SVG/1.1/DTD/svg11.dtd">
<svg version="1.1" id="Layer_1" xmlns="http://www.w3.org/2000/svg" xmlns:xlink="http://www.w3.org/1999/xlink" x="0px" y="0px"
	 width="271.982px" height="106.339px" viewBox="21.593 8.167 271.982 106.339"
	 enable-background="new 21.593 8.167 271.982 106.339" xml:space="preserve">
<g>
	<path fill="#FFFFFF" d="M22.283,79.784c-0.796-2.024-0.904-3.926-0.321-5.706c0.583-1.778,1.58-3.249,2.99-4.417
		c1.41-1.162,3.128-1.899,5.152-2.208c2.024-0.304,4.109,0,6.257,0.922c0.122,0.061,0.275-0.246,0.46-0.922
		c0.184-0.674,0.336-1.563,0.46-2.667c0.123-1.104,0.184-2.349,0.184-3.729s-0.092-2.745-0.276-4.096
		c-0.798,0.43-1.764,0.859-2.898,1.289c-1.136,0.431-2.24,0.736-3.313,0.921c-1.074,0.184-2.024,0.229-2.852,0.138
		c-0.828-0.093-1.274-0.444-1.334-1.059c-0.124-0.552,0.122-1.104,0.736-1.656c0.612-0.552,1.411-1.165,2.393-1.84
		c0.98-0.674,2.084-1.471,3.312-2.392c1.227-0.918,2.393-2.053,3.497-3.403c0.06-0.06,0.106-0.875,0.138-2.438
		c0.03-1.564,0.092-3.542,0.184-5.935c0.093-2.392,0.215-5.014,0.369-7.867c0.152-2.852,0.398-5.567,0.736-8.143
		c0.337-2.576,0.767-4.845,1.288-6.809c0.521-1.963,1.211-3.281,2.07-3.957c1.532-1.349,3.313-1.886,5.337-1.61
		c2.024,0.276,3.91,1.136,5.658,2.576c1.749,1.441,3.205,3.358,4.371,5.75c1.165,2.392,1.717,5.03,1.656,7.913
		c-0.123,3.865-0.767,7.209-1.932,10.029c-1.166,2.822-2.424,5.199-3.772,7.13c-1.35,1.933-2.576,3.421-3.681,4.463
		c-1.104,1.043-1.656,1.717-1.656,2.023c-0.123,1.717-0.184,3.48-0.184,5.289c0,1.811-0.016,3.561-0.045,5.248
		c-0.032,1.688-0.108,3.237-0.23,4.647c-0.124,1.411-0.368,2.576-0.736,3.495c2.146,1.289,4.109,2.592,5.889,3.911
		c1.778,1.319,3.665,2.438,5.658,3.359c1.993,0.92,4.247,1.547,6.763,1.886c2.514,0.337,5.612,0.199,9.293-0.414
		c0.92-0.185,1.411,0.061,1.472,0.736c0.061,0.674-0.368,1.472-1.288,2.392c-0.92,0.921-2.332,1.794-4.232,2.622
		c-1.902,0.828-4.356,1.333-7.361,1.519c-2.944,0.185-5.674-0.108-8.189-0.875c-2.516-0.768-4.724-1.671-6.624-2.714
		c-2.208-1.165-4.264-2.545-6.165-4.141c-0.368,0.552-0.859,1.165-1.472,1.841c-0.492,0.553-1.104,1.151-1.841,1.795
		c-0.736,0.643-1.625,1.209-2.668,1.7c-1.044,0.552-2.178,0.905-3.405,1.06c-1.228,0.152-2.438,0.075-3.634-0.231
		c-1.196-0.307-2.332-0.889-3.404-1.747C24.016,82.605,23.081,81.376,22.283,79.784z M27.16,76.932
		c0.245,0.858,0.644,1.532,1.196,2.023c0.552,0.488,1.196,0.736,1.932,0.736s1.502-0.339,2.3-1.013
		c0.796-0.674,1.625-1.747,2.484-3.222c-0.676-0.488-1.534-0.919-2.576-1.286c-1.044-0.37-2.024-0.566-2.945-0.599
		c-0.92-0.031-1.656,0.198-2.208,0.689C26.792,74.753,26.73,75.643,27.16,76.932z M46.757,40.585
		c1.963-2.024,3.435-4.141,4.417-6.349c0.858-1.9,1.257-4.048,1.196-6.44c-0.062-2.393-1.166-4.877-3.312-7.453
		c-0.184-0.184-0.354-0.03-0.506,0.46c-0.154,0.492-0.308,1.196-0.459,2.116c-0.154,0.92-0.292,1.994-0.414,3.221
		c-0.124,1.228-0.216,2.484-0.276,3.772C47.156,32.98,46.942,36.537,46.757,40.585z"/>
	<path fill="#FFFFFF" d="M65.528,43.345c0.858-1.656,1.993-3.097,3.404-4.324c1.411-1.227,2.958-2.223,4.646-2.991
		c1.687-0.766,3.465-1.334,5.336-1.702c1.871-0.368,3.695-0.552,5.475-0.552c1.841,0.124,3.419,0.722,4.739,1.794
		c1.318,1.073,2.254,2.454,2.806,4.14c0.552,1.688,0.659,3.574,0.322,5.659c-0.338,2.086-1.242,4.202-2.715,6.349
		c-1.595,2.33-3.298,4.078-5.106,5.242c-1.81,1.166-3.482,1.994-5.015,2.485c-1.779,0.613-3.527,0.89-5.244,0.829
		c-0.062,2.332,0.184,4.326,0.736,5.982c0.245,0.737,0.536,1.427,0.875,2.07c0.336,0.644,0.782,1.212,1.334,1.703
		c0.552,0.491,1.226,0.842,2.024,1.058c0.796,0.215,1.717,0.229,2.76,0.047c2.208-0.37,4.003-1.182,5.383-2.44
		c1.38-1.256,2.53-2.528,3.451-3.817c0.92-1.29,1.67-2.409,2.254-3.359c0.583-0.952,1.15-1.305,1.703-1.06
		c0.674,0.308,1.026,1.074,1.058,2.302c0.031,1.228-0.261,2.669-0.874,4.325c-0.614,1.656-1.518,3.359-2.714,5.106
		c-1.196,1.748-2.714,3.235-4.554,4.464c-1.84,1.226-3.957,2.07-6.349,2.528c-2.392,0.461-5.061,0.231-8.005-0.689
		c-2.393-0.735-4.387-1.899-5.981-3.495c-1.596-1.596-2.852-3.437-3.772-5.521c-0.92-2.085-1.534-4.326-1.84-6.719
		c-0.308-2.395-0.353-4.772-0.138-7.133c0.214-2.359,0.674-4.613,1.38-6.761C63.61,46.719,64.484,44.879,65.528,43.345z
		 M74.084,53.374c0.796-0.123,1.687-0.369,2.668-0.737c0.859-0.306,1.794-0.766,2.806-1.38c1.012-0.611,2.101-1.471,3.267-2.575
		c1.104-1.042,1.855-2.055,2.254-3.037c0.398-0.98,0.628-1.808,0.69-2.484c0.06-0.796-0.062-1.532-0.368-2.208
		c-0.86-0.244-1.78-0.244-2.761,0c-0.859,0.246-1.81,0.736-2.852,1.473c-1.044,0.736-2.117,1.902-3.221,3.496
		c-0.86,1.228-1.472,2.316-1.84,3.267c-0.369,0.952-0.614,1.734-0.736,2.346C73.869,52.271,73.901,52.883,74.084,53.374z"/>
	<path fill="#FFFFFF" d="M139.413,67.914c1.348-0.552,2.391-0.795,3.127-0.737c0.736,0.063,1.196,0.293,1.381,0.69
		c0.184,0.4,0.105,0.907-0.23,1.519c-0.338,0.615-0.874,1.197-1.61,1.75c-0.613,0.428-1.365,1.01-2.253,1.747
		c-0.892,0.737-1.811,1.519-2.761,2.347c-0.952,0.828-1.872,1.642-2.761,2.438c-0.89,0.798-1.642,1.44-2.255,1.932
		c0.429,2.883,0.675,5.812,0.736,8.787c0.061,2.976-0.123,5.827-0.552,8.557c-0.43,2.73-1.136,5.245-2.116,7.545
		c-0.981,2.302-2.301,4.188-3.957,5.658c-2.333,2.087-4.693,3.282-7.086,3.589c-2.392,0.307-4.508-0.091-6.348-1.195
		c-1.841-1.104-3.283-2.808-4.325-5.106c-1.043-2.3-1.35-5.014-0.92-8.144c0.49-3.188,1.487-6.012,2.99-8.464
		c1.502-2.454,3.083-4.51,4.738-6.166c1.963-1.963,4.079-3.649,6.349-5.061c-0.062-0.491-0.184-1.165-0.368-2.023
		c-0.124-0.736-0.338-1.67-0.645-2.807c-0.308-1.135-0.706-2.59-1.196-4.37c-0.308-1.043-0.69-2.037-1.149-2.989
		c-0.46-0.95-0.906-1.765-1.335-2.44c-0.552-0.796-1.074-1.503-1.563-2.116c-0.982,1.105-1.995,2.088-3.037,2.944
		c-0.86,0.737-1.81,1.396-2.852,1.979c-1.044,0.585-2.024,0.875-2.945,0.875c-0.982,0-2.086-0.522-3.312-1.565
		c-1.228-1.041-2.316-2.421-3.267-4.142c-0.952-1.718-1.688-3.683-2.208-5.891c-0.522-2.208-0.598-4.475-0.23-6.806
		c0.429-2.331,0.981-4.201,1.656-5.613c0.674-1.411,1.411-2.531,2.208-3.359c0.796-0.828,1.656-1.426,2.576-1.794
		s1.84-0.644,2.76-0.828c1.349-0.245,2.959-0.061,4.831,0.552c1.87,0.614,3.648,1.396,5.336,2.347
		c1.686,0.951,3.128,1.932,4.324,2.944c1.196,1.012,1.763,1.794,1.703,2.346c-0.062,0.552-0.722,0.752-1.979,0.599
		c-1.258-0.153-2.7-0.353-4.324-0.599c-1.626-0.244-3.221-0.368-4.785-0.368c-1.564,0-2.654,0.492-3.266,1.472
		c-0.614,0.982-1.104,2.148-1.473,3.497c-0.368,1.349-0.598,2.698-0.69,4.046c-0.092,1.35-0.016,2.592,0.23,3.727
		c0.245,1.137,0.704,1.979,1.38,2.531c0.368,0.308,0.874,0.2,1.518-0.321c0.644-0.521,1.395-1.166,2.254-1.934
		c0.859-0.767,1.809-1.503,2.853-2.208c1.042-0.704,2.162-1.135,3.358-1.289c1.196-0.152,2.438,0.154,3.726,0.92
		c1.289,0.768,2.607,2.256,3.958,4.465c0.797,1.289,1.641,2.777,2.53,4.464c0.889,1.689,1.671,4.094,2.347,7.224
		c1.595-0.98,3.097-1.918,4.509-2.807C136.405,69.371,137.878,68.589,139.413,67.914z M120.457,101.682
		c0.368-1.044,0.598-2.38,0.69-4.003c0.092-1.626,0.138-3.235,0.138-4.831c-0.062-1.841-0.154-3.773-0.276-5.797
		c-1.288,1.104-2.424,2.27-3.404,3.498c-0.859,1.041-1.61,2.267-2.254,3.68c-0.644,1.41-0.905,2.912-0.782,4.508
		c0.122,1.532,0.46,2.652,1.012,3.359c0.552,0.704,1.15,1.104,1.794,1.195c0.644,0.094,1.256-0.03,1.84-0.367
		C119.797,102.584,120.211,102.17,120.457,101.682z"/>
	<path fill="#FFFFFF" d="M134.167,54.385c0.184-1.472,0.429-2.882,0.736-4.231c0.306-1.349,0.689-2.606,1.15-3.772
		c0.458-1.165,0.965-2.162,1.517-2.99c0.553-0.828,1.165-1.426,1.84-1.794c0.675-0.306,1.549-0.628,2.623-0.966
		c1.073-0.336,2.084-0.46,3.036-0.368c0.95,0.092,1.67,0.521,2.163,1.288c0.489,0.768,0.459,2.102-0.093,4.002
		c-0.246,1.044-0.46,2.346-0.644,3.91c-0.185,1.565-0.292,3.251-0.322,5.059c-0.032,1.809,0.014,3.62,0.138,5.429
		c0.122,1.812,0.354,3.483,0.69,5.017c0.337,1.534,0.796,2.84,1.38,3.911c0.582,1.074,1.303,1.764,2.163,2.07
		c1.777,0.613,3.311,0.553,4.6-0.185c1.289-0.734,2.484-1.869,3.589-3.403c0.428-0.674,0.95-1.242,1.563-1.703
		c0.613-0.459,1.118-0.657,1.519-0.597c0.398,0.061,0.598,0.458,0.598,1.195s-0.398,1.965-1.195,3.68
		c-0.859,1.78-1.948,3.346-3.267,4.692c-1.319,1.351-2.792,2.41-4.416,3.175c-1.627,0.768-3.359,1.212-5.199,1.336
		c-1.84,0.121-3.681-0.154-5.521-0.828c-1.84-0.613-3.344-1.488-4.509-2.622c-1.165-1.135-2.07-2.653-2.714-4.555
		c-0.644-1.902-1.073-4.219-1.288-6.948C134.09,61.457,134.043,58.188,134.167,54.385z M138.307,21.539
		c0.675-1.348,1.703-2.176,3.083-2.484c1.38-0.306,2.728-0.276,4.048,0.092c1.318,0.368,2.453,0.998,3.405,1.886
		c0.949,0.89,1.333,1.918,1.149,3.083c-0.246,1.412-1.028,2.622-2.346,3.634c-1.321,1.012-3.298,1.396-5.936,1.15
		c-0.735-0.061-1.396-0.337-1.978-0.828c-0.584-0.491-1.059-1.088-1.427-1.794c-0.367-0.705-0.567-1.486-0.598-2.346
		C137.677,23.073,137.877,22.275,138.307,21.539z"/>
	<path fill="#FFFFFF" d="M179.71,33.685c0.245,0.491,0.214,0.874-0.091,1.15c-0.308,0.276-0.752,0.552-1.335,0.828
		c-0.584,0.276-1.242,0.614-1.978,1.012c-0.737,0.399-1.442,0.966-2.117,1.702c-0.675,0.736-1.242,1.688-1.702,2.853
		c-0.46,1.166-0.689,2.638-0.689,4.417c-0.063,1.78,0.352,3.497,1.242,5.153c0.889,1.655,1.978,3.265,3.267,4.829
		c1.287,1.563,2.698,3.098,4.231,4.601c1.532,1.505,2.913,3.039,4.141,4.603c1.226,1.564,2.192,3.16,2.898,4.786
		c0.704,1.626,0.935,3.298,0.69,5.013c-0.308,1.72-1.274,3.175-2.898,4.372c-1.626,1.196-3.604,2.115-5.935,2.761
		c-2.332,0.644-4.847,0.994-7.545,1.058c-2.699,0.061-5.23-0.171-7.591-0.69c-2.361-0.521-4.402-1.333-6.119-2.438
		c-1.718-1.104-2.79-2.515-3.22-4.234c-0.675-2.515-0.875-4.629-0.599-6.349c0.276-1.715,0.782-3.142,1.519-4.278
		c0.736-1.133,1.564-2.024,2.484-2.67c0.92-0.643,1.717-1.149,2.392-1.519c1.41-0.797,2.347-0.797,2.807,0
		c0.46,0.798,0.169,2.058-0.874,3.773c-0.492,0.861-0.613,1.828-0.368,2.899c0.245,1.076,0.813,2.086,1.702,3.036
		c0.889,0.952,2.024,1.764,3.405,2.44c1.38,0.676,2.958,1.043,4.738,1.104c1.104,0.061,2.222-0.047,3.358-0.322
		c1.134-0.276,2.069-0.704,2.806-1.289c0.736-0.583,1.18-1.287,1.334-2.115c0.152-0.828-0.169-1.764-0.966-2.807
		c-0.798-1.041-2.178-2.36-4.141-3.957c-1.964-1.596-3.972-3.36-6.026-5.293c-2.056-1.933-3.864-3.987-5.429-6.164
		c-1.564-2.176-2.347-4.37-2.347-6.578c0-4.355,0.782-7.545,2.347-9.569c1.564-2.024,4.095-3.342,7.591-3.956
		c1.717-0.307,3.129-0.445,4.232-0.414c1.104,0.031,1.979,0.169,2.623,0.414c0.644,0.246,1.118,0.537,1.426,0.874
		C179.281,33.056,179.526,33.378,179.71,33.685z"/>
	<path fill="#FFFFFF" d="M217.71,22.827c-0.245,2.76-0.675,5.398-1.287,7.913c-0.614,2.516-1.335,4.909-2.163,7.177
		c-0.828,2.27-1.733,4.416-2.714,6.44c-0.982,2.024-1.964,3.864-2.943,5.521c-2.333,3.925-4.909,7.482-7.729,10.673
		c0,0.429,0.092,0.981,0.276,1.656c0.121,0.613,0.368,1.366,0.735,2.255c0.368,0.892,0.951,1.949,1.749,3.175
		c1.594,2.576,3.357,4.188,5.29,4.831s3.803,0.706,5.612,0.185c1.809-0.521,3.388-1.44,4.739-2.76
		c1.349-1.32,2.268-2.653,2.761-4.003c0.489-1.411,0.979-2.33,1.471-2.762c0.49-0.429,0.935-0.536,1.335-0.322
		c0.397,0.215,0.704,0.659,0.919,1.334c0.216,0.676,0.292,1.413,0.23,2.208c-1.043,2.761-2.361,5.187-3.955,7.271
		c-0.677,0.919-1.473,1.808-2.394,2.666c-0.919,0.861-1.933,1.626-3.036,2.302c-1.104,0.674-2.316,1.21-3.635,1.61
		c-1.319,0.397-2.745,0.565-4.278,0.505c-3.926-0.061-7.192-1.011-9.799-2.852c-2.608-1.841-4.709-4.201-6.303-7.086
		c-1.596-2.882-2.73-6.147-3.404-9.8c-0.676-3.651-1.058-7.346-1.15-11.087c-0.092-3.741,0.061-7.345,0.461-10.811
		c0.397-3.465,0.874-6.487,1.426-9.063c0.612-2.699,1.426-5.367,2.438-8.005c1.012-2.637,2.269-4.969,3.772-6.993
		c1.502-2.024,3.28-3.618,5.336-4.784c2.055-1.165,4.462-1.594,7.223-1.288c2.024,0.308,3.773,1.012,5.245,2.116
		c1.227,0.92,2.269,2.316,3.129,4.186C217.924,17.108,218.14,19.639,217.71,22.827z M199.952,52.454
		c1.595-2.636,3.067-5.366,4.417-8.188c1.165-2.392,2.301-5.014,3.405-7.867c1.104-2.852,1.9-5.659,2.392-8.419
		c0.244-1.349,0.475-2.729,0.69-4.14c0.214-1.411,0.306-2.715,0.275-3.911c-0.031-1.196-0.262-2.208-0.689-3.037
		c-0.431-0.828-1.136-1.302-2.116-1.426c-1.289-0.122-2.438,0.322-3.45,1.334c-1.014,1.012-1.873,2.424-2.577,4.232
		c-0.705,1.81-1.273,3.957-1.702,6.441c-0.431,2.484-0.735,5.123-0.92,7.913c-0.184,2.792-0.246,5.659-0.184,8.603
		C199.554,46.934,199.707,49.756,199.952,52.454z"/>
	<path fill="#FFFFFF" d="M245.958,39.573c-0.184,0.797-0.706,1.458-1.564,1.978c-0.859,0.521-1.84,1.058-2.943,1.61
		c-1.104,0.552-2.24,1.166-3.405,1.84c-1.165,0.676-2.147,1.564-2.944,2.668c-1.228,1.78-2.085,3.896-2.575,6.347
		c-0.492,2.454-0.722,4.801-0.69,7.04c0.029,2.241,0.306,4.174,0.828,5.8c0.52,1.626,1.181,2.438,1.979,2.438
		c0.979,0,2.008-0.461,3.082-1.38c1.072-0.919,2.038-1.979,2.898-3.175c0.858-1.195,1.563-2.423,2.115-3.683
		c0.553-1.257,0.828-2.223,0.828-2.899c0-0.674-0.031-1.61-0.091-2.806c-0.063-1.196-0.047-2.375,0.046-3.541
		c0.092-1.163,0.275-2.176,0.552-3.036c0.276-0.858,0.75-1.318,1.426-1.38c0.675-0.06,1.486-0.214,2.438-0.459
		c0.95-0.245,1.854-0.276,2.714-0.093c0.858,0.185,1.549,0.783,2.07,1.794c0.521,1.012,0.721,2.746,0.599,5.197
		c-0.185,4.968,0.06,8.729,0.736,11.273c0.673,2.548,1.991,4.036,3.955,4.464c1.349,0.245,2.561-0.077,3.636-0.966
		c1.072-0.89,2.037-1.886,2.897-2.99c0.858-1.104,1.595-2.101,2.208-2.991c0.613-0.89,1.104-1.243,1.473-1.06
		c0.428,0.184,0.582,0.953,0.46,2.301c-0.123,1.353-0.584,2.871-1.381,4.555c-0.798,1.689-1.978,3.376-3.541,5.063
		c-1.564,1.687-3.575,2.99-6.027,3.909c-1.288,0.491-2.484,0.737-3.588,0.737s-2.102-0.152-2.99-0.461
		c-0.891-0.307-1.673-0.734-2.347-1.287c-0.676-0.552-1.288-1.165-1.84-1.841c-1.229-1.532-2.208-3.435-2.944-5.706
		c-0.614,1.475-1.473,2.761-2.576,3.865c-0.921,0.982-2.116,1.888-3.589,2.716s-3.282,1.303-5.429,1.425
		c-2.147,0.063-4.172-0.613-6.072-2.023c-1.902-1.411-3.421-3.313-4.555-5.706c-1.136-2.391-1.748-5.165-1.84-8.328
		c-0.093-3.16,0.598-6.488,2.07-9.982c0.979-2.269,2.268-4.201,3.864-5.797c1.594-1.594,3.296-2.898,5.106-3.911
		c1.809-1.012,3.618-1.748,5.429-2.208c1.809-0.46,3.434-0.72,4.876-0.782c1.441-0.06,2.606,0.046,3.496,0.322
		C245.696,38.699,246.08,39.083,245.958,39.573z"/>
	<path fill="#FFFFFF" d="M262.519,42.517c-0.675-0.368-1.287-0.583-1.84-0.644c-0.552-0.061-1.059-0.093-1.518-0.093
		c-0.46,0-0.858-0.045-1.197-0.138c-0.335-0.092-0.628-0.382-0.873-0.874c-0.184-0.429,0.107-1.012,0.873-1.748
		c0.769-0.736,1.795-1.349,3.084-1.84c1.287-0.49,2.729-0.69,4.324-0.598c1.594,0.092,3.127,0.722,4.6,1.886
		c1.288,1.104,2.347,2.163,3.175,3.174c0.828,1.012,1.486,1.918,1.978,2.714c0.553,0.92,0.951,1.81,1.197,2.668
		c1.716-1.656,3.496-3.037,5.336-4.141c1.594-0.98,3.373-1.778,5.337-2.392c1.963-0.612,3.924-0.644,5.888-0.092
		c0.49,0.184,0.721,0.568,0.69,1.15c-0.031,0.583-0.276,1.211-0.735,1.886c-0.46,0.676-1.091,1.32-1.887,1.933
		c-0.798,0.614-1.748,1.044-2.852,1.288c-2.149,0.491-3.851,1.412-5.107,2.761c-1.258,1.35-2.225,2.929-2.898,4.736
		c-0.676,1.81-1.104,3.742-1.287,5.797c-0.186,2.058-0.276,4.036-0.276,5.938c0.06,3.988-0.492,6.945-1.656,8.878
		c-1.166,1.932-2.73,2.961-4.692,3.083c-2.271,0.124-3.957-0.919-5.062-3.128c-1.103-2.208-1.655-5.949-1.655-11.227
		c0.06-3.314,0.092-6.198,0.092-8.652c0-2.452-0.092-4.521-0.276-6.208c-0.184-1.686-0.491-3.02-0.919-4.002
		C263.93,43.653,263.315,42.947,262.519,42.517z"/>
</g>
</svg>
