<?xml version="1.0" encoding="utf-8"?>
<!-- Generator: Adobe Illustrator 16.0.0, SVG Export Plug-In . SVG Version: 6.00 Build 0)  -->
<!DOCTYPE svg PUBLIC "-//W3C//DTD SVG 1.1//EN" "http://www.w3.org/Graphics/SVG/1.1/DTD/svg11.dtd">
<svg version="1.1" id="Layer_1" xmlns="http://www.w3.org/2000/svg" xmlns:xlink="http://www.w3.org/1999/xlink" x="0px" y="0px"
	 width="110px" height="150px" viewBox="0 0 110 150" enable-background="new 0 0 110 150" xml:space="preserve">
<g opacity="0.2">
	<path d="M63.887,47.657c-2.814-1.292-4.848-3.35-6.359-5.939c-1.396-2.392-2.338-4.977-2.71-7.717
		c-0.346-2.521-0.523-5.062-0.75-7.597c-0.344-3.917-1.524-7.512-4.182-10.486c-2.065-2.311-4.68-3.768-7.714-4.419
		c-1.323-0.286-2.667-0.48-4.003-0.715h-4.085c-1.336,0.235-2.678,0.431-4.006,0.715c-3.035,0.651-5.644,2.108-7.711,4.419
		c-2.657,2.974-3.837,6.569-4.187,10.486c-0.223,2.536-0.398,5.076-0.745,7.597c-0.377,2.74-1.316,5.325-2.714,7.717
		c-1.514,2.588-3.542,4.646-6.358,5.938c3.212,1.608,6.337,0.354,9.591-0.409c-0.858,2.873-3.221,4.179-5.405,5.776
		c2.39,2.032,5.27,2.594,8.152,3.176c1.043,0.212,2.657-0.165,3.474-0.489c1.27-0.498,2.329-1.197,3.393-1.855
		c0.83-0.513,1.618-1.09,2.391-1.649c-0.948-2.214-1.351-4.817-1.483-6.98c-0.908-1.541-1.614-3.261-2.119-5.15
		c-0.646-2.409-0.846-4.865-0.838-7.345c0-0.266,0.03-5.197,0.047-5.469c0,0,5.319,3.084,7.316,3.271
		c3.529,0.333,13.803-3.271,13.803-3.271c0.016,0.271,0.049,5.203,0.049,5.469c0.005,2.481-0.195,4.936-0.839,7.345
		c-0.42,1.569-0.985,3.013-1.68,4.347c0.236,0.572,0.393,1.193,0.434,1.843c0.043,0.707-0.019,1.398-0.284,2.061
		c-0.037,0.09-0.086,0.17-0.124,0.257c-0.325,1.414-0.698,2.762-1.241,4.127c0.544,0.394,1.102,0.785,1.682,1.144
		c1.064,0.658,2.125,1.357,3.393,1.855c0.815,0.324,2.431,0.702,3.474,0.49c2.882-0.583,5.763-1.145,8.153-3.176
		c-2.186-1.598-4.548-2.904-5.404-5.777C57.549,48.01,60.68,49.266,63.887,47.657z"/>
	<g>
		<path fill="#808080" d="M101.902,68.265c-0.256-6.07,0.01-10.234-5.623-12.455c-1.145-0.449-2.418-0.74-3.646-0.77
			c-3.767-0.1-7.538-0.036-11.446,0.083c0.23,0.179,0.474,0.35,0.696,0.543c0.862,0.75,0.847,1.565-0.008,2.326
			c-0.627,0.56-1.242,1.135-1.842,1.723c-0.679,0.665-0.861,1.441-0.489,2.348c1.292,3.098,2.546,6.211,3.859,9.3
			c0.521,1.221,0.473,2.289-0.321,3.405c-1.438,2.013-2.791,4.093-4.179,6.142c-0.111,0.158-0.23,0.316-0.354,0.472
			c-0.146,0.175-0.293,0.298-0.442,0.361c-0.148-0.063-0.299-0.188-0.445-0.361c-0.123-0.153-0.242-0.31-0.352-0.472
			c-1.389-2.051-2.742-4.131-4.183-6.142c-0.793-1.114-0.839-2.184-0.319-3.405c1.313-3.087,2.57-6.202,3.856-9.3
			c0.377-0.907,0.192-1.683-0.489-2.348c-0.598-0.588-1.215-1.163-1.84-1.723c-0.855-0.761-0.867-1.576-0.009-2.326
			c0.164-0.145,0.34-0.269,0.515-0.401c-0.193-0.06-0.406-0.096-0.593-0.162c-3.629-0.102-7.157-0.157-10.673-0.063
			c-1.221,0.028-2.501,0.319-3.643,0.77c-1.658,0.653-2.801,1.479-3.608,2.468c-2.873-1.222-5.892-2.098-9.114-2.954
			c2.432,2.938,4.438,5.911,3,9.882c-1.641-1.051-3.257-2.084-4.716-3.021c-2.704,3.457-5.175,6.608-7.643,9.769
			c-0.577,0.741-1.152,1.135-1.727,1.188c-0.572-0.053-1.149-0.447-1.726-1.188c-2.466-3.16-4.938-6.312-7.646-9.769
			c-1.458,0.937-3.072,1.97-4.711,3.021c-1.442-3.971,0.565-6.944,2.998-9.882c-3.228,0.855-6.249,1.733-9.121,2.958
			c-4.459,1.895-6.056,5.705-6.416,10.273c-0.325,4.17,0.156,36.183,4.64,38.027h21.955h0.052h21.858h0.1h40.027
			c0.754-0.389,1.557-0.708,2.246-1.189c0.906-0.627,1.327-1.608,1.508-2.685c0.045-0.245,0.065-0.501,0.065-0.761
			C101.951,97.225,102.096,72.982,101.902,68.265z"/>
		<path d="M93.703,26.187c-0.064-0.261-0.079-0.507-0.107-0.752c-2.205-8.258-8.326-14.22-15.523-14.22
			c-9.053,0-16.416,9.409-16.416,20.977c0,0.34,0.039,0.664,0.053,1c0.43,0.731,0.84,1.472,1.255,2.223
			c0.374,0.682,0.763,1.353,1.147,2.028c0.367-0.017,0.74-0.044,1.106-0.049c0.249-0.008,0.466,0.05,0.696,0.081
			c-0.395-1.666-0.609-3.44-0.609-5.281c0-0.642,0.028-1.274,0.078-1.897c1.393,0.572,3.623,0.984,7.217,0.984
			c7.323,0,13.904-1.702,17.896-3.016c0.218,1.265,0.346,2.575,0.346,3.929c0,1.907-0.238,3.739-0.66,5.458
			c0.396,0.011,0.786,0.025,1.182,0.039c0.099-0.371,0.189-0.746,0.318-1.102c0.643-1.729,2.182-3.735,2.572-5.583
			C94.124,29.387,94.084,27.733,93.703,26.187z"/>
	</g>
</g>
<path fill="#C1C1C1" d="M21.736,120.796l-0.354-1.347h-2.335l-0.364,1.347H16.55l2.345-7.217h2.591l2.375,7.217H21.736z
	 M20.979,117.856l-0.31-1.181c-0.072-0.262-0.16-0.601-0.263-1.018c-0.104-0.416-0.171-0.714-0.204-0.895
	c-0.03,0.167-0.088,0.442-0.175,0.826c-0.087,0.383-0.279,1.139-0.578,2.267H20.979z"/>
<path fill="#C1C1C1" d="M29.853,115.895c0,0.803-0.237,1.423-0.71,1.86s-1.146,0.656-2.018,0.656h-0.545v2.385h-1.942v-7.188h2.487
	c0.908,0,1.59,0.198,2.045,0.595S29.853,115.164,29.853,115.895z M26.579,116.828h0.354c0.292,0,0.523-0.081,0.695-0.245
	c0.172-0.164,0.258-0.391,0.258-0.679c0-0.485-0.269-0.728-0.806-0.728h-0.501V116.828z"/>
<path fill="#C1C1C1" d="M37.724,117.192c0,1.209-0.296,2.129-0.89,2.758s-1.462,0.944-2.605,0.944c-1.127,0-1.992-0.316-2.593-0.949
	c-0.602-0.633-0.902-1.554-0.902-2.763c0-1.196,0.299-2.11,0.897-2.741c0.598-0.631,1.467-0.946,2.608-0.946
	c1.144,0,2.011,0.313,2.601,0.939S37.724,115.979,37.724,117.192z M32.778,117.192c0,1.39,0.483,2.084,1.45,2.084
	c0.492,0,0.856-0.168,1.094-0.506s0.356-0.863,0.356-1.578c0-0.718-0.121-1.248-0.361-1.591c-0.241-0.342-0.601-0.514-1.079-0.514
	C33.265,115.088,32.778,115.79,32.778,117.192z M33.088,113.033v-0.143c0.504-0.541,0.825-0.89,0.961-1.047
	c0.136-0.157,0.249-0.299,0.337-0.423h2.104v0.103c-0.262,0.21-0.623,0.478-1.082,0.802s-0.806,0.561-1.042,0.708H33.088z"/>
<path fill="#C1C1C1" d="M43.722,118.613c0,0.445-0.113,0.842-0.339,1.188c-0.226,0.346-0.552,0.614-0.978,0.806
	c-0.426,0.192-0.926,0.288-1.5,0.288c-0.479,0-0.88-0.034-1.205-0.102c-0.324-0.066-0.662-0.184-1.013-0.351v-1.731
	c0.371,0.19,0.755,0.339,1.155,0.445s0.767,0.16,1.102,0.16c0.288,0,0.5-0.05,0.634-0.15c0.135-0.1,0.202-0.229,0.202-0.386
	c0-0.099-0.027-0.185-0.081-0.258c-0.054-0.074-0.141-0.148-0.261-0.224c-0.12-0.076-0.438-0.229-0.956-0.463
	c-0.469-0.213-0.82-0.419-1.055-0.619s-0.408-0.43-0.521-0.688c-0.113-0.259-0.169-0.565-0.169-0.919
	c0-0.662,0.241-1.179,0.723-1.549s1.144-0.556,1.986-0.556c0.744,0,1.502,0.172,2.276,0.517l-0.595,1.499
	c-0.672-0.308-1.252-0.462-1.74-0.462c-0.252,0-0.436,0.044-0.551,0.133s-0.172,0.198-0.172,0.329c0,0.142,0.073,0.268,0.219,0.379
	c0.146,0.111,0.542,0.314,1.187,0.609c0.62,0.278,1.05,0.578,1.291,0.897C43.602,117.726,43.722,118.128,43.722,118.613z"/>
<path fill="#C1C1C1" d="M51.715,120.796h-4.267v-7.188h4.267v1.559H49.39v1.131h2.153v1.559H49.39v1.356h2.325V120.796z"/>
<path fill="#C1C1C1" d="M57.674,118.613c0,0.445-0.113,0.842-0.339,1.188c-0.227,0.346-0.553,0.614-0.979,0.806
	c-0.427,0.192-0.926,0.288-1.5,0.288c-0.479,0-0.88-0.034-1.205-0.102c-0.324-0.066-0.662-0.184-1.013-0.351v-1.731
	c0.371,0.19,0.755,0.339,1.155,0.445s0.767,0.16,1.102,0.16c0.288,0,0.5-0.05,0.634-0.15c0.135-0.1,0.201-0.229,0.201-0.386
	c0-0.099-0.026-0.185-0.081-0.258c-0.054-0.074-0.141-0.148-0.26-0.224c-0.12-0.076-0.438-0.229-0.956-0.463
	c-0.469-0.213-0.82-0.419-1.055-0.619s-0.408-0.43-0.521-0.688c-0.113-0.259-0.169-0.565-0.169-0.919
	c0-0.662,0.241-1.179,0.723-1.549s1.144-0.556,1.986-0.556c0.744,0,1.502,0.172,2.276,0.517l-0.595,1.499
	c-0.672-0.308-1.252-0.462-1.74-0.462c-0.252,0-0.436,0.044-0.551,0.133s-0.172,0.198-0.172,0.329c0,0.142,0.073,0.268,0.219,0.379
	c0.146,0.111,0.542,0.314,1.187,0.609c0.62,0.278,1.05,0.578,1.291,0.897S57.674,118.128,57.674,118.613z"/>
<path fill="#C1C1C1" d="M61.985,115.098c-0.463,0-0.823,0.189-1.082,0.568c-0.259,0.378-0.389,0.9-0.389,1.565
	c0,1.384,0.526,2.075,1.578,2.075c0.318,0,0.626-0.045,0.925-0.133c0.298-0.089,0.598-0.195,0.899-0.32v1.643
	c-0.6,0.266-1.278,0.398-2.035,0.398c-1.085,0-1.917-0.315-2.495-0.944s-0.867-1.539-0.867-2.729c0-0.744,0.14-1.397,0.42-1.962
	c0.28-0.563,0.684-0.997,1.209-1.3c0.526-0.303,1.145-0.455,1.856-0.455c0.776,0,1.519,0.169,2.227,0.507l-0.595,1.528
	c-0.266-0.124-0.531-0.229-0.796-0.314C62.575,115.141,62.29,115.098,61.985,115.098z"/>
<path fill="#C1C1C1" d="M72.044,117.192c0,1.209-0.297,2.129-0.89,2.758s-1.462,0.944-2.605,0.944c-1.128,0-1.992-0.316-2.594-0.949
	s-0.901-1.554-0.901-2.763c0-1.196,0.299-2.11,0.896-2.741c0.599-0.631,1.468-0.946,2.608-0.946c1.144,0,2.011,0.313,2.601,0.939
	S72.044,115.979,72.044,117.192z M67.099,117.192c0,1.39,0.483,2.084,1.45,2.084c0.491,0,0.856-0.168,1.094-0.506
	s0.356-0.863,0.356-1.578c0-0.718-0.12-1.248-0.361-1.591c-0.241-0.342-0.601-0.514-1.079-0.514
	C67.585,115.088,67.099,115.79,67.099,117.192z"/>
<path fill="#C1C1C1" d="M73.342,120.796v-7.188h1.942v5.619h2.768v1.568H73.342z"/>
<path fill="#C1C1C1" d="M85.361,120.796H83.41v-2.93h-2.257v2.93h-1.952v-7.188h1.952v2.665h2.257v-2.665h1.951V120.796z"/>
<path fill="#C1C1C1" d="M91.325,120.796l-0.354-1.347h-2.336l-0.363,1.347h-2.134l2.345-7.217h2.591l2.375,7.217H91.325z
	 M90.568,117.856l-0.31-1.181c-0.072-0.262-0.16-0.601-0.264-1.018c-0.103-0.416-0.171-0.714-0.204-0.895
	c-0.029,0.167-0.087,0.442-0.174,0.826c-0.087,0.383-0.279,1.139-0.578,2.267H90.568z"/>
<path fill="#C1C1C1" d="M11.572,126.098c-0.462,0-0.823,0.189-1.082,0.568c-0.259,0.378-0.388,0.9-0.388,1.565
	c0,1.384,0.526,2.075,1.578,2.075c0.318,0,0.626-0.045,0.924-0.133c0.298-0.089,0.598-0.195,0.899-0.32v1.643
	c-0.6,0.266-1.278,0.398-2.035,0.398c-1.085,0-1.917-0.315-2.495-0.944s-0.868-1.539-0.868-2.729c0-0.744,0.14-1.397,0.42-1.962
	c0.28-0.563,0.683-0.997,1.209-1.3c0.526-0.303,1.145-0.455,1.856-0.455c0.776,0,1.519,0.169,2.227,0.507l-0.595,1.528
	c-0.265-0.124-0.531-0.229-0.796-0.314C12.163,126.141,11.877,126.098,11.572,126.098z"/>
<path fill="#C1C1C1" d="M14.906,131.796v-7.188h1.942v5.619h2.768v1.568H14.906z"/>
<path fill="#C1C1C1" d="M20.766,131.796v-7.188h1.952v7.188H20.766z"/>
<path fill="#C1C1C1" d="M30.996,128.192c0,1.629-0.518,2.727-1.553,3.294l1.755,2.021h-2.418l-1.269-1.598l-0.005-0.005v-0.005
	l-0.005-0.005c-1.127,0-1.992-0.316-2.593-0.949c-0.602-0.633-0.902-1.554-0.902-2.763c0-1.196,0.299-2.11,0.897-2.741
	c0.598-0.631,1.467-0.946,2.608-0.946c1.144,0,2.011,0.313,2.601,0.939S30.996,126.979,30.996,128.192z M26.051,128.192
	c0,1.39,0.483,2.084,1.45,2.084c0.492,0,0.856-0.168,1.094-0.506s0.356-0.863,0.356-1.578c0-0.718-0.121-1.248-0.361-1.591
	c-0.241-0.342-0.601-0.514-1.079-0.514C26.537,126.088,26.051,126.79,26.051,128.192z"/>
<path fill="#C1C1C1" d="M38.405,124.608v4.326c0,0.94-0.267,1.669-0.799,2.186c-0.533,0.516-1.3,0.774-2.303,0.774
	c-0.98,0-1.733-0.251-2.259-0.753c-0.526-0.501-0.789-1.222-0.789-2.163v-4.37h1.952v4.218c0,0.509,0.095,0.877,0.285,1.106
	c0.19,0.229,0.47,0.344,0.841,0.344c0.396,0,0.684-0.113,0.863-0.341c0.179-0.229,0.268-0.601,0.268-1.119v-4.208H38.405z"/>
<path fill="#C1C1C1" d="M44.182,131.796h-4.267v-7.188h4.267v1.559h-2.325v1.131h2.153v1.559h-2.153v1.356h2.325V131.796z"/>
<path fill="#C1C1C1" d="M54.899,131.796h-2.546l-2.625-5.063h-0.044c0.063,0.796,0.094,1.404,0.094,1.823v3.24h-1.721v-7.188h2.537
	l2.615,4.995h0.03c-0.046-0.725-0.069-1.307-0.069-1.745v-3.25h1.73V131.796z"/>
<path fill="#C1C1C1" d="M63.178,128.192c0,1.209-0.297,2.129-0.89,2.758s-1.462,0.944-2.605,0.944c-1.128,0-1.992-0.316-2.594-0.949
	s-0.902-1.554-0.902-2.763c0-1.196,0.3-2.11,0.897-2.741c0.599-0.631,1.468-0.946,2.608-0.946c1.144,0,2.011,0.313,2.601,0.939
	S63.178,126.979,63.178,128.192z M58.232,128.192c0,1.39,0.483,2.084,1.45,2.084c0.491,0,0.856-0.168,1.094-0.506
	s0.356-0.863,0.356-1.578c0-0.718-0.12-1.248-0.361-1.591c-0.241-0.342-0.601-0.514-1.079-0.514
	C58.719,126.088,58.232,126.79,58.232,128.192z"/>
<path fill="#A1A1A1" d="M67.091,124.608h2.508c0.977,0,1.701,0.146,2.175,0.436s0.711,0.741,0.711,1.354
	c0,0.403-0.104,0.748-0.31,1.033c-0.207,0.285-0.479,0.469-0.816,0.55v0.05c0.445,0.118,0.769,0.314,0.969,0.59
	c0.199,0.275,0.3,0.633,0.3,1.071c0,0.652-0.245,1.166-0.735,1.542c-0.489,0.375-1.157,0.563-2.003,0.563h-2.798V124.608z
	 M69.033,127.366h0.585c0.278,0,0.494-0.057,0.646-0.172c0.152-0.114,0.229-0.285,0.229-0.512c0-0.402-0.305-0.604-0.914-0.604
	h-0.546V127.366z M69.033,128.787v1.51h0.684c0.606,0,0.909-0.256,0.909-0.768c0-0.239-0.081-0.423-0.243-0.551
	c-0.162-0.127-0.397-0.191-0.706-0.191H69.033z"/>
<path fill="#A1A1A1" d="M80.601,128.192c0,1.209-0.297,2.129-0.89,2.758s-1.462,0.944-2.605,0.944c-1.128,0-1.992-0.316-2.594-0.949
	s-0.901-1.554-0.901-2.763c0-1.196,0.299-2.11,0.896-2.741c0.599-0.631,1.468-0.946,2.608-0.946c1.144,0,2.011,0.313,2.601,0.939
	S80.601,126.979,80.601,128.192z M75.655,128.192c0,1.39,0.483,2.084,1.45,2.084c0.491,0,0.856-0.168,1.094-0.506
	s0.356-0.863,0.356-1.578c0-0.718-0.12-1.248-0.361-1.591c-0.241-0.342-0.601-0.514-1.079-0.514
	C76.142,126.088,75.655,126.79,75.655,128.192z"/>
<path fill="#A1A1A1" d="M85.069,131.796h-1.941v-5.6h-1.755v-1.588h5.447v1.588h-1.751V131.796z"/>
<path fill="#A1A1A1" d="M92.257,131.796l-0.354-1.347h-2.336l-0.363,1.347H87.07l2.345-7.217h2.591l2.375,7.217H92.257z
	 M91.623,124.043c-0.147,0-0.296-0.024-0.445-0.073c-0.149-0.05-0.296-0.104-0.439-0.163c-0.145-0.059-0.285-0.112-0.421-0.162
	c-0.136-0.049-0.265-0.073-0.386-0.073c-0.177,0-0.295,0.16-0.354,0.481h-0.885c0.036-0.573,0.154-0.997,0.354-1.271
	c0.199-0.273,0.494-0.411,0.885-0.411c0.124,0,0.257,0.025,0.398,0.074c0.141,0.049,0.283,0.104,0.428,0.162
	c0.144,0.059,0.286,0.113,0.428,0.162c0.141,0.05,0.273,0.074,0.397,0.074c0.096,0,0.171-0.041,0.227-0.123s0.099-0.202,0.128-0.359
	h0.895c-0.036,0.548-0.157,0.965-0.363,1.252C92.262,123.899,91.979,124.043,91.623,124.043z M91.5,128.856l-0.31-1.181
	c-0.072-0.262-0.16-0.601-0.264-1.018c-0.103-0.416-0.171-0.714-0.204-0.895c-0.029,0.167-0.087,0.442-0.174,0.826
	c-0.087,0.383-0.279,1.139-0.578,2.267H91.5z"/>
<path fill="#A1A1A1" d="M101.883,128.192c0,1.209-0.297,2.129-0.89,2.758s-1.462,0.944-2.605,0.944
	c-1.128,0-1.992-0.316-2.594-0.949s-0.901-1.554-0.901-2.763c0-1.196,0.299-2.11,0.896-2.741c0.599-0.631,1.468-0.946,2.608-0.946
	c1.144,0,2.011,0.313,2.601,0.939S101.883,126.979,101.883,128.192z M96.938,128.192c0,1.39,0.483,2.084,1.45,2.084
	c0.491,0,0.856-0.168,1.094-0.506s0.356-0.863,0.356-1.578c0-0.718-0.12-1.248-0.361-1.591c-0.241-0.342-0.601-0.514-1.079-0.514
	C97.424,126.088,96.938,126.79,96.938,128.192z"/>
<path fill="#A1A1A1" d="M29.526,137.098c-0.462,0-0.823,0.189-1.082,0.568c-0.259,0.378-0.388,0.9-0.388,1.565
	c0,1.384,0.526,2.075,1.578,2.075c0.318,0,0.626-0.045,0.924-0.133c0.298-0.089,0.598-0.195,0.899-0.32v1.643
	c-0.6,0.266-1.278,0.398-2.035,0.398c-1.085,0-1.917-0.315-2.495-0.944s-0.868-1.539-0.868-2.729c0-0.744,0.14-1.397,0.42-1.962
	c0.28-0.563,0.683-0.997,1.209-1.3c0.526-0.303,1.145-0.455,1.856-0.455c0.776,0,1.519,0.169,2.227,0.507l-0.595,1.528
	c-0.265-0.124-0.531-0.229-0.796-0.314C30.116,137.141,29.831,137.098,29.526,137.098z"/>
<path fill="#A1A1A1" d="M39.584,139.192c0,1.209-0.296,2.129-0.89,2.758s-1.462,0.944-2.605,0.944c-1.127,0-1.992-0.316-2.593-0.949
	c-0.602-0.633-0.902-1.554-0.902-2.763c0-1.196,0.299-2.11,0.897-2.741c0.598-0.631,1.467-0.946,2.608-0.946
	c1.144,0,2.011,0.313,2.601,0.939S39.584,137.979,39.584,139.192z M34.639,139.192c0,1.39,0.483,2.084,1.45,2.084
	c0.492,0,0.856-0.168,1.094-0.506s0.356-0.863,0.356-1.578c0-0.718-0.121-1.248-0.361-1.591c-0.241-0.342-0.601-0.514-1.079-0.514
	C35.125,137.088,34.639,137.79,34.639,139.192z"/>
<path fill="#A1A1A1" d="M44.014,142.796l-1.47-5.177H42.5c0.069,0.882,0.104,1.566,0.104,2.055v3.122h-1.721v-7.188h2.586l1.5,5.103
	h0.039l1.47-5.103h2.591v7.188h-1.785v-3.151c0-0.164,0.002-0.346,0.007-0.546c0.005-0.199,0.027-0.689,0.066-1.47h-0.044
	l-1.45,5.167H44.014z"/>
<path fill="#A1A1A1" d="M55.832,137.895c0,0.803-0.236,1.423-0.71,1.86s-1.146,0.656-2.018,0.656h-0.545v2.385h-1.942v-7.188h2.487
	c0.908,0,1.59,0.198,2.045,0.595C55.604,136.6,55.832,137.164,55.832,137.895z M52.559,138.828h0.354
	c0.292,0,0.523-0.081,0.695-0.245c0.172-0.164,0.258-0.391,0.258-0.679c0-0.485-0.269-0.728-0.806-0.728h-0.501V138.828z"/>
<path fill="#A1A1A1" d="M61.388,142.796l-0.354-1.347h-2.336l-0.363,1.347h-2.134l2.345-7.217h2.591l2.375,7.217H61.388z
	 M60.631,139.856l-0.31-1.181c-0.072-0.262-0.16-0.601-0.264-1.018c-0.103-0.416-0.171-0.714-0.204-0.895
	c-0.029,0.167-0.087,0.442-0.174,0.826c-0.087,0.383-0.279,1.139-0.578,2.267H60.631z"/>
<path fill="#A1A1A1" d="M66.23,140.181v2.615h-1.942v-7.188h2.355c1.953,0,2.93,0.708,2.93,2.124c0,0.832-0.406,1.477-1.219,1.932
	l2.094,3.132h-2.202l-1.524-2.615H66.23z M66.23,138.721h0.363c0.679,0,1.019-0.3,1.019-0.9c0-0.494-0.333-0.742-0.998-0.742H66.23
	V138.721z"/>
<path fill="#A1A1A1" d="M75.512,142.796l-0.354-1.347h-2.336l-0.363,1.347h-2.134l2.345-7.217h2.591l2.375,7.217H75.512z
	 M74.755,139.856l-0.31-1.181c-0.072-0.262-0.16-0.601-0.264-1.018c-0.103-0.416-0.171-0.714-0.204-0.895
	c-0.029,0.167-0.087,0.442-0.174,0.826c-0.087,0.383-0.279,1.139-0.578,2.267H74.755z"/>
<path fill="#A1A1A1" d="M80.354,140.181v2.615h-1.942v-7.188h2.355c1.953,0,2.93,0.708,2.93,2.124c0,0.832-0.406,1.477-1.219,1.932
	l2.094,3.132H82.37l-1.524-2.615H80.354z M80.354,138.721h0.363c0.679,0,1.019-0.3,1.019-0.9c0-0.494-0.333-0.742-0.998-0.742
	h-0.384V138.721z"/>
</svg>
