<?xml version="1.0" encoding="utf-8"?>
<!-- Generator: Adobe Illustrator 16.0.0, SVG Export Plug-In . SVG Version: 6.00 Build 0)  -->
<!DOCTYPE svg PUBLIC "-//W3C//DTD SVG 1.1//EN" "http://www.w3.org/Graphics/SVG/1.1/DTD/svg11.dtd">
<svg version="1.1" id="Layer_1" xmlns="http://www.w3.org/2000/svg" xmlns:xlink="http://www.w3.org/1999/xlink" x="0px" y="0px"
	 width="130px" height="130px" viewBox="0 0 130 130" enable-background="new 0 0 130 130" xml:space="preserve">
<path opacity="0.2" fill="#FFFFFF" enable-background="new    " d="M15,75.464h16.336v0.018
	c6.183,7.229,13.996,11.444,22.869,13.936c2.588,0.733,5.218,1.419,7.688,2.465c4.243,1.791,6.905,4.994,7.376,9.678
	c0.231,2.341,0.171,4.706,0.299,7.056c0.208,3.835,1.873,5.805,5.708,6.281c5.313,0.663,9.21-1.911,11.882-6.169
	c4.281-6.807,3.49-13.907,0.438-20.93c-0.922-2.114-2.157-4.087-3.442-6.478c1.487-0.086,2.568-0.203,3.648-0.208
	c6.093-0.021,12.189,0.075,18.281-0.044c5.778-0.119,9.258-4.176,8.892-9.942c-0.254-4.02-2.854-6.285-6.052-8.066
	c4.332-6.629,3.67-10.425-2.577-15.77c4.919-7.172,3.709-12.355-4.048-16.304c2.828-4.728,3.177-8.088,1.194-11.438
	c-2.314-3.91-6.027-4.588-10.207-4.547c-9.699,0.098-19.412-0.05-29.116,0.071c-3.93,0.048-7.898,0.272-11.776,0.887
	c-7.235,1.15-15.137,4.419-21.056,9.207v0.013H15"/>
</svg>
