<?xml version="1.0" encoding="utf-8"?>
<!-- Generator: Adobe Illustrator 16.0.0, SVG Export Plug-In . SVG Version: 6.00 Build 0)  -->
<!DOCTYPE svg PUBLIC "-//W3C//DTD SVG 1.1//EN" "http://www.w3.org/Graphics/SVG/1.1/DTD/svg11.dtd">
<svg version="1.1" xmlns="http://www.w3.org/2000/svg" xmlns:xlink="http://www.w3.org/1999/xlink" x="0px" y="0px" width="309px"
	 height="497px" viewBox="0 0 309 497" enable-background="new 0 0 309 497" xml:space="preserve">
<g id="Layer_1">
	<g id="Layer_2">
	</g>
	<path fill="#EFEFEF" d="M308.864,410.519l-64.941,18.283l0.016-1.008c3.143-0.687,5.497-3.481,5.497-6.831
		c0-3.273-2.252-6.014-5.289-6.777l3.527-229.953h9.786v-9.072c0-2.138-2.897-3.872-6.472-3.872h-3.115l0.018-1.179l61.065,5.388
		l0.088-0.996l-59.368-5.238c3.805-1.167,6.571-4.706,6.571-8.893c0-4.717-3.515-8.604-8.065-9.211l1.762-114.863h3.604v-3.061
		c0-0.722-0.978-1.306-2.185-1.306h-1.099l58.971-31.489l-0.471-0.882l-55.846,29.82c0.138-0.353,0.22-0.732,0.22-1.133
		c0-1.694-1.346-3.065-3.023-3.127L250.5,0.008l-1-0.016l-0.388,25.257c-1.299,0.384-2.253,1.573-2.253,2.997
		c0,1.39,0.91,2.555,2.162,2.968l-0.004,0.249l-0.979,0.523c-0.648,0.11-1.175,0.391-1.426,0.761l-73.89,39.456
		c0.392-0.608,0.625-1.329,0.625-2.106c0-2.156-1.747-3.903-3.902-3.903c-0.245,0-0.483,0.029-0.716,0.072L154.99-0.102
		l-0.979,0.203l13.764,66.481c-1.316,0.627-2.232,1.959-2.232,3.514c0,2.108,1.674,3.814,3.765,3.889l0.008,0.037l-1.228,0.655
		h-0.34c-1.499,0-2.715,0.727-2.715,1.624v0.008l-12.302,6.569c0.266-0.805,0.415-1.663,0.415-2.557c0-4.502-3.65-8.152-8.152-8.152
		c-2.12,0-4.044,0.816-5.494,2.142L97.71-1.563L81.917,113.493c-0.196-0.038-0.397-0.061-0.605-0.061
		c-1.548,0-2.838,1.096-3.141,2.554L0.416-0.278l-0.831,0.556l80.341,120.129h-0.009c-1.232,0-2.231,0.598-2.231,1.335v1.208
		l-77.921,41.608l0.471,0.882l77.451-41.357v0.786h5.225l12.311,18.407c-0.113,0.6-0.178,1.215-0.178,1.848
		c0,4.806,3.406,8.816,7.935,9.751l1.295,1.937h-3.603c-3.825,0-6.926,1.855-6.926,4.144v1.584l-93.984,51.02l0.478,0.879
		l93.506-50.761v6.253L-0.387,284.683l0.773,0.635l94.049-114.65h5.821L46.56,344.542c-2.427-1.553-5.304-2.464-8.398-2.464
		c-8.629,0-15.625,6.996-15.625,15.625c0,8.466,6.738,15.343,15.141,15.601l-0.846,2.74h-5.463c-6.001,0-10.869,2.91-10.869,6.503
		v15.236h9.618l-30.595,99.069l0.955,0.295l30.686-99.364h24.658v-6.104l63.984,63.562c0.847,1.433,2.047,2.626,3.486,3.463
		l3.026,3.006h-2.379c-3.73,0-6.755,1.809-6.755,4.042v9.469h10.713l1.604,21.816l0.997-0.074l-1.599-21.742h10.237v-9.469
		c0-0.314-0.066-0.619-0.18-0.914l169.948,32.653l0.189-0.982l-170.934-32.842c-1.183-1.172-3.325-1.957-5.779-1.957h-1.662
		l103.813-29.226v6.425h15.814v-6.822c0-1.472-1.833-2.677-4.202-2.872l62.99-17.733L308.864,410.519z M242.828,429.109
		l-0.232,0.065h-3.197c-2.291,0-4.199,0.952-4.716,2.228L128.09,461.411l0.287-1.399c5.261-0.116,9.494-4.41,9.494-9.7
		c0-3.927-2.336-7.302-5.691-8.831l55.03-268.189h2.656l49.935,241.194c-2.555,1.043-4.357,3.548-4.357,6.478
		c0,3.864,3.132,6.996,6.996,6.996c0.051,0,0.099-0.007,0.149-0.008L242.828,429.109z M114.722,158.36l73.206,6.459l-0.043,0.207
		h-2.474c-2.282,0-4.134,1.106-4.134,2.472v5.793h4.911l-54.953,267.815c-0.967-0.323-1.999-0.505-3.074-0.505
		c-0.614,0-1.212,0.063-1.794,0.173l-19.861-270.107h9.749v-9.71C116.255,159.973,115.679,159.07,114.722,158.36z M189.155,164.927
		l1.116,0.099h-1.096L189.155,164.927z M246.872,171.289H242.9c-3.573,0-6.471,1.733-6.471,3.872v9.072h10.244l-3.525,229.77
		c-0.232-0.023-0.47-0.036-0.709-0.036c-0.581,0-1.143,0.078-1.682,0.212l-49.871-240.888h3.822v-5.793
		c0-1.082-1.169-1.991-2.785-2.326l54.968,4.85L246.872,171.289z M247.183,151.081c-0.08-0.002-0.157-0.012-0.237-0.012
		c-5.138,0-9.303,4.165-9.303,9.302c0,3.613,2.064,6.738,5.075,8.278l-53.752-4.743c2.816-0.465,4.968-2.905,4.968-5.854
		c0-3.28-2.66-5.94-5.94-5.94c-0.502,0-0.986,0.069-1.452,0.186l-14.945-72.191h2.26v-3.806c0-0.897-1.215-1.624-2.715-1.624h-0.669
		l-0.026-0.126l76.006-40.586v2.331h2.492L247.183,151.081z M165.032,77.442v2.666h5.542l15.013,72.517
		c-0.811,0.36-1.525,0.896-2.097,1.561l-29.281-53.166v-7.736c0-1.875-2.54-3.393-5.671-3.393h-0.458l-0.943-1.711
		c2.104-0.573,3.867-1.962,4.927-3.813L165.032,77.442z M144.993,88.474c0.38,0,0.751-0.035,1.118-0.085l0.828,1.502h-5.219
		l2.707-1.446C144.615,88.458,144.802,88.474,144.993,88.474z M98.29,1.563l40.48,73.499c-1.202,1.42-1.93,3.254-1.93,5.26
		c0,3.748,2.532,6.897,5.977,7.85l-3.888,2.077c-0.915,0.272-1.688,0.686-2.24,1.196l-54.24,28.963h-0.471l0.09-0.658
		c1.405-0.342,2.452-1.599,2.452-3.109c0-1.2-0.667-2.234-1.643-2.784L98.29,1.563z M81.049,119.822l-0.053,0.387l-0.281-0.42
		C80.823,119.809,80.937,119.813,81.049,119.822z M105,135.168c-4.399,0-8.125,2.856-9.442,6.814L84.113,124.87h0.825v-3.128
		c0-0.434-0.351-0.814-0.885-1.058l51.745-27.631c-0.009,0.077-0.02,0.153-0.02,0.231v7.949h17.406l29.664,53.859
		c-0.503,0.872-0.796,1.881-0.796,2.961c0,2.583,1.652,4.775,3.955,5.593l-74.143-6.542c-0.786-0.186-1.64-0.291-2.536-0.291h-0.759
		l-2.583-0.228l1.021-1.244l-1.845,1.001l-0.867-1.296c0.234,0.017,0.467,0.036,0.705,0.036c5.499,0,9.957-4.458,9.957-9.957
		S110.499,135.168,105,135.168z M37.877,376.044l0.518-1.676l1.687,1.676H37.877z M55.822,390.271v-7.724
		c0-3.593-4.867-6.503-10.869-6.503H41.5l-2.763-2.745c8.36-0.306,15.049-7.161,15.049-15.596c0-5.158-2.511-9.719-6.365-12.564
		l53.881-174.472h4.201l19.878,270.344c-4.007,1.195-6.931,4.905-6.931,9.301c0,0.87,0.125,1.709,0.34,2.512L55.822,390.271z
		 M126.771,459.912l0.067,0.905l-1.126-1.119C126.059,459.789,126.412,459.86,126.771,459.912z"/>
</g>
<g id="Layer_2_1_">
</g>
</svg>
