<?xml version="1.0" encoding="utf-8"?>
<!-- Generator: Adobe Illustrator 16.0.0, SVG Export Plug-In . SVG Version: 6.00 Build 0)  -->
<!DOCTYPE svg PUBLIC "-//W3C//DTD SVG 1.1//EN" "http://www.w3.org/Graphics/SVG/1.1/DTD/svg11.dtd">
<svg version="1.1" id="Layer_1" xmlns="http://www.w3.org/2000/svg" xmlns:xlink="http://www.w3.org/1999/xlink" x="0px" y="0px"
	 width="248px" height="117.333px" viewBox="0 0 248 117.333" enable-background="new 0 0 248 117.333" xml:space="preserve">
<g>
	<g>
		<path fill="#FFFFFF" d="M195.953,36.55c4.67,0,9.103,0.907,13.299,2.717c4.194,1.813,7.865,4.29,11.011,7.436
			c3.146,3.146,5.648,6.817,7.508,11.012c1.859,4.196,2.788,8.721,2.788,13.584c0,4.766-0.907,9.221-2.717,13.367
			c-1.812,4.148-4.268,7.795-7.364,10.939c-3.1,3.146-6.746,5.627-10.939,7.438c-4.196,1.809-8.723,2.717-13.585,2.717
			c-4.769,0-9.248-0.859-13.442-2.574c-4.196-1.717-7.865-4.123-11.011-7.223c-3.146-3.096-5.626-6.742-7.436-10.939
			c-1.813-4.193-2.718-8.77-2.718-13.725c0-4.768,0.881-9.223,2.646-13.371c1.764-4.146,4.194-7.769,7.293-10.867
			c3.098-3.098,6.769-5.577,11.012-7.437C186.537,37.765,191.091,36.743,195.953,36.55z M195.953,55.283
			c-2.194,0-4.243,0.407-6.149,1.216c-1.908,0.812-3.6,1.931-5.076,3.36c-1.479,1.431-2.646,3.124-3.504,5.077
			c-0.857,1.955-1.287,4.074-1.287,6.363c0,2.193,0.43,4.266,1.287,6.219c0.858,1.955,2.024,3.67,3.504,5.146
			c1.477,1.48,3.168,2.646,5.076,3.504c1.906,0.857,3.955,1.287,6.149,1.287c2.191,0,4.266-0.43,6.221-1.287
			c1.952-0.857,3.646-2.023,5.076-3.504c1.43-1.477,2.574-3.191,3.432-5.146c0.858-1.953,1.287-4.025,1.287-6.219
			c-0.192-4.385-1.765-8.102-4.719-11.154C204.294,57.095,200.529,55.475,195.953,55.283z"/>
	</g>
	<path fill="#FFFFFF" d="M204.16,68.391c-0.301,2.182-2.152,3.867-4.417,3.867c-2.474,0-4.479-2.004-4.479-4.479
		c0-2.43,1.941-4.4,4.358-4.464c-1.116-0.523-2.356-0.825-3.671-0.825c-4.786,0-8.666,3.879-8.666,8.665s3.88,8.664,8.666,8.664
		s8.666-3.879,8.666-8.664C204.618,70.188,204.453,69.26,204.16,68.391z"/>
	<path fill="#FFFFFF" d="M65.369,87.455H51.921c-2.146-0.016-4.153-0.445-6.022-1.287c-1.908-0.857-3.6-2.023-5.076-3.504
		c-0.665-0.664-1.258-1.383-1.797-2.145h26.066c-0.002,0.004-0.005,0.006-0.007,0.01h20.317c0.827-2.938,1.251-6.012,1.251-9.23
		c0-4.863-0.929-9.388-2.788-13.584c-1.859-4.194-4.361-7.865-7.508-11.012c-3.146-3.146-6.816-5.623-11.011-7.436
		c-4.196-1.81-8.629-2.717-13.299-2.717c-4.862,0.192-9.416,1.215-13.656,3.074c-4.243,1.859-7.914,4.339-11.012,7.437
		c-3.099,3.099-5.529,6.721-7.293,10.867c-1.765,4.147-2.646,8.603-2.646,13.371c0,4.955,0.905,9.531,2.718,13.725
		c1.81,4.197,4.289,7.844,7.436,10.939c3.146,3.1,6.814,5.506,11.011,7.223c4.194,1.715,8.674,2.574,13.442,2.574h13.321V87.455z
		 M40.822,59.859c1.477-1.43,3.168-2.549,5.076-3.36c1.906-0.809,3.955-1.216,6.149-1.216c4.576,0.192,8.341,1.813,11.297,4.862
		c0.51,0.526,0.963,1.08,1.39,1.646H39.152C39.659,61.105,40.207,60.454,40.822,59.859z"/>
	<path fill="#FFFFFF" d="M110.561,103.186c-4.196-1.717-7.865-4.123-11.011-7.223c-2.521-2.48-4.606-5.32-6.269-8.508H68.369v18.305
		h55.633l0,0C119.234,105.76,114.755,104.9,110.561,103.186z"/>
	<path fill="#FFFFFF" d="M127.003,87.455v18.176c3.735-0.299,7.266-1.156,10.585-2.588c4.193-1.811,7.84-4.291,10.939-7.438
		c3.097-3.145,5.553-6.791,7.364-10.939c1.429-3.273,2.286-6.744,2.587-10.404h0.002v-0.023c0.079-0.969,0.128-1.945,0.128-2.939
		c0-1-0.049-1.982-0.128-2.955v-56.77h-18.534v28.97c-0.858-0.455-1.737-0.885-2.645-1.276c-4.196-1.81-8.629-2.717-13.299-2.717
		c-4.862,0.192-9.416,1.215-13.656,3.074c-4.243,1.859-7.914,4.339-11.012,7.437c-3.099,3.099-5.529,6.721-7.293,10.867
		c-1.765,4.147-2.646,8.603-2.646,13.371c0,4.734,0.836,9.119,2.49,13.156h23.012c-0.748-0.537-1.459-1.127-2.121-1.791
		c-1.479-1.477-2.646-3.191-3.504-5.146c-0.857-1.953-1.287-4.025-1.287-6.219c0-2.289,0.43-4.408,1.287-6.363
		c0.858-1.953,2.024-3.646,3.504-5.077c1.477-1.43,3.168-2.549,5.076-3.36c1.906-0.809,3.955-1.216,6.149-1.216
		c4.576,0.192,8.341,1.813,11.297,4.862c2.759,2.85,4.297,6.289,4.646,10.302v2.309c-0.149,1.658-0.55,3.248-1.215,4.762
		c-0.857,1.955-2.002,3.67-3.432,5.146c-1.43,1.48-3.124,2.646-5.076,3.504"/>
	<rect x="68.369" y="87.455" fill="#FFFFFF" width="55.633" height="18.305"/>
</g>
</svg>
