<?xml version="1.0" encoding="utf-8"?>
<!-- Generator: Adobe Illustrator 16.0.0, SVG Export Plug-In . SVG Version: 6.00 Build 0)  -->
<!DOCTYPE svg PUBLIC "-//W3C//DTD SVG 1.1//EN" "http://www.w3.org/Graphics/SVG/1.1/DTD/svg11.dtd">
<svg version="1.1" id="Layer_1" xmlns="http://www.w3.org/2000/svg" xmlns:xlink="http://www.w3.org/1999/xlink" x="0px" y="0px"
	 width="885.192px" height="250.094px" viewBox="0 0 885.192 250.094" enable-background="new 0 0 885.192 250.094"
	 xml:space="preserve">
<g>
	<path fill-rule="evenodd" clip-rule="evenodd" fill="#FCFDFC" d="M442.596,250.094c-146,0-292-0.017-438,0.094
		c-3.75,0.003-4.601-0.844-4.595-4.594c0.125-80.5,0.123-161-0.001-241.5C-0.005,0.67,0.673-0.002,4.096,0
		c292.333,0.102,584.667,0.102,877,0c3.424-0.002,4.102,0.67,4.096,4.094c-0.123,80.667-0.123,161.333,0,242
		c0.006,3.424-0.672,4.098-4.096,4.095C734.929,250.078,588.763,250.094,442.596,250.094z M24.022,65.094
		c-0.078-3.353-0.156-6.705-0.234-10.058c-0.287-7.98-0.574-15.961-0.861-23.941c-0.288-3.033,0.771-4.438,4.113-4.074
		c2.943,0.321,5.949,0.067,8.927,0.067c8.823,0,8.823,0,10.03,8.045c0.131,6.856-0.426,13.745,0.972,20.541
		c-0.454,2.153-0.54,4.298,0.14,6.426c0.052,3.996,0.105,7.993,0.158,11.99c-0.101,4.339-0.202,8.678-0.303,13.016
		c-1.152,3.941-0.766,7.973-0.698,11.985c-0.294,4.333-0.989,8.658-0.298,13.014c-0.472,5-0.43,10-0.007,15
		c0.398,5.054-1.675,10.486,2.298,14.992c0.949,12.249,1.909,24.498,2.828,36.749c0.095,1.263,0.2,2.531,1.821,2.313
		c8.735-1.174,17.767,2.758,26.3-1.521c0.974-0.488,2.063-0.906,2.741-0.092c3.108,3.729,7.363,2.346,11.2,2.626
		c4.968,0.362,9.955,0.609,14.936,0.634c15.679,0.078,31.358,0.029,47.037,0.029c-6.273-0.454-12.407-2.24-18.229-4.985
		c-20.403-9.62-40.188-20.246-57.229-35.313c-1.007-0.89-2.997-1.235-2.089-3.347c19.117,0.274,38.235,0.765,57.352,0.688
		c5.576-0.022,11.159-1.79,16.822-1.343c11.299,0.894,22.612,0.649,33.922,0.682c18.476,0.052,36.951,0.047,55.426,0.066
		c0,14.902,0,29.805,0,44.707c0.312,0.001,0.623,0.001,0.935,0.002c0-15.009,0-30.018,0-45.026
		c-0.075-3.965-0.151-7.931-0.227-11.896c-0.016-4.995-0.03-9.989-0.046-14.984c-0.009-4.331-0.018-8.662-0.026-12.993
		c-0.008-4.003-0.016-8.005-0.023-12.007c0.003-4.341,0.006-8.683,0.009-13.022c0.007-9.553,0.015-19.106,0.022-28.66
		c-0.002-3.437-0.005-6.873-0.007-10.31c0.009-5.328,0.018-10.657,0.027-15.985c0.674-9.899,0.674-9.899-9.1-9.899
		c-71.46,0-142.92,0-214.38,0c-9.611,0-9.611,0-8.418,9.921c-0.571,3.983-0.572,7.965,0.032,11.945
		C9.249,44.421,9.431,57.767,9.88,71.109c-0.566,3.392-0.604,6.782,0.025,10.172c-0.396,4.531-0.399,9.063,0.029,13.593
		c0,3.384,0,6.767,0,10.15c-0.498-2.742-0.513-2.954,1.789-3.119c3.635-0.26,7.293-0.191,10.941-0.288
		c0.986-0.026,2.173-0.033,2.166-1.401c-0.009-1.421-1.252-1.293-2.204-1.304c-3.487-0.04-6.975-0.009-10.462-0.047
		c-2.196-0.024-3.686-0.603-2.154-3.186c4.133,0.183,8.27,0.305,12.397,0.573c2.178,0.142,2.976-0.686,2.847-2.855
		c-0.268-4.473-0.384-8.955-0.563-13.434C24.468,75.008,24.245,70.051,24.022,65.094z M24.22,159.084
		c1.269-11.978,0.874-23.987,0.711-35.992c0.103-4.641,0.179-9.282,0.32-13.922c0.056-1.827-0.046-2.966-2.549-3.015
		c-12.958-0.254-13.098-0.21-13.014,12.439c0.01,1.484,0.168,2.969,0.258,4.453c-0.647,12.029-0.594,24.058,0.013,36.086
		c-0.084,6.471-0.181,12.942-0.242,19.413c-0.009,0.963-0.133,2.407,1.08,2.458c4.142,0.172,8.301,0.182,12.44-0.015
		c1.172-0.056,0.993-1.56,0.954-2.507C23.926,172.016,25.056,165.551,24.22,159.084z M563.548,242.228
		c102.644,0,205.288-0.03,307.932,0.1c4.48,0.006,5.736-1.024,5.727-5.651c-0.16-73.817-0.158-147.634-0.005-221.451
		c0.009-4.65-0.87-6.083-5.867-6.079C666.213,9.29,461.092,9.284,255.971,9.174c-4.476-0.002-5.822,0.996-5.812,5.689
		c0.16,73.816,0.161,147.634-0.002,221.45c-0.011,4.774,1.077,6.039,5.959,6.032C358.593,242.189,461.071,242.228,563.548,242.228z
		 M125.593,242.226c3.666,0,7.333,0,10.999,0c33.498,0,66.996-0.016,100.494,0.027c2.852,0.004,5.019,0.238,4.932-3.958
		c-0.272-13.16-0.213-26.331-0.021-39.494c0.048-3.311-1.229-3.947-4.09-3.732c-7.303,0.548-14.643,0.508-21.95,0.659
		c-42.464,0.876-84.935,1.344-127.403,1.996c-24.813,0.381-49.626,0.918-74.441,1.193c-3.444,0.038-4.547,0.896-4.478,4.437
		c0.22,11.328,0.253,22.668-0.012,33.994c-0.092,3.948,1.054,4.981,4.978,4.966C51.597,242.165,88.595,242.226,125.593,242.226z"/>
	<path fill-rule="evenodd" clip-rule="evenodd" fill="#54AF33" d="M563.548,242.228c-102.478,0-204.955-0.038-307.432,0.118
		c-4.882,0.007-5.97-1.258-5.959-6.032c0.163-73.816,0.162-147.634,0.002-221.45c-0.011-4.693,1.336-5.691,5.812-5.689
		c205.121,0.11,410.242,0.116,615.363-0.028c4.997-0.004,5.876,1.429,5.867,6.079c-0.153,73.817-0.155,147.634,0.005,221.451
		c0.01,4.627-1.246,5.657-5.727,5.651C768.836,242.197,666.192,242.228,563.548,242.228z M473.086,65.961
		c0,15.14,0.076,30.279-0.065,45.417c-0.028,2.988,0.649,4.202,3.845,3.97c3.807-0.277,7.651-0.143,11.476-0.035
		c2.099,0.058,3.478-0.451,4.013-2.727c0.417-1.768,1.227-3.44,1.854-5.158c4.067-11.145,4.067-11.145,16.018-11.145
		c12.059,0,12.059,0,16.096,11.629c2.722,7.837,2.723,7.842,11.213,7.322c0.475-0.029,0.938-0.242,1.416-0.372
		c0-0.555,0.141-1.1-0.021-1.532c-7.399-19.941-14.874-39.855-22.189-59.827c-0.917-2.503-2.503-2.539-4.595-2.653
		c-2.457-0.134-3.938,0.512-4.92,2.988c-4.904,12.358-9.978,24.651-14.994,36.965c-3.034,7.447-6.074,14.893-9.111,22.338
		c-0.834-19.17-0.785-38.092-0.915-57.013c-0.012-1.753,1.646-4.902-1.916-5.093c-3.024-0.162-6.451-1.433-8.454,2.994
		c-3.147,6.957-7.05,13.57-10.583,20.354c-4.811,9.239-9.574,18.502-14.596,28.215c-5.02-10.675-9.733-20.758-14.502-30.814
		c-2.92-6.155-5.976-12.245-8.876-18.41c-2.16-4.591-6.14-1.925-9.274-2.324c-2.253-0.287-1.763,1.939-1.765,3.32
		c-0.027,19.158,0.046,38.317-0.083,57.475c-0.021,3.104,1.314,3.536,3.887,3.493c2.432-0.04,4.18-0.137,3.988-3.387
		c-0.244-4.15-0.058-8.326-0.058-12.491c0.001-10.878,0-21.757,0-32.636c1.331,0.832,1.739,1.838,2.197,2.822
		c6.591,14.165,13.181,28.331,19.795,42.485c0.677,1.449,1.075,3.07,3.307,3.195c2.466,0.138,2.998-1.558,3.842-3.168
		C457.126,96.875,465.025,81.534,473.086,65.961z M668.438,83.232c0,9.333-0.03,18.667,0.028,27.999
		c0.011,1.65-0.771,4.126,2.221,4.016c10.602-0.392,21.334,1.432,31.764-1.954c15.214-4.939,22.63-17.104,21.654-35.672
		c-0.706-13.44-9.702-22.981-24.765-25.907c-8.736-1.696-17.624-0.42-26.427-0.882c-3.425-0.18-4.645,0.817-4.555,4.403
		C668.593,64.563,668.438,73.899,668.438,83.232z M314.093,136.202c-4.536,0-8.036,0.063-11.533-0.025
		c-1.979-0.05-3.141,0.42-3.137,2.716c0.039,19.494,0.021,38.988,0.021,58.482c0,1.398,0.064,2.768,2.002,2.717
		c11.428-0.297,23.043,1.424,34.094-3.017c13.524-5.435,20.044-17.769,18.639-35.13c-1.002-12.377-9.366-21.468-22.736-24.433
		C325.404,136.174,319.232,135.992,314.093,136.202z M791.286,82.781c0.093-19.099-12.891-32.749-31.272-32.876
		c-19.45-0.136-33.088,13.121-33.103,32.178c-0.016,20.229,13.258,34.491,32.15,34.545
		C777.908,116.681,791.188,102.732,791.286,82.781z M750.869,201.104c18.82,0.064,32.164-14.053,32.103-33.963
		c-0.057-18.104-13.984-31.97-32.068-31.924c-17.931,0.045-31.626,13.724-31.684,31.645
		C719.153,187.128,732.011,201.039,750.869,201.104z M650.908,167.897c0,9.483-0.021,18.968,0.021,28.451
		c0.007,1.672-0.716,3.877,2.396,3.767c8.959-0.319,17.972,0.752,26.872-1.071c16.133-3.304,25.644-15.354,25.722-32.591
		c0.067-15.057-8.703-25.964-23.615-29.04c-9.033-1.864-18.236-0.94-27.364-1.271c-3.446-0.124-4.156,1.168-4.095,4.303
		C651.022,149.593,650.908,158.746,650.908,167.897z M543.203,83.051c0,9.498,0.203,19.002-0.098,28.49
		c-0.125,3.937,1.927,3.869,4.613,3.773c2.604-0.092,5.384,0.702,5.127-3.796c-0.361-6.312-0.018-12.66-0.125-18.989
		c-0.041-2.396,0.466-3.467,3.239-3.648c4.123-0.271,6.64,0.77,8.506,4.821c3.195,6.937,7.106,13.544,10.74,20.277
		c2.629,4.871,5.907,0.872,8.548,0.222c3.82-0.94,0.576-3.224-0.102-4.467c-3.344-6.133-6.773-12.24-10.579-18.093
		c-2.284-3.512-2.854-5.621,1.1-8.694c6.233-4.846,8.176-14.616,5.459-21.909c-2.402-6.449-8.404-10.002-17.327-10.135
		c-5.164-0.077-10.336,0.124-15.494-0.068c-2.874-0.107-3.706,0.914-3.663,3.723C543.293,64.054,543.203,73.553,543.203,83.051z
		 M408.332,114.821c-0.322-1.045-0.564-1.993-0.904-2.906c-7.061-18.992-14.162-37.97-21.163-56.983
		c-0.922-2.504-1.686-4.239-5.042-4.177c-3.149,0.06-4.24,1.429-5.269,3.988c-7.371,18.338-14.857,36.628-22.32,54.929
		c-2.357,5.78-2.206,5.891,4.023,5.676c2.243-0.077,3.252-0.897,3.859-2.943c0.804-2.704,1.878-5.329,2.846-7.983
		c2.968-8.139,2.971-8.177,11.671-8.123c4.975,0.03,10.867-1.398,14.666,0.771c3.89,2.222,3.736,8.807,5.609,13.383
		c0.314,0.769,0.633,1.546,0.833,2.348c0.416,1.664,1.288,2.64,3.143,2.483C402.892,115.064,405.558,115.722,408.332,114.821z
		 M642.842,114.896c0.526-1.671-0.472-2.988-0.965-4.324c-6.903-18.676-13.914-37.312-20.821-55.986
		c-0.883-2.389-1.82-3.826-4.844-3.812c-3.061,0.014-4.264,1.203-5.329,3.862c-7.469,18.641-15.137,37.2-22.62,55.834
		c-0.556,1.383-2.87,3.902-0.317,4.454c2.508,0.542,6.423,2.377,8.17-1.959c0.742-1.845,1.365-3.737,2.041-5.608
		c3.998-11.074,3.998-11.074,15.566-11.074c12.476,0,12.476,0,16.587,11.62c2.763,7.809,2.763,7.813,11.132,7.337
		C641.922,115.213,642.392,115.011,642.842,114.896z M524.274,160.083c0-6.829-0.144-13.662,0.063-20.485
		c0.096-3.164-1.419-3.547-3.947-3.404c-2.304,0.13-4.646-0.528-4.541,3.313c0.227,8.321,0.125,16.654,0.049,24.981
		c-0.055,5.981,0.508,11.994-0.79,17.926c-1.703,7.793-7.431,12.484-15.254,12.465c-7.916-0.021-13.032-4.201-14.931-12.061
		c-0.633-2.618-0.842-5.24-0.836-7.917c0.025-11.825-0.121-23.653,0.084-35.476c0.068-3.935-2.346-3.194-4.568-3.188
		c-2.21,0.006-4.64-0.772-4.58,3.174c0.2,13.321-0.182,26.655,0.184,39.97c0.337,12.229,7.019,19.396,18.97,21.419
		c17.939,3.037,29.966-7.036,30.094-25.229C524.306,170.41,524.276,165.246,524.274,160.083z M582.471,199.715
		c8.593,0.914,8.594,0.914,11.341-6.617c0.285-0.781,0.554-1.569,0.839-2.35c3.467-9.466,3.468-9.465,13.747-9.465
		c13.367,0,13.657-0.092,17.702,12.724c1.601,5.069,4.023,6.706,9.113,6.229c2.997-0.281,3.651-0.737,2.55-3.643
		c-7.185-18.958-14.283-37.949-21.297-56.972c-0.856-2.32-1.818-3.476-4.537-3.515c-2.832-0.04-4.06,1.005-5.064,3.53
		c-5.9,14.819-11.969,29.573-17.982,44.348C586.763,189.192,584.638,194.398,582.471,199.715z M327.432,116.552
		c7.982-0.113,13.72-1.083,18.959-3.801c1.293-0.671,4.769-0.576,2.918-3.822c-1.267-2.224-2.034-4.412-5.875-2.377
		c-10.386,5.505-22.08,3.894-29.699-3.264c-9.556-8.975-11.319-25.932-3.812-36.654c7.401-10.571,21.439-13.391,34.308-6.248
		c3.573,1.983,4.133,0.028,5.568-1.976c2-2.79-0.544-3.403-2.054-4.334c-10.876-6.704-28.228-5.57-39.19,2.49
		c-11.763,8.648-16.287,23.367-11.635,37.854C301.391,108.342,313.025,116.251,327.432,116.552z M423.094,168.238
		c0,9.162,0.157,18.328-0.082,27.484c-0.09,3.427,0.728,4.598,4.339,4.501c3.376-0.09,4.935-0.399,4.862-4.504
		c-0.281-16.153-0.136-32.314-0.075-48.473c0.005-1.354-0.807-3.086,0.948-4.028c6.414-3.443,17.199,2.659,17.973,10.146
		c0.938,9.068-3.83,14.811-13.287,15.66c-2.358,0.212-3.601,0.563-3.625,3.354c-0.029,3.207,1.89,2.897,3.925,2.894
		c5.689-0.011,10.93-1.575,15.288-5.209c6.621-5.521,8.965-12.635,6.715-21.033c-2.091-7.803-7.88-10.972-15.36-12.193
		c-5.648-0.922-11.312-0.243-16.94-0.675c-3.643-0.28-4.91,0.707-4.779,4.593C423.303,149.907,423.094,159.077,423.094,168.238z
		 M389.482,200.104c4.66,0,9.324-0.096,13.981,0.038c2.501,0.072,3.976-0.211,3.924-3.373c-0.048-2.917-1.049-3.675-3.801-3.604
		c-6.488,0.165-12.984-0.026-19.475,0.091c-2.334,0.042-3.239-0.669-3.18-3.099c0.14-5.657,0.179-11.323-0.013-16.977
		c-0.096-2.805,1.117-3.313,3.545-3.248c4.99,0.135,9.987,0.079,14.98,0.01c1.208-0.017,2.988,0.625,3.325-1.226
		c0.288-1.588,0.613-3.726-0.18-4.824c-1.259-1.743-3.709-0.62-5.64-0.79c-5.239-0.462-12.453,2.334-15.207-1.153
		c-2.614-3.31-0.583-10.205-0.816-15.514c-0.114-2.621,0.748-3.474,3.381-3.384c5.32,0.182,10.655-0.063,15.977,0.102
		c2.508,0.078,3.134-0.912,3.046-3.207c-0.084-2.163-0.012-3.844-3.068-3.783c-8.319,0.165-16.646,0.142-24.967,0.006
		c-2.617-0.043-3.441,0.831-3.431,3.424c0.082,19.143,0.079,38.286,0.003,57.43c-0.01,2.383,0.744,3.198,3.133,3.125
		C379.824,199.998,384.654,200.102,389.482,200.104z M814.373,49.903c-9.214,0.03-15.756,3.915-18.268,10.5
		c-2.483,6.51-0.052,13.405,7.001,19.192c3.083,2.529,6.424,4.744,9.633,7.12c2.826,2.093,5.49,4.377,7.21,7.504
		c3.679,6.687,0.383,13.702-7.075,15.238c-5.113,1.053-9.655-0.594-13.56-3.558c-3.293-2.5-4.137-0.063-5.7,1.855
		c-2.222,2.726,0.315,3.476,1.796,4.398c7.513,4.686,15.625,5.737,23.899,2.692c11.346-4.175,14.825-16.211,7.877-26.145
		c-2.812-4.021-6.599-7.003-10.496-9.87c-3.487-2.564-7.111-4.995-9.866-8.392c-4.308-5.312-2.029-11.822,4.566-13.553
		c4.246-1.114,8.107,0.08,11.259,2.54c3.218,2.511,4.41,0.227,5.936-1.621c2.221-2.69-0.751-3.514-2.046-4.446
		C822.78,50.652,818.439,49.579,814.373,49.903z M808.142,201.091c11.297,0.057,19.163-4.334,21.564-11.024
		c2.971-8.275-0.198-14.954-6.113-20.649c-2.027-1.952-4.356-3.592-6.551-5.371c-2.711-2.196-5.569-4.235-8.104-6.618
		c-4.258-4.002-5.006-7.736-2.66-11.436c2.236-3.524,7.282-5.003,12.039-3.303c2.013,0.72,3.885,1.854,5.783,2.868
		c2.77,1.479,3.354-1.26,4.645-2.447c1.709-1.574,0.249-2.606-0.961-3.473c-5.572-3.986-11.69-5.321-18.422-3.778
		c-6.257,1.435-11.246,4.606-12.947,11.032c-1.727,6.521,0.464,12.188,5.619,16.522c2.921,2.456,6.062,4.653,9.137,6.922
		c2.816,2.076,5.631,4.146,7.79,6.95c2.902,3.771,3.422,7.908,1.371,12.155c-2.026,4.196-5.978,4.924-10.14,4.899
		c-4.156-0.024-7.822-1.619-11.034-4.086c-2.698-2.072-3.281,0.362-4.521,1.703c-1.565,1.693-1.62,2.999,0.484,4.372
		C799.846,199.414,804.982,201.018,808.142,201.091z M555.094,171.612c0,8.152,0.239,16.314-0.103,24.451
		c-0.167,3.975,1.645,4.044,4.687,4.136c3.343,0.102,4.559-0.641,4.512-4.302c-0.21-16.301-0.022-32.606-0.154-48.909
		c-0.023-2.942,0.563-4.187,3.801-3.965c4.305,0.295,8.649-0.037,12.97,0.115c2.432,0.085,3.602-0.405,3.557-3.223
		c-0.043-2.722-0.691-3.782-3.641-3.752c-13.973,0.142-27.948,0.103-41.923,0.025c-2.504-0.014-3.892,0.258-4.002,3.394
		c-0.125,3.577,1.68,3.615,4.257,3.544c4.155-0.114,8.326,0.138,12.474-0.088c2.848-0.155,3.689,0.776,3.629,3.62
		C554.979,154.974,555.093,163.294,555.094,171.612z M394.289,45.664c-3.529-4.285-6.681-8.53-10.293-12.337
		c-2.129-2.243-5.665-2.264-7.647-0.317c-3.844,3.771-6.972,8.272-10.657,12.789c3.62,0.971,5.869,0.234,8.107-2.063
		c6.053-6.214,6.243-6.2,12.503,0.106C388.539,46.097,390.767,46.905,394.289,45.664z"/>
	<path fill-rule="evenodd" clip-rule="evenodd" fill="#53AF32" d="M125.593,242.226c-36.998,0-73.996-0.061-110.993,0.088
		c-3.924,0.016-5.07-1.018-4.978-4.966c0.265-11.326,0.232-22.666,0.012-33.994c-0.069-3.541,1.034-4.398,4.478-4.437
		c24.815-0.275,49.628-0.813,74.441-1.193c42.469-0.652,84.939-1.12,127.403-1.996c7.308-0.151,14.647-0.111,21.95-0.659
		c2.86-0.215,4.138,0.422,4.09,3.732c-0.191,13.163-0.251,26.334,0.021,39.494c0.087,4.196-2.08,3.962-4.932,3.958
		c-33.498-0.043-66.996-0.027-100.494-0.027C132.926,242.226,129.259,242.226,125.593,242.226z"/>
	<path fill-rule="evenodd" clip-rule="evenodd" fill="#293088" d="M9.895,31.075c-0.604-3.98-0.603-7.962-0.032-11.945
		c77.299-0.008,154.598-0.015,231.898-0.021c-0.01,5.328-0.019,10.657-0.027,15.985c-65.246,0.013-130.491,0.025-195.737,0.039
		c-1.208-8.045-1.208-8.045-10.03-8.045c-2.978,0-5.983,0.254-8.927-0.067c-3.342-0.363-4.401,1.041-4.113,4.074
		C18.583,31.088,14.239,31.082,9.895,31.075z"/>
	<path fill-rule="evenodd" clip-rule="evenodd" fill="#0077C0" d="M241.759,112.086c0.016,4.995,0.03,9.989,0.046,14.984
		c-65.281,0.012-130.563,0.022-195.844,0.034c-0.423-5-0.465-10,0.007-15C111.232,112.099,176.496,112.092,241.759,112.086z"/>
	<path fill-rule="evenodd" clip-rule="evenodd" fill="#004A9B" d="M47.108,62.1c-0.68-2.128-0.593-4.272-0.14-6.427
		c0.345-7.58,0.345-7.581,7.992-7.581c39.913,0,79.825-0.017,119.737,0.007c22.116,0.013,44.232,0.094,66.349,0.143
		c-0.019,4.614-0.037,9.23-0.056,13.847C176.363,62.092,111.736,62.096,47.108,62.1z"/>
	<path fill-rule="evenodd" clip-rule="evenodd" fill="#1D3D90" d="M241.046,48.243c-22.116-0.051-44.232-0.132-66.349-0.145
		c-39.912-0.023-79.824-0.007-119.737-0.007c-7.647,0-7.647,0.001-7.992,7.581c-1.397-6.795-0.841-13.684-0.972-20.54
		c65.246-0.014,130.491-0.026,195.737-0.039c0.002,3.437,0.005,6.873,0.007,10.307C241.509,46.346,241.278,47.294,241.046,48.243z"
		/>
	<path fill-rule="evenodd" clip-rule="evenodd" fill="#006EB8" d="M241.759,112.086c-65.264,0.006-130.527,0.013-195.792,0.019
		c-0.691-4.355,0.004-8.681,0.298-13.014c65.156,0,130.311,0.001,195.467,0.002C241.742,103.424,241.75,107.755,241.759,112.086z"/>
	<path fill-rule="evenodd" clip-rule="evenodd" fill="#005DA9" d="M241.718,74.063c-0.003,4.341-0.006,8.683-0.009,13.023
		c-64.915,0.007-129.831,0.014-194.746,0.02c0.101-4.338,0.202-8.677,0.303-13.016c64.594-0.024,129.188-0.049,193.782-0.072
		l0.333,0.055L241.718,74.063z"/>
	<path fill-rule="evenodd" clip-rule="evenodd" fill="#0281C8" d="M45.961,127.104c65.282-0.012,130.563-0.022,195.844-0.034
		c0.075,3.965,0.151,7.931,0.227,11.896c-0.317,0.088-0.629,0.194-0.935,0.317c-18.475-0.02-36.95-0.015-55.426-0.066
		c-11.31-0.032-22.623,0.212-33.922-0.682c-5.663-0.447-11.246,1.32-16.822,1.343c-19.116,0.076-38.234-0.414-57.354-0.688
		c-2.3,2.392-5.017,3.129-8.38,2.994c-6.968-0.279-13.955-0.087-20.934-0.088C44.286,137.591,46.359,132.158,45.961,127.104z"/>
	<path fill-rule="evenodd" clip-rule="evenodd" fill="#0093D9" d="M48.259,142.097c6.979,0.001,13.966-0.191,20.934,0.088
		c3.363,0.135,6.08-0.603,8.38-2.994c-0.905,2.11,1.085,2.456,2.092,3.346c17.041,15.067,36.826,25.693,57.229,35.313
		c5.821,2.745,11.955,4.531,18.229,4.985c-15.679,0-31.358,0.049-47.037-0.029c-4.98-0.024-9.968-0.271-14.936-0.634
		c-3.837-0.28-8.092,1.104-11.2-2.626c-0.679-0.814-1.768-0.396-2.741,0.092c-8.533,4.279-17.565,0.348-26.3,1.521
		c-1.622,0.218-1.727-1.051-1.821-2.313C50.167,166.595,49.208,154.346,48.259,142.097z"/>
	<path fill-rule="evenodd" clip-rule="evenodd" fill="#0065B0" d="M46.963,87.105c64.915-0.006,129.831-0.013,194.746-0.02
		c0.008,4.002,0.016,8.004,0.023,12.007c-65.156-0.001-130.312-0.002-195.467-0.002C46.197,95.078,45.812,91.047,46.963,87.105z"/>
	<path fill-rule="evenodd" clip-rule="evenodd" fill="#332E87" d="M241.761,19.108c-77.3,0.007-154.599,0.014-231.898,0.021
		C8.67,9.209,8.67,9.209,18.281,9.209c71.46,0,142.92,0,214.38,0C242.435,9.209,242.435,9.209,241.761,19.108z"/>
	<path fill-rule="evenodd" clip-rule="evenodd" fill="#0053A1" d="M241.048,74.018c-64.594,0.023-129.188,0.048-193.782,0.072
		c-0.053-3.997-0.105-7.994-0.158-11.99c64.627-0.004,129.254-0.008,193.883-0.012C241.011,66.064,241.03,70.041,241.048,74.018z"/>
	<path fill-rule="evenodd" clip-rule="evenodd" fill="#0281C8" d="M24.932,123.092c0.162,12.005,0.558,24.015-0.711,35.992
		c-4.753,0.017-9.506,0.033-14.26,0.05c-0.606-12.028-0.66-24.057-0.013-36.086C14.942,123.063,19.937,123.077,24.932,123.092z"/>
	<path fill-rule="evenodd" clip-rule="evenodd" fill="#0093D9" d="M9.96,159.134c4.753-0.017,9.506-0.033,14.26-0.05
		c0.835,6.467-0.294,12.932-0.028,19.399c0.039,0.947,0.219,2.451-0.954,2.507c-4.14,0.196-8.299,0.187-12.44,0.015
		c-1.213-0.051-1.089-1.495-1.08-2.458C9.779,172.076,9.876,165.604,9.96,159.134z"/>
	<path fill-rule="evenodd" clip-rule="evenodd" fill="#1D3D90" d="M9.895,31.075c4.344,0.007,8.688,0.013,13.032,0.02
		c0.287,7.98,0.574,15.961,0.861,23.941c-0.229-0.602-0.731-1.245-0.645-1.796c0.745-4.751-1.797-5.676-5.758-5.17
		c-1.136,0.145-2.313,0.11-3.458,0.006c-2.691-0.244-3.951,0.74-3.824,3.618c0.196,4.442,0.147,8.896,0.203,13.345
		c-0.104,1.968-0.207,3.937-0.311,5.904L9.88,71.112C9.431,57.767,9.249,44.421,9.895,31.075z"/>
	<path fill-rule="evenodd" clip-rule="evenodd" fill="#0077C0" d="M24.932,123.092c-4.995-0.015-9.989-0.029-14.984-0.044
		c-0.09-1.484-0.249-2.969-0.258-4.453c-0.084-12.649,0.056-12.693,13.014-12.439c2.502,0.049,2.604,1.188,2.549,3.015
		C25.111,113.81,25.034,118.451,24.932,123.092z"/>
	<path fill-rule="evenodd" clip-rule="evenodd" fill="#0065B0" d="M9.935,94.874c-0.428-4.53-0.424-9.062-0.028-13.592
		c0.143-0.407,0.286-0.816,0.428-1.225c4.786-0.031,9.571-0.063,14.357-0.093c0.179,4.478,0.295,8.96,0.563,13.433
		c0.129,2.17-0.668,2.997-2.847,2.855c-4.127-0.269-8.264-0.391-12.396-0.572C10.067,95.404,10.041,95.135,9.935,94.874z"/>
	<path fill-rule="evenodd" clip-rule="evenodd" fill="#004A9B" d="M10.306,65.039c-0.055-4.449-0.007-8.902-0.203-13.345
		c-0.127-2.878,1.133-3.862,3.824-3.618c1.145,0.104,2.323,0.139,3.458-0.006c3.96-0.506,6.502,0.419,5.758,5.17
		c-0.086,0.551,0.416,1.194,0.645,1.796c0.078,3.353,0.156,6.705,0.234,10.058C19.45,65.076,14.878,65.058,10.306,65.039z"/>
	<path fill-rule="evenodd" clip-rule="evenodd" fill="#0053A1" d="M10.306,65.039c4.572,0.019,9.145,0.037,13.717,0.055
		c0.223,4.957,0.446,9.914,0.669,14.871c-4.786,0.03-9.571,0.062-14.358,0.093c-0.114-3.038-0.226-6.076-0.338-9.114
		C10.099,68.976,10.202,67.007,10.306,65.039z"/>
	<path fill-rule="evenodd" clip-rule="evenodd" fill="#0281C8" d="M9.935,94.874c0.106,0.261,0.132,0.53,0.077,0.807
		c-1.533,2.582-0.043,3.16,2.153,3.185c3.487,0.038,6.975,0.007,10.462,0.047c0.951,0.011,2.195-0.117,2.204,1.304
		c0.008,1.368-1.179,1.375-2.166,1.401c-3.648,0.097-7.306,0.028-10.941,0.288c-2.302,0.165-2.287,0.377-1.789,3.119
		C9.935,101.641,9.935,98.258,9.935,94.874z"/>
	<path fill-rule="evenodd" clip-rule="evenodd" fill="#F6F9F2" d="M241.097,139.283c0.306-0.123,0.617-0.229,0.935-0.317
		c0,15.009,0,30.018,0,45.026c-0.312-0.001-0.623-0.001-0.935-0.002C241.097,169.088,241.097,154.186,241.097,139.283z"/>
	<path fill-rule="evenodd" clip-rule="evenodd" fill="#006EB8" d="M241.048,74.018c-0.019-3.977-0.037-7.953-0.057-11.93
		c0.018-4.616,0.036-9.232,0.055-13.847c0.231-0.947,0.463-1.896,0.694-2.841c-0.008,9.557-0.016,19.11-0.022,28.663
		c0-0.001-0.337,0.009-0.337,0.009L241.048,74.018z"/>
	<path fill-rule="evenodd" clip-rule="evenodd" fill="#0281C8" d="M9.995,70.943c0.112,3.038,0.225,6.076,0.338,9.114
		c-0.141,0.408-0.284,0.817-0.427,1.225c-0.63-3.391-0.592-6.781-0.026-10.171C9.88,71.112,9.995,70.943,9.995,70.943z"/>
	<path fill-rule="evenodd" clip-rule="evenodd" fill="#FAFCF8" d="M473.086,65.961c-8.062,15.573-15.96,30.914-23.973,46.198
		c-0.844,1.61-1.376,3.306-3.842,3.168c-2.231-0.125-2.63-1.746-3.307-3.195c-6.614-14.154-13.204-28.32-19.795-42.485
		c-0.458-0.984-0.866-1.99-2.197-2.822c0,10.879,0.001,21.758,0,32.636c0,4.165-0.187,8.341,0.058,12.491
		c0.191,3.25-1.557,3.347-3.988,3.387c-2.572,0.043-3.908-0.39-3.887-3.493c0.129-19.157,0.056-38.316,0.083-57.475
		c0.002-1.381-0.488-3.607,1.765-3.32c3.135,0.399,7.114-2.267,9.274,2.324c2.9,6.165,5.956,12.255,8.876,18.41
		c4.769,10.057,9.482,20.14,14.502,30.814c5.021-9.713,9.785-18.976,14.596-28.215c3.533-6.784,7.436-13.397,10.583-20.354
		c2.003-4.427,5.43-3.156,8.454-2.994c3.562,0.19,1.904,3.34,1.916,5.093c0.13,18.921,0.081,37.843,0.915,57.013
		c3.037-7.445,6.077-14.891,9.111-22.338c5.017-12.313,10.09-24.606,14.994-36.965c0.982-2.477,2.463-3.122,4.92-2.988
		c2.092,0.114,3.678,0.15,4.595,2.653c7.315,19.972,14.79,39.886,22.189,59.827c0.161,0.433,0.021,0.978,0.021,1.532
		c-0.478,0.13-0.941,0.343-1.416,0.372c-8.49,0.52-8.491,0.515-11.213-7.322c-4.037-11.629-4.037-11.629-16.096-11.629
		c-11.95,0-11.95,0-16.018,11.145c-0.627,1.718-1.437,3.391-1.854,5.158c-0.535,2.275-1.914,2.784-4.013,2.727
		c-3.824-0.107-7.669-0.242-11.476,0.035c-3.195,0.232-3.873-0.981-3.845-3.97C473.163,96.24,473.086,81.101,473.086,65.961z
		 M510.837,61.933c-2.991,8.378-5.915,16.441-8.716,24.549c-0.402,1.166-2.48,3.333,1.007,3.389
		c5.516,0.089,11.034,0.024,16.923,0.024C516.839,80.146,513.859,71.101,510.837,61.933z"/>
	<path fill-rule="evenodd" clip-rule="evenodd" fill="#F6F9F2" d="M668.438,83.232c0-9.333,0.155-18.67-0.079-27.997
		c-0.09-3.586,1.13-4.583,4.555-4.403c8.803,0.462,17.69-0.814,26.427,0.882c15.063,2.926,24.059,12.467,24.765,25.907
		c0.976,18.567-6.44,30.732-21.654,35.672c-10.43,3.386-21.162,1.563-31.764,1.954c-2.992,0.11-2.21-2.365-2.221-4.016
		C668.408,101.899,668.438,92.565,668.438,83.232z M677.754,82.787c0,3.828,0,7.655,0,11.482c0,15.915,0.007,15.969,16.105,13.851
		c9.434-1.24,16.04-6.125,18.697-15.531c1.739-6.157,2.17-12.396,0.68-18.728c-1.801-7.654-6.461-12.495-13.887-14.865
		c-5.857-1.869-11.887-0.915-17.836-1.292c-3.262-0.206-3.868,1.268-3.808,4.116C677.857,68.807,677.755,75.798,677.754,82.787z"/>
	<path fill-rule="evenodd" clip-rule="evenodd" fill="#F6F9F2" d="M314.093,136.202c5.139-0.21,11.311-0.028,17.349,1.311
		c13.37,2.965,21.734,12.056,22.736,24.433c1.405,17.361-5.114,29.695-18.639,35.13c-11.051,4.44-22.666,2.72-34.094,3.017
		c-1.938,0.051-2.002-1.318-2.002-2.717c0.001-19.494,0.019-38.988-0.021-58.482c-0.004-2.296,1.157-2.766,3.137-2.716
		C306.057,136.266,309.557,136.202,314.093,136.202z M308.754,168.105c0,3.989,0,7.979,0,11.969
		c0,14.383,0.008,14.459,14.561,12.964c8.26-0.848,15.074-4.285,18.498-12.328c3.012-7.076,3.405-14.538,1.67-21.985
		c-1.88-8.064-7.241-12.721-15.197-14.731c-5.1-1.289-10.253-0.566-15.369-0.924c-3.186-0.224-4.36,0.725-4.237,4.094
		C308.932,154.136,308.755,161.123,308.754,168.105z"/>
	<path fill-rule="evenodd" clip-rule="evenodd" fill="#FAFCF8" d="M791.286,82.781c-0.098,19.951-13.378,33.899-32.225,33.847
		c-18.893-0.054-32.166-14.315-32.15-34.545c0.015-19.057,13.652-32.313,33.103-32.178
		C778.395,50.032,791.378,63.683,791.286,82.781z M781.237,81.829c0.178-4.178-0.795-8.854-2.896-13.29
		c-3.815-8.055-10.488-12.059-19.103-12.092c-8.391-0.032-15.136,3.653-18.912,11.546c-4.937,10.316-4.304,20.64,0.615,30.738
		c3.642,7.475,10.141,11.004,18.162,11.056c8.049,0.051,14.378-3.588,18.259-10.923C780.061,93.763,781.247,88.308,781.237,81.829z"
		/>
	<path fill-rule="evenodd" clip-rule="evenodd" fill="#FAFCF8" d="M750.869,201.104c-18.857-0.064-31.716-13.976-31.649-34.242
		c0.058-17.921,13.753-31.6,31.684-31.645c18.084-0.046,32.012,13.819,32.068,31.924
		C783.033,187.051,769.689,201.168,750.869,201.104z M750.375,194.36c8.911,0.188,15.39-3.79,19.113-11.813
		c3.935-8.476,4.573-17.294,1.446-26.204c-3.147-8.971-10.405-14.238-19.542-14.356c-9.503-0.122-16.918,4.952-20.214,14.105
		c-3.393,9.421-2.617,18.672,1.932,27.531C736.678,190.573,742.493,194.193,750.375,194.36z"/>
	<path fill-rule="evenodd" clip-rule="evenodd" fill="#FAFCF8" d="M650.908,167.897c0-9.151,0.114-18.305-0.063-27.452
		c-0.062-3.135,0.648-4.427,4.095-4.303c9.128,0.33,18.331-0.594,27.364,1.271c14.912,3.076,23.683,13.983,23.615,29.04
		c-0.078,17.237-9.589,29.287-25.722,32.591c-8.9,1.823-17.913,0.752-26.872,1.071c-3.112,0.11-2.39-2.095-2.396-3.767
		C650.886,186.865,650.908,177.381,650.908,167.897z M659.973,167.597c0,4.833,0,9.667,0,14.5c0,11.329,0,11.329,11.584,11.117
		c11.2-0.204,18.974-4.944,22.098-13.869c1.88-5.369,2.685-10.95,1.833-16.689c-1.86-12.542-9.148-19.117-21.84-19.533
		c-2.996-0.098-6.021,0.216-8.993-0.078c-3.605-0.355-4.99,0.632-4.779,4.559C660.233,154.25,659.973,160.931,659.973,167.597z"/>
	<path fill-rule="evenodd" clip-rule="evenodd" fill="#F6F9F2" d="M543.203,83.051c0-9.498,0.091-18.997-0.056-28.493
		c-0.043-2.809,0.789-3.83,3.663-3.723c5.158,0.192,10.33-0.009,15.494,0.068c8.923,0.133,14.925,3.686,17.327,10.135
		c2.717,7.293,0.774,17.063-5.459,21.909c-3.954,3.073-3.384,5.183-1.1,8.694c3.806,5.853,7.235,11.96,10.579,18.093
		c0.678,1.243,3.922,3.526,0.102,4.467c-2.641,0.65-5.919,4.649-8.548-0.222c-3.634-6.733-7.545-13.341-10.74-20.277
		c-1.866-4.052-4.383-5.093-8.506-4.821c-2.773,0.182-3.28,1.252-3.239,3.648c0.107,6.329-0.236,12.678,0.125,18.989
		c0.257,4.498-2.522,3.704-5.127,3.796c-2.687,0.096-4.738,0.163-4.613-3.773C543.406,102.053,543.203,92.549,543.203,83.051z
		 M552.759,69.62c0,3.152,0.003,6.304-0.001,9.456c-0.002,1.537-0.015,2.714,2.183,3.05c9.239,1.409,16.935-5.761,15.829-14.979
		c-0.881-7.347-4.96-10.106-14.618-9.341c-6.805,0.54-2.028,5.953-3.34,8.854C552.438,67.486,552.754,68.625,552.759,69.62z"/>
	<path fill-rule="evenodd" clip-rule="evenodd" fill="#FAFCF8" d="M408.332,114.821c-2.773,0.9-5.439,0.243-8.048,0.462
		c-1.854,0.156-2.727-0.819-3.143-2.483c-0.2-0.802-0.519-1.579-0.833-2.348c-1.873-4.576-1.72-11.161-5.609-13.383
		c-3.799-2.17-9.691-0.741-14.666-0.771c-8.7-0.054-8.703-0.016-11.671,8.123c-0.968,2.654-2.042,5.279-2.846,7.983
		c-0.607,2.046-1.616,2.866-3.859,2.943c-6.229,0.215-6.381,0.104-4.023-5.676c7.463-18.301,14.949-36.591,22.32-54.929
		c1.028-2.56,2.119-3.929,5.269-3.988c3.356-0.063,4.12,1.673,5.042,4.177c7.001,19.014,14.103,37.991,21.163,56.983
		C407.767,112.828,408.009,113.776,408.332,114.821z M389.112,89.904c-3.125-9.479-6.09-18.473-9.218-27.959
		c-3.101,8.681-5.867,16.679-8.841,24.599c-0.946,2.519-0.834,3.531,2.234,3.414C378.396,89.762,383.518,89.904,389.112,89.904z"/>
	<path fill-rule="evenodd" clip-rule="evenodd" fill="#FAFCF8" d="M642.842,114.896c-0.45,0.114-0.92,0.316-1.4,0.344
		c-8.369,0.477-8.369,0.472-11.132-7.337c-4.111-11.62-4.111-11.62-16.587-11.62c-11.568,0-11.568,0-15.566,11.074
		c-0.676,1.871-1.299,3.764-2.041,5.608c-1.747,4.336-5.662,2.501-8.17,1.959c-2.553-0.552-0.238-3.071,0.317-4.454
		c7.483-18.634,15.151-37.193,22.62-55.834c1.065-2.659,2.269-3.849,5.329-3.862c3.023-0.015,3.961,1.423,4.844,3.812
		c6.907,18.675,13.918,37.311,20.821,55.986C642.371,111.908,643.369,113.226,642.842,114.896z M614.788,61.888
		c-3.035,8.545-5.784,16.681-8.849,24.695c-1.059,2.769-0.536,3.443,2.298,3.362c5.087-0.146,10.18-0.041,15.712-0.041
		C620.828,80.36,617.867,71.305,614.788,61.888z"/>
	<path fill-rule="evenodd" clip-rule="evenodd" fill="#FCFDFC" d="M524.275,160.083c0.001,5.163,0.031,10.327-0.005,15.489
		c-0.128,18.192-12.154,28.266-30.094,25.229c-11.951-2.022-18.633-9.19-18.97-21.419c-0.365-13.314,0.017-26.648-0.184-39.97
		c-0.06-3.946,2.37-3.168,4.58-3.174c2.223-0.007,4.637-0.747,4.568,3.188c-0.205,11.822-0.059,23.65-0.084,35.476
		c-0.006,2.677,0.203,5.299,0.836,7.917c1.898,7.859,7.015,12.04,14.931,12.061c7.823,0.02,13.551-4.672,15.254-12.465
		c1.298-5.932,0.735-11.944,0.79-17.926c0.076-8.327,0.178-16.66-0.049-24.981c-0.104-3.842,2.237-3.184,4.541-3.313
		c2.528-0.143,4.043,0.24,3.947,3.404C524.13,146.421,524.274,153.254,524.275,160.083z"/>
	<path fill-rule="evenodd" clip-rule="evenodd" fill="#FAFCF8" d="M582.471,199.715c2.167-5.316,4.292-10.522,6.411-15.73
		c6.014-14.774,12.082-29.528,17.982-44.348c1.005-2.525,2.232-3.57,5.064-3.53c2.719,0.039,3.681,1.194,4.537,3.515
		c7.014,19.022,14.112,38.014,21.297,56.972c1.102,2.905,0.447,3.361-2.55,3.643c-5.09,0.478-7.513-1.159-9.113-6.229
		c-4.045-12.815-4.335-12.724-17.702-12.724c-10.279,0-10.28-0.001-13.747,9.465c-0.285,0.78-0.554,1.568-0.839,2.35
		C591.065,200.629,591.064,200.629,582.471,199.715z M610.522,147.362c-3.077,8.555-6.001,16.803-9.025,25.014
		c-0.837,2.272,0.268,2.551,2.078,2.535c3.983-0.034,7.973-0.134,11.949,0.033c3.12,0.132,4.126-0.44,2.862-3.869
		C615.583,163.471,613.25,155.693,610.522,147.362z"/>
	<path fill-rule="evenodd" clip-rule="evenodd" fill="#FAFCF8" d="M327.432,116.552c-14.407-0.301-26.041-8.21-30.512-22.131
		c-4.652-14.487-0.128-29.206,11.635-37.854c10.963-8.061,28.314-9.194,39.19-2.49c1.51,0.931,4.054,1.544,2.054,4.334
		c-1.436,2.004-1.995,3.959-5.568,1.976c-12.868-7.143-26.906-4.323-34.308,6.248c-7.508,10.723-5.744,27.68,3.812,36.654
		c7.619,7.157,19.313,8.769,29.699,3.264c3.841-2.035,4.608,0.153,5.875,2.377c1.851,3.246-1.625,3.151-2.918,3.822
		C341.152,115.469,335.415,116.438,327.432,116.552z"/>
	<path fill-rule="evenodd" clip-rule="evenodd" fill="#FCFDFC" d="M423.094,168.238c0-9.161,0.209-18.331-0.1-27.482
		c-0.131-3.886,1.137-4.873,4.779-4.593c5.629,0.432,11.292-0.247,16.94,0.675c7.48,1.222,13.27,4.391,15.36,12.193
		c2.25,8.398-0.094,15.513-6.715,21.033c-4.358,3.634-9.599,5.198-15.288,5.209c-2.035,0.004-3.954,0.313-3.925-2.894
		c0.024-2.792,1.267-3.143,3.625-3.354c9.457-0.85,14.225-6.592,13.287-15.66c-0.773-7.487-11.559-13.59-17.973-10.146
		c-1.755,0.942-0.943,2.675-0.948,4.028c-0.061,16.158-0.206,32.319,0.075,48.473c0.072,4.104-1.486,4.414-4.862,4.504
		c-3.611,0.097-4.429-1.074-4.339-4.501C423.251,186.566,423.094,177.4,423.094,168.238z"/>
	<path fill-rule="evenodd" clip-rule="evenodd" fill="#FAFCF8" d="M389.482,200.103c-4.828-0.001-9.658-0.104-14.481,0.044
		c-2.389,0.073-3.143-0.742-3.133-3.125c0.076-19.144,0.079-38.287-0.003-57.43c-0.011-2.593,0.813-3.467,3.431-3.424
		c8.32,0.136,16.647,0.159,24.967-0.006c3.057-0.061,2.984,1.62,3.068,3.783c0.088,2.295-0.538,3.285-3.046,3.207
		c-5.321-0.164-10.656,0.08-15.977-0.102c-2.633-0.09-3.495,0.763-3.381,3.384c0.233,5.309-1.798,12.204,0.816,15.514
		c2.754,3.487,9.968,0.691,15.207,1.153c1.931,0.17,4.381-0.953,5.64,0.79c0.793,1.099,0.468,3.236,0.18,4.824
		c-0.337,1.851-2.117,1.209-3.325,1.226c-4.993,0.069-9.99,0.125-14.98-0.01c-2.428-0.065-3.641,0.443-3.545,3.248
		c0.191,5.653,0.152,11.319,0.013,16.977c-0.06,2.43,0.846,3.141,3.18,3.099c6.49-0.117,12.986,0.074,19.475-0.091
		c2.752-0.07,3.753,0.688,3.801,3.604c0.052,3.162-1.423,3.445-3.924,3.373C398.806,200.008,394.142,200.104,389.482,200.103z"/>
	<path fill-rule="evenodd" clip-rule="evenodd" fill="#FAFCF8" d="M814.373,49.903c4.066-0.324,8.407,0.749,12.166,3.457
		c1.295,0.933,4.267,1.756,2.046,4.446c-1.525,1.848-2.718,4.132-5.936,1.621c-3.151-2.46-7.013-3.654-11.259-2.54
		c-6.596,1.73-8.874,8.241-4.566,13.553c2.755,3.396,6.379,5.827,9.866,8.392c3.897,2.867,7.685,5.85,10.496,9.87
		c6.948,9.934,3.469,21.97-7.877,26.145c-8.274,3.045-16.387,1.993-23.899-2.692c-1.48-0.923-4.018-1.673-1.796-4.398
		c1.563-1.919,2.407-4.355,5.7-1.855c3.904,2.964,8.446,4.61,13.56,3.558c7.458-1.536,10.754-8.552,7.075-15.238
		c-1.72-3.127-4.384-5.411-7.21-7.504c-3.209-2.376-6.55-4.591-9.633-7.12c-7.053-5.787-9.484-12.683-7.001-19.192
		C798.617,53.818,805.159,49.934,814.373,49.903z"/>
	<path fill-rule="evenodd" clip-rule="evenodd" fill="#FAFCF8" d="M808.142,201.091c-3.16-0.073-8.296-1.677-13.021-4.761
		c-2.104-1.373-2.05-2.679-0.484-4.372c1.24-1.341,1.823-3.775,4.521-1.703c3.212,2.467,6.878,4.062,11.034,4.086
		c4.162,0.024,8.113-0.703,10.14-4.899c2.051-4.247,1.531-8.384-1.371-12.155c-2.159-2.804-4.974-4.874-7.79-6.95
		c-3.075-2.269-6.216-4.466-9.137-6.922c-5.155-4.335-7.346-10.001-5.619-16.522c1.701-6.426,6.69-9.598,12.947-11.032
		c6.731-1.543,12.85-0.208,18.422,3.778c1.21,0.866,2.67,1.898,0.961,3.473c-1.29,1.188-1.875,3.927-4.645,2.447
		c-1.898-1.015-3.771-2.148-5.783-2.868c-4.757-1.7-9.803-0.222-12.039,3.303c-2.346,3.699-1.598,7.434,2.66,11.436
		c2.535,2.383,5.394,4.422,8.104,6.618c2.194,1.779,4.523,3.419,6.551,5.371c5.915,5.695,9.084,12.374,6.113,20.649
		C827.305,196.757,819.439,201.147,808.142,201.091z"/>
	<path fill-rule="evenodd" clip-rule="evenodd" fill="#FCFDFC" d="M555.093,171.612c0-8.318-0.114-16.639,0.063-24.953
		c0.061-2.844-0.781-3.775-3.629-3.62c-4.147,0.226-8.318-0.026-12.474,0.088c-2.577,0.071-4.382,0.033-4.257-3.544
		c0.11-3.136,1.498-3.407,4.002-3.394c13.975,0.077,27.95,0.116,41.923-0.025c2.949-0.03,3.598,1.03,3.641,3.752
		c0.045,2.817-1.125,3.308-3.557,3.223c-4.32-0.152-8.665,0.18-12.97-0.115c-3.237-0.222-3.824,1.022-3.801,3.965
		c0.132,16.303-0.056,32.608,0.154,48.909c0.047,3.661-1.169,4.403-4.512,4.302c-3.042-0.092-4.854-0.161-4.687-4.136
		C555.333,187.927,555.094,179.765,555.093,171.612z"/>
	<path fill-rule="evenodd" clip-rule="evenodd" fill="#FAFCF8" d="M394.289,45.664c-3.521,1.241-5.75,0.433-7.987-1.821
		c-6.26-6.307-6.45-6.32-12.503-0.106c-2.238,2.297-4.487,3.033-8.107,2.063c3.686-4.517,6.813-9.018,10.657-12.789
		c1.982-1.946,5.519-1.926,7.647,0.317C387.608,37.134,390.759,41.379,394.289,45.664z"/>
	<path fill-rule="evenodd" clip-rule="evenodd" fill="#54AF33" d="M510.837,61.933c3.021,9.168,6.002,18.214,9.214,27.962
		c-5.889,0-11.407,0.064-16.923-0.024c-3.487-0.056-1.409-2.223-1.007-3.389C504.922,78.374,507.846,70.311,510.837,61.933z"/>
	<path fill-rule="evenodd" clip-rule="evenodd" fill="#54AF33" d="M677.755,82.787c0-6.989,0.102-13.98-0.049-20.967
		c-0.061-2.849,0.546-4.322,3.808-4.116c5.949,0.377,11.979-0.577,17.836,1.292c7.426,2.37,12.086,7.211,13.887,14.865
		c1.49,6.331,1.06,12.57-0.68,18.728c-2.657,9.406-9.264,14.291-18.697,15.531c-16.099,2.118-16.105,2.064-16.105-13.851
		C677.754,90.442,677.754,86.615,677.755,82.787z"/>
	<path fill-rule="evenodd" clip-rule="evenodd" fill="#54AF33" d="M308.754,168.105c0.001-6.982,0.178-13.97-0.075-20.942
		c-0.123-3.369,1.052-4.317,4.237-4.094c5.116,0.357,10.27-0.365,15.369,0.924c7.956,2.011,13.317,6.667,15.197,14.731
		c1.735,7.447,1.342,14.909-1.67,21.985c-3.424,8.043-10.238,11.48-18.498,12.328c-14.553,1.495-14.561,1.419-14.561-12.964
		C308.754,176.084,308.754,172.095,308.754,168.105z"/>
	<path fill-rule="evenodd" clip-rule="evenodd" fill="#54AF33" d="M781.237,81.829c0.01,6.479-1.176,11.934-3.875,17.035
		c-3.881,7.335-10.21,10.974-18.259,10.923c-8.021-0.052-14.521-3.581-18.162-11.056c-4.919-10.099-5.552-20.422-0.615-30.738
		c3.776-7.893,10.521-11.578,18.912-11.546c8.614,0.033,15.287,4.037,19.103,12.092C780.442,72.976,781.415,77.651,781.237,81.829z"
		/>
	<path fill-rule="evenodd" clip-rule="evenodd" fill="#54AF33" d="M750.375,194.36c-7.882-0.167-13.696-3.787-17.265-10.737
		c-4.549-8.859-5.324-18.11-1.932-27.531c3.296-9.153,10.711-14.228,20.214-14.105c9.137,0.118,16.395,5.386,19.542,14.356
		c3.127,8.91,2.488,17.729-1.446,26.204C765.764,190.57,759.286,194.548,750.375,194.36z"/>
	<path fill-rule="evenodd" clip-rule="evenodd" fill="#54AF33" d="M659.973,167.597c0-6.666,0.26-13.347-0.098-19.994
		c-0.211-3.927,1.174-4.914,4.779-4.559c2.972,0.294,5.997-0.02,8.993,0.078c12.691,0.416,19.979,6.991,21.84,19.533
		c0.852,5.739,0.047,11.32-1.833,16.689c-3.124,8.925-10.897,13.665-22.098,13.869c-11.584,0.212-11.584,0.212-11.584-11.117
		C659.973,177.264,659.973,172.43,659.973,167.597z"/>
	<path fill-rule="evenodd" clip-rule="evenodd" fill="#54AF33" d="M552.757,69.62c-0.003-0.995-0.319-2.134,0.055-2.96
		c1.312-2.9-3.465-8.313,3.34-8.854c9.658-0.766,13.737,1.994,14.618,9.341c1.105,9.218-6.59,16.388-15.829,14.979
		c-2.197-0.336-2.185-1.513-2.183-3.05C552.762,75.924,552.759,72.772,552.757,69.62z"/>
	<path fill-rule="evenodd" clip-rule="evenodd" fill="#54AF33" d="M389.112,89.904c-5.594,0-10.716-0.143-15.824,0.054
		c-3.068,0.117-3.181-0.896-2.234-3.414c2.974-7.92,5.74-15.918,8.841-24.599C383.022,71.432,385.987,80.425,389.112,89.904z"/>
	<path fill-rule="evenodd" clip-rule="evenodd" fill="#54AF33" d="M614.788,61.888c3.079,9.417,6.04,18.473,9.161,28.017
		c-5.532,0-10.625-0.105-15.712,0.041c-2.834,0.081-3.356-0.594-2.298-3.362C609.003,78.568,611.752,70.433,614.788,61.888z"/>
	<path fill-rule="evenodd" clip-rule="evenodd" fill="#54AF33" d="M610.522,147.362c2.729,8.331,5.061,16.108,7.864,23.713
		c1.264,3.429,0.258,4.001-2.862,3.869c-3.977-0.167-7.966-0.067-11.949-0.033c-1.811,0.016-2.915-0.263-2.078-2.535
		C604.521,164.165,607.445,155.917,610.522,147.362z"/>
</g>
</svg>
