<?xml version="1.0" encoding="utf-8"?>
<!-- Generator: Adobe Illustrator 16.0.0, SVG Export Plug-In . SVG Version: 6.00 Build 0)  -->
<!DOCTYPE svg PUBLIC "-//W3C//DTD SVG 1.1//EN" "http://www.w3.org/Graphics/SVG/1.1/DTD/svg11.dtd">
<svg version="1.1" id="Layer_1" xmlns="http://www.w3.org/2000/svg" xmlns:xlink="http://www.w3.org/1999/xlink" x="0px" y="0px"
	 width="248px" height="173.5px" viewBox="0 0 248 173.5" enable-background="new 0 0 248 173.5" xml:space="preserve">
<g>
	<path fill="#4D4D4E" d="M195.953,39.963c4.67,0,9.103,0.907,13.299,2.717c4.194,1.813,7.865,4.29,11.011,7.436
		c3.146,3.146,5.648,6.817,7.508,11.012c1.859,4.196,2.788,8.722,2.788,13.584c0,4.766-0.907,9.222-2.717,13.368
		c-1.812,4.147-4.268,7.794-7.364,10.939c-3.1,3.146-6.746,5.626-10.939,7.437c-4.196,1.81-8.723,2.717-13.585,2.717
		c-4.769,0-9.248-0.858-13.442-2.574c-4.196-1.716-7.865-4.122-11.011-7.222c-3.146-3.097-5.626-6.743-7.436-10.939
		c-1.813-4.193-2.718-8.77-2.718-13.726c0-4.767,0.881-9.223,2.646-13.37c1.764-4.146,4.194-7.769,7.293-10.867
		c3.098-3.098,6.769-5.577,11.012-7.437C186.537,41.178,191.091,40.155,195.953,39.963z M195.953,58.695
		c-2.194,0-4.243,0.407-6.149,1.216c-1.908,0.812-3.6,1.931-5.076,3.36c-1.479,1.431-2.646,3.124-3.504,5.077
		c-0.857,1.954-1.287,4.074-1.287,6.362c0,2.193,0.43,4.266,1.287,6.219c0.858,1.955,2.024,3.671,3.504,5.147
		c1.477,1.479,3.168,2.646,5.076,3.504c1.906,0.857,3.955,1.287,6.149,1.287c2.191,0,4.266-0.43,6.221-1.287
		c1.952-0.858,3.646-2.024,5.076-3.504c1.43-1.477,2.574-3.192,3.432-5.147c0.858-1.953,1.287-4.025,1.287-6.219
		c-0.192-4.384-1.765-8.102-4.719-11.153C204.294,60.508,200.529,58.888,195.953,58.695z"/>
</g>
<path fill="#54AF47" d="M204.16,71.804c-0.301,2.182-2.152,3.866-4.417,3.866c-2.474,0-4.479-2.004-4.479-4.478
	c0-2.431,1.941-4.4,4.358-4.465c-1.116-0.523-2.356-0.825-3.671-0.825c-4.786,0-8.666,3.88-8.666,8.665s3.88,8.664,8.666,8.664
	s8.666-3.879,8.666-8.664C204.618,73.6,204.453,72.673,204.16,71.804z"/>
<path fill="#4D4D4E" d="M65.369,90.868H51.921c-2.146-0.017-4.153-0.446-6.022-1.287c-1.908-0.858-3.6-2.024-5.076-3.504
	c-0.665-0.664-1.258-1.384-1.797-2.145h26.066c-0.002,0.003-0.005,0.006-0.007,0.009h20.317c0.827-2.937,1.251-6.012,1.251-9.23
	c0-4.862-0.929-9.388-2.788-13.584c-1.859-4.194-4.361-7.865-7.508-11.012c-3.146-3.146-6.816-5.623-11.011-7.436
	c-4.196-1.81-8.629-2.717-13.299-2.717c-4.862,0.192-9.416,1.215-13.656,3.074c-4.243,1.859-7.914,4.339-11.012,7.437
	c-3.099,3.099-5.529,6.721-7.293,10.867c-1.765,4.147-2.646,8.604-2.646,13.37c0,4.956,0.905,9.532,2.718,13.726
	c1.81,4.196,4.289,7.843,7.436,10.939c3.146,3.1,6.814,5.506,11.011,7.222c4.194,1.716,8.674,2.574,13.442,2.574h13.321V90.868z
	 M40.822,63.271c1.477-1.43,3.168-2.549,5.076-3.36c1.906-0.809,3.955-1.216,6.149-1.216c4.576,0.192,8.341,1.813,11.297,4.862
	c0.51,0.526,0.963,1.08,1.39,1.646H39.152C39.659,64.518,40.207,63.866,40.822,63.271z"/>
<path fill="none" d="M110.561,106.598c-4.196-1.716-7.865-4.122-11.011-7.222c-2.521-2.481-4.606-5.321-6.269-8.508H68.369v18.304
	h55.633l0,0C119.234,109.172,114.755,108.313,110.561,106.598z"/>
<path fill="#54AF47" d="M127.003,90.868v18.176c3.735-0.3,7.266-1.157,10.585-2.589c4.193-1.811,7.84-4.29,10.939-7.437
	c3.097-3.146,5.553-6.792,7.364-10.939c1.429-3.274,2.286-6.744,2.587-10.405h0.002V77.65c0.079-0.968,0.128-1.945,0.128-2.939
	c0-1-0.049-1.982-0.128-2.955v-56.77h-18.534v28.97c-0.858-0.455-1.737-0.885-2.645-1.276c-4.196-1.81-8.629-2.717-13.299-2.717
	c-4.862,0.192-9.416,1.215-13.656,3.074c-4.243,1.859-7.914,4.339-11.012,7.437c-3.099,3.099-5.529,6.721-7.293,10.867
	c-1.765,4.147-2.646,8.604-2.646,13.37c0,4.734,0.836,9.119,2.49,13.157h23.012c-0.748-0.538-1.459-1.128-2.121-1.791
	c-1.479-1.477-2.646-3.192-3.504-5.147c-0.857-1.953-1.287-4.025-1.287-6.219c0-2.288,0.43-4.408,1.287-6.362
	c0.858-1.953,2.024-3.646,3.504-5.077c1.477-1.43,3.168-2.549,5.076-3.36c1.906-0.809,3.955-1.216,6.149-1.216
	c4.576,0.192,8.341,1.813,11.297,4.862c2.759,2.85,4.297,6.289,4.646,10.302v2.31c-0.149,1.658-0.55,3.247-1.215,4.761
	c-0.857,1.955-2.002,3.671-3.432,5.147c-1.43,1.479-3.124,2.646-5.076,3.504"/>
<rect x="68.369" y="90.868" fill="#54AF47" width="55.633" height="18.304"/>
<g>
	<path fill="#4D4D4E" d="M163.728,127.265c0.218,0.225,0.327,0.488,0.327,0.791c0,0.325-0.109,0.597-0.327,0.815
		c-0.219,0.219-0.485,0.328-0.8,0.328h-4.475c-0.292,0-0.553-0.109-0.782-0.328s-0.345-0.49-0.345-0.815v-8.462
		c0-0.292,0.106-0.556,0.319-0.791s0.482-0.353,0.808-0.353h4.475c0.314,0,0.581,0.111,0.8,0.336
		c0.218,0.225,0.327,0.494,0.327,0.808c0,0.325-0.109,0.595-0.327,0.808c-0.219,0.213-0.485,0.319-0.8,0.319h-3.364v1.632h2.237
		c0.303,0,0.566,0.112,0.791,0.336c0.224,0.225,0.336,0.494,0.336,0.808c0,0.314-0.112,0.581-0.336,0.8
		c-0.225,0.219-0.488,0.328-0.791,0.328h-2.237v2.304h3.364C163.242,126.928,163.509,127.04,163.728,127.265z"/>
	<path fill="#4D4D4E" d="M167.512,121.016c-0.185,0.196-0.283,0.439-0.294,0.731c0.011,0.258,0.109,0.479,0.294,0.664
		c0.186,0.186,0.412,0.277,0.682,0.277h1.144c0.415,0,0.816,0.085,1.203,0.253s0.731,0.401,1.035,0.698
		c0.303,0.297,0.543,0.645,0.723,1.043s0.27,0.821,0.27,1.27c0,0.438-0.084,0.853-0.253,1.245c-0.168,0.393-0.397,0.734-0.689,1.026
		s-0.634,0.524-1.026,0.698s-0.813,0.267-1.262,0.277h-2.994c-0.336,0-0.611-0.109-0.824-0.328s-0.319-0.49-0.319-0.815
		c0-0.303,0.109-0.566,0.328-0.791s0.49-0.337,0.815-0.337h2.994c0.258,0,0.488-0.095,0.69-0.285
		c0.201-0.191,0.303-0.421,0.303-0.69c0-0.28-0.099-0.513-0.295-0.698c-0.196-0.185-0.423-0.282-0.681-0.294h-1.161
		c-0.427-0.011-0.836-0.101-1.228-0.27c-0.394-0.168-0.738-0.395-1.035-0.681s-0.535-0.625-0.715-1.018s-0.27-0.819-0.27-1.279
		c0-0.414,0.085-0.818,0.253-1.211s0.4-0.74,0.698-1.043c0.297-0.303,0.642-0.547,1.034-0.731c0.393-0.186,0.813-0.277,1.262-0.277
		h2.994c0.303,0,0.561,0.108,0.774,0.327c0.213,0.219,0.33,0.491,0.353,0.816c0,0.325-0.106,0.595-0.319,0.808
		s-0.482,0.319-0.808,0.319h-2.994C167.924,120.721,167.697,120.819,167.512,121.016z"/>
	<path fill="#4D4D4E" d="M180.499,118.786c0.219,0.225,0.328,0.494,0.328,0.808c0,0.325-0.109,0.595-0.328,0.808
		s-0.491,0.319-0.816,0.319h-1.548v7.335c0,0.325-0.106,0.597-0.319,0.815s-0.482,0.328-0.808,0.328s-0.595-0.109-0.808-0.328
		s-0.319-0.49-0.319-0.815v-7.335h-1.564c-0.314,0-0.58-0.106-0.799-0.319s-0.328-0.482-0.328-0.808
		c0-0.313,0.109-0.583,0.328-0.808s0.484-0.336,0.799-0.336h5.366C180.008,118.45,180.28,118.562,180.499,118.786z"/>
	<path fill="#4D4D4E" d="M187.926,121.78l0.017,0.034v0.017v1.346v2.288v2.607c0,0.313-0.109,0.58-0.328,0.799
		s-0.485,0.328-0.799,0.328c-0.325,0-0.598-0.109-0.816-0.328s-0.328-0.485-0.328-0.799v-1.969h-2.203v1.969
		c0,0.313-0.112,0.58-0.337,0.799s-0.499,0.328-0.824,0.328c-0.313,0-0.577-0.109-0.79-0.328c-0.214-0.219-0.32-0.485-0.32-0.799
		v-2.607v-2.288v-1.346v-0.017v-0.034c0-0.459,0.09-0.892,0.27-1.295c0.18-0.404,0.421-0.757,0.724-1.06s0.658-0.541,1.068-0.715
		c0.409-0.174,0.844-0.261,1.304-0.261c0.459,0,0.894,0.087,1.304,0.261c0.409,0.174,0.765,0.412,1.067,0.715
		c0.304,0.303,0.544,0.655,0.724,1.06C187.836,120.889,187.926,121.321,187.926,121.78z M185.671,121.831
		c0-0.303-0.108-0.563-0.327-0.782s-0.479-0.328-0.782-0.328c-0.304,0-0.562,0.109-0.774,0.328s-0.319,0.479-0.319,0.782v2.002
		h2.203V121.831z"/>
	<path fill="#4D4D4E" d="M196.841,118.45c0.46,0,0.892,0.09,1.296,0.269c0.403,0.18,0.757,0.427,1.06,0.74
		c0.303,0.314,0.547,0.676,0.731,1.085c0.186,0.41,0.289,0.85,0.312,1.32v6.191c0,0.325-0.112,0.597-0.337,0.815
		c-0.224,0.219-0.487,0.328-0.79,0.328c-0.325,0-0.598-0.109-0.816-0.328s-0.328-0.49-0.328-0.815v-6.057
		c0-0.325-0.109-0.597-0.327-0.815c-0.219-0.219-0.485-0.328-0.8-0.328c-0.313,0-0.583,0.109-0.808,0.328
		c-0.224,0.219-0.336,0.49-0.336,0.815v6.057c0,0.325-0.109,0.597-0.328,0.815s-0.485,0.328-0.799,0.328
		c-0.314,0-0.581-0.109-0.799-0.328c-0.219-0.219-0.328-0.49-0.328-0.815v-6.057c0-0.325-0.109-0.597-0.328-0.815
		s-0.491-0.328-0.816-0.328c-0.313,0-0.58,0.109-0.799,0.328s-0.328,0.49-0.328,0.815v6.057c0,0.325-0.109,0.597-0.328,0.815
		s-0.49,0.328-0.815,0.328c-0.314,0-0.581-0.109-0.8-0.328c-0.218-0.219-0.327-0.49-0.327-0.815v-6.191
		c0-0.437,0.086-0.863,0.261-1.278c0.173-0.414,0.414-0.779,0.723-1.093c0.309-0.314,0.67-0.566,1.085-0.758
		c0.415-0.19,0.858-0.285,1.329-0.285c0.427,0,0.827,0.078,1.203,0.235s0.731,0.37,1.068,0.639c0.325-0.258,0.675-0.468,1.051-0.631
		C195.997,118.531,196.403,118.45,196.841,118.45z"/>
	<path fill="#4D4D4E" d="M204.967,118.45c0.516,0,0.998,0.098,1.446,0.294c0.449,0.196,0.844,0.469,1.187,0.815
		c0.342,0.349,0.616,0.752,0.824,1.212c0.207,0.46,0.322,0.959,0.345,1.497v3.095c-0.022,0.505-0.132,0.99-0.328,1.456
		c-0.196,0.465-0.463,0.874-0.799,1.228c-0.337,0.354-0.731,0.634-1.187,0.841c-0.454,0.208-0.95,0.312-1.488,0.312
		c-0.516,0-1.001-0.098-1.455-0.294s-0.855-0.469-1.203-0.816s-0.625-0.754-0.832-1.22c-0.208-0.465-0.323-0.967-0.346-1.506v-3.095
		c0.012-0.505,0.118-0.99,0.32-1.455c0.201-0.466,0.474-0.872,0.815-1.22s0.746-0.625,1.211-0.833
		C203.943,118.554,204.439,118.45,204.967,118.45z M204.967,126.928c0.213,0,0.412-0.039,0.598-0.117
		c0.185-0.078,0.347-0.19,0.487-0.337c0.141-0.146,0.252-0.311,0.337-0.496c0.084-0.185,0.126-0.39,0.126-0.614v-3.095
		c0-0.213-0.042-0.415-0.126-0.605c-0.085-0.19-0.196-0.356-0.337-0.496c-0.141-0.141-0.303-0.25-0.487-0.328
		c-0.186-0.079-0.385-0.118-0.598-0.118c-0.225,0-0.429,0.039-0.614,0.118c-0.185,0.078-0.351,0.188-0.496,0.328
		c-0.146,0.14-0.258,0.306-0.336,0.496c-0.079,0.19-0.118,0.393-0.118,0.605v3.095c0,0.438,0.151,0.808,0.454,1.11
		S204.529,126.928,204.967,126.928z"/>
	<path fill="#4D4D4E" d="M212.141,121.016c-0.185,0.196-0.283,0.439-0.294,0.731c0.011,0.258,0.109,0.479,0.294,0.664
		c0.186,0.186,0.412,0.277,0.682,0.277h1.144c0.415,0,0.816,0.085,1.203,0.253s0.731,0.401,1.035,0.698
		c0.303,0.297,0.543,0.645,0.723,1.043s0.27,0.821,0.27,1.27c0,0.438-0.084,0.853-0.253,1.245c-0.168,0.393-0.397,0.734-0.689,1.026
		s-0.634,0.524-1.026,0.698s-0.813,0.267-1.262,0.277h-2.994c-0.336,0-0.611-0.109-0.824-0.328s-0.319-0.49-0.319-0.815
		c0-0.303,0.109-0.566,0.328-0.791s0.49-0.337,0.815-0.337h2.994c0.258,0,0.488-0.095,0.69-0.285
		c0.201-0.191,0.303-0.421,0.303-0.69c0-0.28-0.099-0.513-0.295-0.698c-0.196-0.185-0.423-0.282-0.681-0.294h-1.161
		c-0.427-0.011-0.836-0.101-1.228-0.27c-0.394-0.168-0.738-0.395-1.035-0.681s-0.535-0.625-0.715-1.018s-0.27-0.819-0.27-1.279
		c0-0.414,0.085-0.818,0.253-1.211s0.4-0.74,0.698-1.043c0.297-0.303,0.642-0.547,1.034-0.731c0.393-0.186,0.813-0.277,1.262-0.277
		h2.994c0.303,0,0.561,0.108,0.774,0.327c0.213,0.219,0.33,0.491,0.353,0.816c0,0.325-0.106,0.595-0.319,0.808
		s-0.482,0.319-0.808,0.319h-2.994C212.553,120.721,212.326,120.819,212.141,121.016z"/>
</g>
<g>
	<path fill="#4D4D4E" d="M38.899,118.665c1.138,0,2.237,0.232,3.298,0.698c1.061,0.466,1.999,1.093,2.813,1.882
		s1.461,1.721,1.94,2.794c0.478,1.074,0.718,2.219,0.718,3.435s-0.227,2.36-0.679,3.434c-0.453,1.074-1.067,2.012-1.843,2.813
		c-0.776,0.803-1.701,1.436-2.774,1.901c-1.074,0.466-2.231,0.699-3.473,0.699c-0.595,0-1.197-0.098-1.804-0.291
		c-0.608-0.194-1.197-0.511-1.766-0.951v5.743c0,0.751-0.259,1.378-0.776,1.882c-0.518,0.505-1.139,0.757-1.863,0.757
		s-1.338-0.252-1.843-0.757c-0.504-0.504-0.756-1.131-0.756-1.882v-13.349c0.025-1.139,0.271-2.237,0.737-3.299
		c0.465-1.061,1.099-1.998,1.901-2.813c0.801-0.814,1.727-1.468,2.774-1.959S37.683,118.665,38.899,118.665z M38.899,131.082
		c0.983,0,1.824-0.343,2.522-1.028c0.698-0.685,1.047-1.545,1.047-2.58c0-0.491-0.097-0.957-0.291-1.397
		c-0.194-0.439-0.453-0.82-0.776-1.145c-0.324-0.323-0.699-0.575-1.125-0.757c-0.427-0.181-0.886-0.271-1.377-0.271
		c-0.492,0-0.958,0.091-1.397,0.271c-0.44,0.182-0.822,0.434-1.145,0.757c-0.324,0.324-0.576,0.705-0.757,1.145
		c-0.181,0.44-0.271,0.906-0.271,1.397c0,0.518,0.09,0.996,0.271,1.436c0.181,0.44,0.433,0.821,0.757,1.145
		c0.323,0.324,0.704,0.576,1.145,0.757C37.942,130.992,38.408,131.082,38.899,131.082z"/>
	<path fill="#4D4D4E" d="M64.355,138.998c0.258,0.259,0.446,0.55,0.563,0.873c0.117,0.324,0.175,0.654,0.175,0.99
		s-0.058,0.666-0.175,0.989c-0.116,0.323-0.304,0.615-0.563,0.873c-0.518,0.492-1.132,0.737-1.843,0.737
		c-0.712,0-1.326-0.245-1.843-0.737l-6.364-6.364v4.463c0,0.751-0.259,1.378-0.776,1.882c-0.518,0.505-1.139,0.757-1.863,0.757
		c-0.698,0-1.307-0.252-1.824-0.757c-0.518-0.504-0.776-1.131-0.776-1.882v-13.349c0.025-1.164,0.265-2.283,0.718-3.357
		c0.452-1.072,1.08-2.011,1.882-2.813s1.733-1.442,2.794-1.921c1.061-0.479,2.212-0.718,3.454-0.718
		c1.138,0,2.238,0.232,3.299,0.698c1.06,0.466,1.992,1.093,2.794,1.882c0.801,0.789,1.442,1.721,1.921,2.794
		c0.478,1.074,0.718,2.219,0.718,3.435c0,1.862-0.504,3.524-1.514,4.986c-1.009,1.462-2.354,2.555-4.036,3.278L64.355,138.998z
		 M57.914,123.903c-0.518,0-0.989,0.091-1.416,0.271c-0.427,0.182-0.809,0.434-1.145,0.757c-0.336,0.324-0.595,0.705-0.776,1.145
		c-0.181,0.44-0.271,0.906-0.271,1.397c0,0.466,0.097,0.918,0.291,1.357c0.194,0.44,0.452,0.829,0.776,1.165
		c0.323,0.336,0.705,0.601,1.145,0.795s0.905,0.291,1.397,0.291c0.957,0,1.792-0.343,2.503-1.028
		c0.711-0.685,1.067-1.545,1.067-2.58c0-0.491-0.097-0.957-0.291-1.397c-0.194-0.439-0.453-0.82-0.776-1.145
		c-0.324-0.323-0.705-0.575-1.145-0.757C58.832,123.994,58.379,123.903,57.914,123.903z"/>
	<path fill="#4D4D4E" d="M77.238,118.665c1.189,0,2.302,0.227,3.337,0.679c1.034,0.453,1.946,1.08,2.735,1.882
		c0.789,0.803,1.423,1.733,1.902,2.794c0.478,1.062,0.743,2.212,0.795,3.454v7.14c-0.052,1.164-0.305,2.283-0.757,3.356
		c-0.453,1.074-1.067,2.019-1.843,2.833c-0.776,0.815-1.688,1.462-2.736,1.94c-1.047,0.479-2.192,0.718-3.434,0.718
		c-1.19,0-2.309-0.227-3.356-0.679c-1.048-0.453-1.973-1.08-2.775-1.883c-0.802-0.801-1.442-1.739-1.92-2.813
		c-0.479-1.073-0.744-2.231-0.796-3.474v-7.14c0.025-1.164,0.272-2.283,0.737-3.357c0.466-1.072,1.093-2.011,1.882-2.813
		c0.789-0.802,1.72-1.442,2.794-1.921C74.877,118.904,76.022,118.665,77.238,118.665z M77.238,138.223
		c0.491,0,0.951-0.091,1.377-0.272c0.427-0.181,0.802-0.439,1.125-0.775c0.323-0.336,0.582-0.718,0.776-1.145
		c0.194-0.428,0.292-0.899,0.292-1.417v-7.14c0-0.491-0.097-0.957-0.292-1.397c-0.194-0.439-0.453-0.82-0.776-1.145
		c-0.324-0.323-0.698-0.575-1.125-0.757c-0.427-0.181-0.886-0.271-1.377-0.271c-0.518,0-0.989,0.091-1.417,0.271
		c-0.427,0.182-0.809,0.434-1.145,0.757c-0.336,0.324-0.596,0.705-0.776,1.145c-0.181,0.44-0.271,0.906-0.271,1.397v7.14
		c0,1.009,0.349,1.862,1.048,2.562C75.375,137.873,76.229,138.223,77.238,138.223z"/>
	<path fill="#4D4D4E" d="M95.942,118.703c0.75,0,1.383,0.259,1.901,0.776c0.517,0.518,0.776,1.125,0.776,1.824v13.349
		c-0.026,1.241-0.266,2.387-0.718,3.435c-0.453,1.047-1.074,1.966-1.863,2.755s-1.721,1.416-2.794,1.882
		c-1.074,0.466-2.231,0.712-3.473,0.737c-0.698,0-1.3-0.245-1.804-0.737c-0.504-0.491-0.757-1.112-0.757-1.862
		c0-0.725,0.252-1.345,0.757-1.863c0.504-0.517,1.106-0.775,1.804-0.775c0.491,0,0.964-0.091,1.417-0.272
		c0.453-0.181,0.84-0.433,1.164-0.756c0.323-0.323,0.582-0.705,0.776-1.146c0.194-0.439,0.291-0.905,0.291-1.396v-13.349
		c0-0.699,0.246-1.307,0.737-1.824C94.648,118.962,95.244,118.703,95.942,118.703z"/>
	<path fill="#4D4D4E" d="M115.597,138.998c0.504,0.519,0.757,1.126,0.757,1.824c0,0.751-0.252,1.378-0.757,1.882
		c-0.504,0.505-1.119,0.757-1.843,0.757h-10.322c-0.673,0-1.274-0.252-1.804-0.757c-0.531-0.504-0.795-1.131-0.795-1.882v-19.519
		c0-0.673,0.246-1.281,0.737-1.824c0.491-0.543,1.112-0.814,1.862-0.814h10.322c0.724,0,1.339,0.259,1.843,0.775
		c0.504,0.519,0.757,1.139,0.757,1.863c0,0.75-0.252,1.371-0.757,1.862s-1.119,0.737-1.843,0.737h-7.761v3.764h5.161
		c0.699,0,1.306,0.259,1.824,0.776c0.517,0.518,0.776,1.139,0.776,1.862c0,0.725-0.259,1.339-0.776,1.844
		c-0.518,0.504-1.125,0.757-1.824,0.757h-5.161v5.316h7.761C114.478,138.223,115.092,138.481,115.597,138.998z"/>
	<path fill="#4D4D4E" d="M134.844,119.44c0.505,0.519,0.757,1.139,0.757,1.863c0,0.75-0.252,1.371-0.757,1.862
		s-1.132,0.737-1.882,0.737h-3.57v16.919c0,0.751-0.246,1.378-0.737,1.882c-0.491,0.505-1.112,0.757-1.862,0.757
		c-0.751,0-1.372-0.252-1.863-0.757c-0.491-0.504-0.737-1.131-0.737-1.882v-16.919h-3.609c-0.725,0-1.339-0.246-1.843-0.737
		s-0.757-1.112-0.757-1.862c0-0.725,0.252-1.345,0.757-1.863c0.504-0.517,1.119-0.775,1.843-0.775h12.379
		C133.712,118.665,134.339,118.924,134.844,119.44z"/>
	<path fill="#4D4D4E" d="M144.914,118.665c1.189,0,2.302,0.227,3.337,0.679c1.034,0.453,1.946,1.08,2.735,1.882
		c0.789,0.803,1.423,1.733,1.901,2.794c0.479,1.062,0.744,2.212,0.796,3.454v7.14c-0.052,1.164-0.305,2.283-0.757,3.356
		c-0.453,1.074-1.067,2.019-1.843,2.833c-0.776,0.815-1.688,1.462-2.736,1.94s-2.192,0.718-3.434,0.718
		c-1.19,0-2.31-0.227-3.357-0.679c-1.048-0.453-1.973-1.08-2.774-1.883c-0.802-0.801-1.442-1.739-1.921-2.813
		s-0.744-2.231-0.795-3.474v-7.14c0.025-1.164,0.271-2.283,0.737-3.357c0.465-1.072,1.092-2.011,1.882-2.813
		c0.789-0.802,1.72-1.442,2.794-1.921C142.553,118.904,143.697,118.665,144.914,118.665z M144.914,138.223
		c0.49,0,0.95-0.091,1.377-0.272c0.427-0.181,0.802-0.439,1.126-0.775c0.322-0.336,0.582-0.718,0.775-1.145
		c0.194-0.428,0.291-0.899,0.291-1.417v-7.14c0-0.491-0.097-0.957-0.291-1.397c-0.193-0.439-0.453-0.82-0.775-1.145
		c-0.324-0.323-0.699-0.575-1.126-0.757c-0.427-0.181-0.887-0.271-1.377-0.271c-0.519,0-0.99,0.091-1.417,0.271
		c-0.427,0.182-0.809,0.434-1.145,0.757c-0.337,0.324-0.596,0.705-0.776,1.145c-0.181,0.44-0.271,0.906-0.271,1.397v7.14
		c0,1.009,0.35,1.862,1.048,2.562C143.051,137.873,143.904,138.223,144.914,138.223z"/>
</g>
<g>
	<path fill="#4D4D4E" d="M161.33,130.948c0.576,0,1.137,0.114,1.68,0.344c0.544,0.229,1.021,0.547,1.435,0.952
		c0.412,0.406,0.743,0.878,0.992,1.415c0.248,0.537,0.373,1.119,0.373,1.748v3.635c0,0.589-0.121,1.152-0.363,1.689
		c-0.243,0.537-0.566,1.012-0.973,1.424s-0.881,0.74-1.424,0.982c-0.544,0.242-1.117,0.363-1.72,0.363h-2.671
		c-0.354,0-0.665-0.128-0.934-0.383c-0.269-0.256-0.402-0.573-0.402-0.953v-9.882c0-0.34,0.127-0.647,0.383-0.923
		c0.255-0.275,0.572-0.412,0.953-0.412H161.33z M159.975,133.619v7.21h1.355c0.249,0,0.484-0.046,0.708-0.138
		c0.222-0.091,0.415-0.219,0.579-0.383c0.164-0.163,0.291-0.354,0.383-0.569c0.092-0.217,0.138-0.449,0.138-0.697v-3.635
		c0-0.249-0.046-0.481-0.138-0.697s-0.219-0.406-0.383-0.57c-0.164-0.163-0.357-0.291-0.579-0.383
		c-0.224-0.091-0.459-0.138-0.708-0.138H159.975z"/>
	<path fill="#4D4D4E" d="M174.365,141.242c0.255,0.262,0.383,0.569,0.383,0.923c0,0.38-0.128,0.697-0.383,0.953
		c-0.256,0.255-0.566,0.383-0.934,0.383h-5.226c-0.34,0-0.645-0.128-0.913-0.383c-0.269-0.256-0.402-0.573-0.402-0.953v-9.882
		c0-0.34,0.124-0.647,0.373-0.923c0.248-0.275,0.563-0.412,0.942-0.412h5.226c0.367,0,0.678,0.131,0.934,0.393
		c0.255,0.262,0.383,0.576,0.383,0.942c0,0.381-0.128,0.694-0.383,0.943c-0.256,0.249-0.566,0.373-0.934,0.373h-3.929v1.906h2.613
		c0.354,0,0.661,0.131,0.923,0.393s0.393,0.576,0.393,0.943c0,0.366-0.131,0.678-0.393,0.933c-0.262,0.256-0.569,0.383-0.923,0.383
		h-2.613v2.691h3.929C173.799,140.849,174.109,140.979,174.365,141.242z"/>
	<path fill="#4D4D4E" d="M184.688,130.948c0.603,0,1.166,0.114,1.689,0.344c0.524,0.229,0.985,0.547,1.386,0.952
		c0.399,0.406,0.72,0.878,0.962,1.415s0.377,1.119,0.403,1.748v3.614c-0.026,0.59-0.154,1.156-0.384,1.7
		c-0.229,0.543-0.54,1.021-0.933,1.434s-0.854,0.74-1.385,0.982s-1.11,0.363-1.739,0.363c-0.603,0-1.169-0.114-1.699-0.344
		s-0.999-0.547-1.404-0.953c-0.406-0.405-0.73-0.88-0.973-1.424c-0.242-0.543-0.376-1.13-0.402-1.759v-3.614
		c0.013-0.589,0.138-1.155,0.373-1.699c0.235-0.543,0.553-1.019,0.953-1.425c0.399-0.405,0.87-0.729,1.414-0.972
		C183.492,131.069,184.072,130.948,184.688,130.948z M184.688,140.849c0.249,0,0.481-0.046,0.697-0.138
		c0.217-0.091,0.406-0.222,0.57-0.393c0.163-0.17,0.295-0.363,0.393-0.579c0.099-0.217,0.147-0.455,0.147-0.718v-3.614
		c0-0.249-0.049-0.484-0.147-0.707c-0.098-0.223-0.229-0.416-0.393-0.58c-0.164-0.163-0.354-0.291-0.57-0.383
		c-0.216-0.092-0.448-0.138-0.697-0.138c-0.262,0-0.501,0.046-0.717,0.138s-0.409,0.22-0.579,0.383
		c-0.171,0.164-0.302,0.357-0.394,0.58s-0.137,0.458-0.137,0.707v3.614c0,0.511,0.177,0.943,0.53,1.297
		S184.177,140.849,184.688,140.849z"/>
	<path fill="#4D4D4E" d="M197.408,141.134c0.256,0.255,0.384,0.566,0.384,0.933c0,0.381-0.128,0.698-0.384,0.953
		c-0.255,0.256-0.56,0.383-0.913,0.383h-4.931c-0.38,0-0.694-0.127-0.943-0.383c-0.249-0.255-0.387-0.572-0.412-0.953v-9.881
		c0-0.366,0.131-0.678,0.393-0.934c0.262-0.255,0.583-0.383,0.963-0.383c0.34,0,0.645,0.128,0.913,0.383
		c0.269,0.256,0.402,0.567,0.402,0.934v8.565h3.615C196.849,140.751,197.153,140.878,197.408,141.134z"/>
	<path fill="#4D4D4E" d="M205.865,130.968c0.341,0,0.651,0.124,0.934,0.373c0.281,0.249,0.422,0.563,0.422,0.942v9.901
		c0,0.171-0.036,0.334-0.107,0.491c-0.072,0.157-0.174,0.298-0.305,0.423c-0.131,0.124-0.278,0.223-0.442,0.294
		c-0.164,0.072-0.331,0.108-0.501,0.108c-0.341,0-0.642-0.128-0.903-0.383c-0.262-0.256-0.393-0.566-0.393-0.934v-3.614h-3.419
		v3.614c0,0.367-0.127,0.678-0.383,0.934c-0.255,0.255-0.573,0.383-0.953,0.383c-0.354,0-0.657-0.124-0.913-0.373
		s-0.39-0.563-0.402-0.943v-9.901c0-0.405,0.141-0.727,0.422-0.962c0.281-0.236,0.58-0.354,0.894-0.354
		c0.38,0,0.698,0.131,0.953,0.393c0.256,0.262,0.383,0.569,0.383,0.923v3.615h3.419v-3.615c0-0.354,0.131-0.661,0.393-0.923
		S205.524,130.968,205.865,130.968z"/>
	<path fill="#4D4D4E" d="M212.78,130.948c0.603,0,1.166,0.114,1.689,0.344c0.524,0.229,0.985,0.547,1.386,0.952
		c0.399,0.406,0.72,0.878,0.962,1.415s0.377,1.119,0.403,1.748v3.614c-0.026,0.59-0.154,1.156-0.384,1.7
		c-0.229,0.543-0.54,1.021-0.933,1.434s-0.854,0.74-1.385,0.982s-1.11,0.363-1.739,0.363c-0.603,0-1.169-0.114-1.699-0.344
		s-0.999-0.547-1.404-0.953c-0.406-0.405-0.73-0.88-0.973-1.424c-0.242-0.543-0.376-1.13-0.402-1.759v-3.614
		c0.013-0.589,0.138-1.155,0.373-1.699c0.235-0.543,0.553-1.019,0.953-1.425c0.399-0.405,0.87-0.729,1.414-0.972
		C211.585,131.069,212.165,130.948,212.78,130.948z M212.78,140.849c0.249,0,0.481-0.046,0.697-0.138
		c0.217-0.091,0.406-0.222,0.57-0.393c0.163-0.17,0.295-0.363,0.393-0.579c0.099-0.217,0.147-0.455,0.147-0.718v-3.614
		c0-0.249-0.049-0.484-0.147-0.707c-0.098-0.223-0.229-0.416-0.393-0.58c-0.164-0.163-0.354-0.291-0.57-0.383
		c-0.216-0.092-0.448-0.138-0.697-0.138c-0.262,0-0.501,0.046-0.717,0.138s-0.409,0.22-0.579,0.383
		c-0.171,0.164-0.302,0.357-0.394,0.58s-0.137,0.458-0.137,0.707v3.614c0,0.511,0.177,0.943,0.53,1.297
		S212.27,140.849,212.78,140.849z"/>
</g>
<g>
	<g>
		<path fill="#FFFFFF" d="M76.361,96.899c0.967,0,1.789,0.338,2.465,1.014c0.165,0.184,0.239,0.402,0.225,0.652
			c-0.015,0.252-0.109,0.461-0.283,0.625c-0.174,0.164-0.396,0.25-0.667,0.26s-0.493-0.076-0.667-0.26
			c-0.3-0.271-0.658-0.406-1.073-0.406c-0.223,0-0.433,0.045-0.631,0.137s-0.372,0.213-0.522,0.363s-0.268,0.322-0.355,0.516
			c-0.087,0.193-0.13,0.396-0.13,0.607c0,0.223,0.043,0.434,0.13,0.631c0.087,0.199,0.208,0.373,0.363,0.523
			c0.154,0.148,0.329,0.268,0.522,0.355c0.193,0.086,0.401,0.125,0.624,0.115c0.425,0,0.783-0.131,1.073-0.391
			c0.174-0.193,0.396-0.291,0.667-0.291s0.493,0.098,0.667,0.291c0.087,0.076,0.155,0.168,0.203,0.275
			c0.048,0.105,0.075,0.217,0.08,0.332c0.004,0.117-0.012,0.23-0.051,0.342c-0.039,0.111-0.097,0.211-0.174,0.297
			c-0.338,0.338-0.71,0.594-1.117,0.77c-0.406,0.174-0.855,0.26-1.349,0.26c-0.483,0-0.938-0.094-1.363-0.283
			c-0.425-0.188-0.797-0.441-1.117-0.76c-0.319-0.32-0.573-0.691-0.761-1.117s-0.283-0.875-0.283-1.35
			c0-0.463,0.094-0.908,0.283-1.334c0.188-0.424,0.445-0.797,0.769-1.115c0.324-0.32,0.699-0.576,1.124-0.77
			S75.887,96.899,76.361,96.899z"/>
		<path fill="#FFFFFF" d="M84.206,96.913c0.435,0.049,0.844,0.174,1.226,0.377s0.71,0.461,0.986,0.775
			c0.275,0.314,0.493,0.672,0.652,1.074c0.16,0.4,0.239,0.824,0.239,1.268v2.568c0,0.26-0.097,0.482-0.29,0.666
			s-0.411,0.275-0.652,0.275c-0.339,0-0.609-0.154-0.812-0.463c-0.049,0.02-0.092,0.041-0.131,0.064s-0.077,0.047-0.116,0.064
			c-0.232,0.107-0.469,0.189-0.711,0.248c-0.251,0.057-0.517,0.086-0.797,0.086c-0.725,0-1.373-0.195-1.943-0.586
			c-0.57-0.393-0.996-0.898-1.276-1.516c-0.097-0.223-0.171-0.451-0.225-0.682c-0.053-0.232-0.08-0.475-0.08-0.727
			c0-0.25,0.026-0.492,0.08-0.725s0.128-0.459,0.225-0.682c0.28-0.629,0.706-1.135,1.276-1.521s1.218-0.58,1.943-0.58
			c0.077,0,0.147,0,0.21,0C84.073,96.899,84.139,96.903,84.206,96.913z M83.786,102.032c0.222,0,0.433-0.041,0.631-0.123
			s0.37-0.195,0.515-0.342c0.145-0.145,0.261-0.316,0.348-0.514c0.087-0.199,0.131-0.414,0.131-0.646
			c0-0.211-0.044-0.418-0.131-0.615c-0.087-0.199-0.206-0.373-0.355-0.521c-0.15-0.15-0.324-0.27-0.522-0.355
			c-0.198-0.088-0.404-0.131-0.616-0.131c-0.213,0-0.416,0.043-0.609,0.131c-0.194,0.086-0.365,0.205-0.515,0.355
			c-0.15,0.148-0.268,0.322-0.355,0.521c-0.087,0.197-0.131,0.404-0.131,0.615c0,0.223,0.046,0.434,0.138,0.631
			c0.092,0.199,0.212,0.371,0.362,0.516s0.321,0.262,0.515,0.348C83.384,101.989,83.583,102.032,83.786,102.032z"/>
		<path fill="#FFFFFF" d="M91.284,96.899c0.29,0,0.573,0.045,0.848,0.137s0.529,0.234,0.761,0.428
			c0.464-0.377,1.005-0.564,1.625-0.564c0.338,0,0.665,0.064,0.979,0.195c0.314,0.131,0.589,0.307,0.826,0.529
			s0.426,0.488,0.566,0.797c0.14,0.311,0.21,0.639,0.21,0.986v3.641c0,0.232-0.097,0.434-0.29,0.609
			c-0.193,0.174-0.416,0.26-0.667,0.26s-0.471-0.094-0.66-0.283c-0.188-0.188-0.283-0.408-0.283-0.658V99.45
			c0-0.184-0.065-0.338-0.196-0.463c-0.131-0.127-0.292-0.189-0.486-0.189c-0.165,0-0.317,0.057-0.457,0.168s-0.21,0.273-0.21,0.484
			v3.525c0,0.26-0.094,0.482-0.283,0.666c-0.188,0.184-0.413,0.275-0.674,0.275c-0.242,0-0.459-0.084-0.652-0.254
			c-0.193-0.168-0.29-0.373-0.29-0.615V99.45c-0.01-0.193-0.083-0.35-0.218-0.471s-0.285-0.182-0.449-0.182
			c-0.184,0-0.341,0.063-0.472,0.189c-0.13,0.125-0.201,0.285-0.21,0.479v3.596c-0.02,0.232-0.119,0.434-0.297,0.602
			c-0.179,0.17-0.394,0.254-0.646,0.254c-0.135,0-0.261-0.023-0.377-0.072s-0.217-0.115-0.305-0.203
			c-0.087-0.086-0.157-0.188-0.21-0.305c-0.053-0.115-0.075-0.236-0.065-0.361v-3.568c0-0.338,0.067-0.66,0.203-0.965
			c0.135-0.305,0.319-0.57,0.551-0.797c0.232-0.227,0.505-0.408,0.819-0.545C90.59,96.966,90.926,96.899,91.284,96.899z"/>
		<path fill="#FFFFFF" d="M102.333,96.913c0.435,0.049,0.844,0.174,1.226,0.377s0.71,0.461,0.986,0.775
			c0.275,0.314,0.493,0.672,0.652,1.074c0.16,0.4,0.239,0.824,0.239,1.268v2.568c0,0.26-0.097,0.482-0.29,0.666
			s-0.411,0.275-0.652,0.275c-0.339,0-0.609-0.154-0.812-0.463c-0.049,0.02-0.092,0.041-0.131,0.064s-0.077,0.047-0.116,0.064
			c-0.232,0.107-0.469,0.189-0.711,0.248c-0.251,0.057-0.517,0.086-0.797,0.086c-0.725,0-1.373-0.195-1.943-0.586
			c-0.57-0.393-0.996-0.898-1.276-1.516c-0.097-0.223-0.171-0.451-0.225-0.682c-0.053-0.232-0.08-0.475-0.08-0.727
			c0-0.25,0.026-0.492,0.08-0.725s0.128-0.459,0.225-0.682c0.28-0.629,0.706-1.135,1.276-1.521s1.218-0.58,1.943-0.58
			c0.077,0,0.147,0,0.21,0C102.201,96.899,102.266,96.903,102.333,96.913z M101.913,102.032c0.222,0,0.433-0.041,0.631-0.123
			s0.37-0.195,0.515-0.342c0.145-0.145,0.261-0.316,0.348-0.514c0.087-0.199,0.131-0.414,0.131-0.646
			c0-0.211-0.044-0.418-0.131-0.615c-0.087-0.199-0.206-0.373-0.355-0.521c-0.15-0.15-0.324-0.27-0.522-0.355
			c-0.198-0.088-0.404-0.131-0.616-0.131c-0.213,0-0.416,0.043-0.609,0.131c-0.194,0.086-0.365,0.205-0.515,0.355
			c-0.15,0.148-0.268,0.322-0.355,0.521c-0.087,0.197-0.131,0.404-0.131,0.615c0,0.223,0.046,0.434,0.138,0.631
			c0.092,0.199,0.212,0.371,0.362,0.516s0.321,0.262,0.515,0.348C101.512,101.989,101.71,102.032,101.913,102.032z"/>
		<path fill="#FFFFFF" d="M107.67,103.933c-0.261,0-0.479-0.086-0.653-0.254c-0.174-0.17-0.271-0.395-0.29-0.676v-2.682
			c0.01-0.465,0.109-0.902,0.297-1.313s0.44-0.77,0.754-1.074c0.314-0.305,0.682-0.545,1.103-0.725
			c0.42-0.178,0.868-0.277,1.341-0.297c0.271,0,0.495,0.092,0.674,0.275c0.179,0.184,0.278,0.406,0.297,0.668
			c0,0.26-0.092,0.48-0.276,0.658c-0.184,0.18-0.411,0.273-0.681,0.283c-0.223,0-0.431,0.041-0.624,0.123s-0.362,0.197-0.507,0.342
			s-0.261,0.316-0.348,0.514c-0.087,0.199-0.13,0.414-0.13,0.646v2.639c-0.02,0.252-0.114,0.459-0.283,0.623
			C108.175,103.851,107.951,103.933,107.67,103.933z"/>
		<path fill="#FFFFFF" d="M115.762,96.913c0.435,0.049,0.844,0.174,1.226,0.377s0.71,0.461,0.986,0.775
			c0.275,0.314,0.493,0.672,0.652,1.074c0.16,0.4,0.239,0.824,0.239,1.268v2.568c0,0.26-0.097,0.482-0.29,0.666
			s-0.411,0.275-0.652,0.275c-0.339,0-0.609-0.154-0.812-0.463c-0.049,0.02-0.092,0.041-0.131,0.064s-0.077,0.047-0.116,0.064
			c-0.232,0.107-0.469,0.189-0.711,0.248c-0.251,0.057-0.517,0.086-0.797,0.086c-0.725,0-1.373-0.195-1.943-0.586
			c-0.57-0.393-0.996-0.898-1.276-1.516c-0.097-0.223-0.171-0.451-0.225-0.682c-0.053-0.232-0.08-0.475-0.08-0.727
			c0-0.25,0.026-0.492,0.08-0.725s0.128-0.459,0.225-0.682c0.28-0.629,0.706-1.135,1.276-1.521s1.218-0.58,1.943-0.58
			c0.077,0,0.147,0,0.21,0C115.629,96.899,115.695,96.903,115.762,96.913z M115.342,102.032c0.222,0,0.433-0.041,0.631-0.123
			s0.37-0.195,0.515-0.342c0.145-0.145,0.261-0.316,0.348-0.514c0.087-0.199,0.131-0.414,0.131-0.646
			c0-0.211-0.044-0.418-0.131-0.615c-0.087-0.199-0.206-0.373-0.355-0.521c-0.15-0.15-0.324-0.27-0.522-0.355
			c-0.198-0.088-0.404-0.131-0.616-0.131c-0.213,0-0.416,0.043-0.609,0.131c-0.194,0.086-0.365,0.205-0.515,0.355
			c-0.15,0.148-0.268,0.322-0.355,0.521c-0.087,0.197-0.131,0.404-0.131,0.615c0,0.223,0.046,0.434,0.138,0.631
			c0.092,0.199,0.212,0.371,0.362,0.516s0.321,0.262,0.515,0.348C114.94,101.989,115.139,102.032,115.342,102.032z"/>
	</g>
	<g>
		<path fill="#FFFFFF" d="M82.024,96.408c0.137,0.01,0.26-0.029,0.369-0.118l1.401-1.195l1.416,1.195
			c0.108,0.089,0.229,0.128,0.362,0.118s0.248-0.068,0.347-0.177c0.088-0.108,0.127-0.231,0.118-0.369s-0.069-0.251-0.177-0.339
			l-1.726-1.461c-0.069-0.059-0.169-0.099-0.302-0.118s-0.253,0.02-0.362,0.118l-1.726,1.461c-0.108,0.088-0.167,0.201-0.177,0.339
			s0.029,0.261,0.118,0.369C81.773,96.34,81.886,96.398,82.024,96.408z"/>
	</g>
</g>
</svg>
