<?xml version="1.0" encoding="utf-8"?>
<!-- Generator: Adobe Illustrator 16.0.0, SVG Export Plug-In . SVG Version: 6.00 Build 0)  -->
<!DOCTYPE svg PUBLIC "-//W3C//DTD SVG 1.1//EN" "http://www.w3.org/Graphics/SVG/1.1/DTD/svg11.dtd">
<svg version="1.1" id="Layer_1" xmlns="http://www.w3.org/2000/svg" xmlns:xlink="http://www.w3.org/1999/xlink" x="0px" y="0px"
	 width="130px" height="130px" viewBox="0 0 130 130" enable-background="new 0 0 130 130" xml:space="preserve">
<g opacity="0.3">
	<path fill="#FFFFFF" d="M115,54.537H98.66v-0.013c-6.175-7.23-13.987-11.444-22.867-13.94c-2.587-0.729-5.215-1.419-7.686-2.465
		c-4.242-1.793-6.903-4.991-7.376-9.675c-0.231-2.341-0.171-4.708-0.298-7.06c-0.208-3.834-1.873-5.802-5.71-6.281
		c-5.315-0.666-9.207,1.914-11.88,6.167c-4.282,6.809-3.494,13.915-0.434,20.936c0.918,2.111,2.156,4.079,3.439,6.474
		c-1.484,0.087-2.566,0.203-3.647,0.208c-6.093,0.02-12.19-0.076-18.285,0.046c-5.777,0.122-9.256,4.174-8.891,9.937
		c0.254,4.02,2.854,6.293,6.05,8.07c-4.33,6.625-3.665,10.421,2.582,15.774c-4.922,7.164-3.709,12.349,4.045,16.3
		c-2.828,4.724-3.175,8.086-1.193,11.438c2.316,3.91,6.029,4.589,10.203,4.544c9.707-0.098,19.417,0.053,29.119-0.07
		c3.931-0.053,7.902-0.27,11.777-0.888c7.235-1.147,15.137-4.421,21.052-9.208v-0.016H115"/>
</g>
</svg>
