<?xml version="1.0" encoding="utf-8"?>
<!-- Generator: Adobe Illustrator 16.0.0, SVG Export Plug-In . SVG Version: 6.00 Build 0)  -->
<!DOCTYPE svg PUBLIC "-//W3C//DTD SVG 1.1//EN" "http://www.w3.org/Graphics/SVG/1.1/DTD/svg11.dtd">
<svg version="1.1" id="Layer_1" xmlns="http://www.w3.org/2000/svg" xmlns:xlink="http://www.w3.org/1999/xlink" x="0px" y="0px"
	 width="244.5px" height="40px" viewBox="0 27 244.5 40" enable-background="new 0 27 244.5 40" xml:space="preserve">
<path fill="#CECECD" d="M147.895,59.426l-8.721-4.051v3.511h-7.326c0.359-0.889,0.561-1.865,0.561-2.888v-0.634v-3.302v-5.391
	c0-1.454-0.969-2.631-2.164-2.631c-0.799,0-1.494,0.526-1.871,1.306c-0.176-0.091-0.354-0.175-0.537-0.25
	c-0.244-1.131-1.088-1.968-2.096-1.968c-0.838,0-1.564,0.58-1.924,1.426h-0.428c-0.119-1.316-1.037-2.338-2.151-2.338
	c-1.196,0-2.167,1.178-2.167,2.63v0.278c-0.057,0.024-0.114,0.051-0.17,0.077V32.444c0,0-0.039-0.029-0.102-0.069
	c-0.334-0.356-2.057-1.979-4.124-0.025c-0.075,0.056-0.107,0.095-0.107,0.095v17.741l-1.448-1.938
	c-1.1-1.477-2.805-2.063-3.807-1.318c-1.006,0.749-0.926,2.553,0.176,4.026l5.395,7.235c0.072,0.238,0.156,0.471,0.25,0.696h-9.422
	v-3.511l-9.105,4.053l9.105,4.052v-3.51h9.967c1.287,2.121,3.574,3.537,6.188,3.537h3.246c2.609,0,4.896-1.416,6.186-3.537h7.877
	v3.51L147.895,59.426z"/>
<g>
	<polygon fill="#CECECD" points="8.154,63.997 5.578,59.535 3.001,55.072 8.154,55.072 13.306,55.072 10.73,59.535 	"/>
	<polygon opacity="0.7" fill="#CECECD" points="8.154,52.122 5.578,47.66 3.001,43.197 8.154,43.197 13.306,43.197 10.73,47.66 	"/>
	<polygon opacity="0.4" fill="#CECECD" points="8.154,40.247 5.578,35.784 3.001,31.323 8.154,31.323 13.306,31.323 10.73,35.784 	
		"/>
</g>
<g>
	<polygon fill="#CECECD" points="236.345,63.997 233.769,59.535 231.192,55.072 236.345,55.072 241.497,55.072 238.921,59.535 	"/>
	<polygon opacity="0.7" fill="#CECECD" points="236.345,52.122 233.769,47.66 231.192,43.197 236.345,43.197 241.497,43.197 
		238.921,47.66 	"/>
	<polygon opacity="0.4" fill="#CECECD" points="236.345,40.247 233.769,35.784 231.192,31.325 236.345,31.325 241.497,31.325 
		238.921,35.784 	"/>
</g>
</svg>
