<?xml version="1.0" encoding="utf-8"?>
<!-- Generator: Adobe Illustrator 16.0.0, SVG Export Plug-In . SVG Version: 6.00 Build 0)  -->
<!DOCTYPE svg PUBLIC "-//W3C//DTD SVG 1.1//EN" "http://www.w3.org/Graphics/SVG/1.1/DTD/svg11.dtd">
<svg version="1.1" id="Layer_1" xmlns="http://www.w3.org/2000/svg" xmlns:xlink="http://www.w3.org/1999/xlink" x="0px" y="0px"
	 width="110px" height="150px" viewBox="0 0 110 150" enable-background="new 0 0 110 150" xml:space="preserve">
<g>
	<g>
		<path fill="#B3B2B3" d="M10.859,117.846l-0.627,1.898H9.426l2.053-6.04h0.94l2.062,6.04h-0.833L13,117.846H10.859z
			 M12.839,117.235l-0.59-1.737c-0.135-0.396-0.224-0.753-0.315-1.104h-0.018c-0.089,0.359-0.188,0.727-0.305,1.094l-0.59,1.747
			H12.839z"/>
		<path fill="#B3B2B3" d="M15.316,116.761c0-0.511-0.009-0.949-0.035-1.354h0.69l0.026,0.853h0.037
			c0.196-0.583,0.671-0.951,1.2-0.951c0.091,0,0.152,0.009,0.224,0.027v0.743c-0.081-0.018-0.161-0.026-0.268-0.026
			c-0.555,0-0.951,0.421-1.058,1.013c-0.018,0.107-0.035,0.232-0.035,0.367v2.312h-0.781V116.761z"/>
		<path fill="#B3B2B3" d="M18.284,116.761c0-0.511-0.009-0.949-0.035-1.354h0.69l0.026,0.853h0.037
			c0.196-0.583,0.671-0.951,1.2-0.951c0.091,0,0.152,0.009,0.224,0.027v0.743c-0.081-0.018-0.161-0.026-0.268-0.026
			c-0.555,0-0.951,0.421-1.058,1.013c-0.018,0.107-0.035,0.232-0.035,0.367v2.312h-0.781V116.761z"/>
		<path fill="#B3B2B3" d="M23.573,119.744l-0.063-0.546h-0.026c-0.242,0.341-0.708,0.646-1.326,0.646
			c-0.879,0-1.328-0.618-1.328-1.246c0-1.049,0.934-1.622,2.608-1.613v-0.089c0-0.359-0.098-1.004-0.984-1.004
			c-0.404,0-0.825,0.125-1.129,0.322l-0.181-0.52c0.359-0.233,0.879-0.386,1.426-0.386c1.326,0,1.649,0.905,1.649,1.774v1.623
			c0,0.376,0.018,0.743,0.072,1.038H23.573z M23.457,117.531c-0.861-0.018-1.837,0.135-1.837,0.977c0,0.512,0.34,0.753,0.743,0.753
			c0.565,0,0.923-0.358,1.049-0.726c0.026-0.081,0.045-0.171,0.045-0.251V117.531z"/>
		<path fill="#B3B2B3" d="M25.385,118.938c0.233,0.152,0.646,0.313,1.04,0.313c0.573,0,0.842-0.287,0.842-0.646
			c0-0.376-0.224-0.582-0.807-0.797c-0.779-0.278-1.147-0.708-1.147-1.228c0-0.699,0.565-1.273,1.497-1.273
			c0.439,0,0.825,0.126,1.066,0.27l-0.198,0.573c-0.17-0.107-0.483-0.251-0.886-0.251c-0.466,0-0.727,0.269-0.727,0.592
			c0,0.358,0.261,0.52,0.825,0.734c0.753,0.287,1.138,0.663,1.138,1.309c0,0.762-0.592,1.3-1.622,1.3
			c-0.475,0-0.914-0.117-1.219-0.296L25.385,118.938z"/>
		<path fill="#B3B2B3" d="M29.995,114.161v1.246h1.127v0.601h-1.127v2.339c0,0.538,0.152,0.843,0.59,0.843
			c0.207,0,0.359-0.026,0.457-0.055l0.037,0.592c-0.152,0.063-0.394,0.108-0.699,0.108c-0.368,0-0.664-0.117-0.852-0.332
			c-0.224-0.233-0.305-0.618-0.305-1.13v-2.365h-0.672v-0.601h0.672v-1.039L29.995,114.161z"/>
		<path fill="#B3B2B3" d="M32.397,117.72c0.018,1.066,0.699,1.506,1.489,1.506c0.564,0,0.903-0.1,1.199-0.225l0.135,0.564
			c-0.279,0.126-0.753,0.27-1.443,0.27c-1.334,0-2.133-0.879-2.133-2.187c0-1.309,0.771-2.34,2.035-2.34
			c1.415,0,1.792,1.246,1.792,2.044c0,0.161-0.017,0.287-0.026,0.367H32.397z M34.708,117.155c0.009-0.502-0.205-1.281-1.093-1.281
			c-0.796,0-1.147,0.734-1.21,1.281H34.708z"/>
		<path fill="#B3B2B3" d="M42.276,117.541c0,1.604-1.112,2.303-2.161,2.303c-1.173,0-2.079-0.861-2.079-2.232
			c0-1.451,0.951-2.303,2.15-2.303C41.433,115.309,42.276,116.214,42.276,117.541z M38.834,117.585c0,0.95,0.546,1.667,1.317,1.667
			c0.753,0,1.317-0.708,1.317-1.685c0-0.735-0.368-1.667-1.299-1.667S38.834,116.761,38.834,117.585z"/>
		<path fill="#B3B2B3" d="M44.985,113.525c-0.655,0.879-1.129,2.044-1.129,3.666c0,1.595,0.492,2.742,1.129,3.638h-0.618
			c-0.566-0.743-1.175-1.891-1.175-3.638c0.009-1.766,0.609-2.912,1.175-3.666H44.985z"/>
		<path fill="#B3B2B3" d="M48.221,119.744l-0.063-0.546h-0.026c-0.244,0.341-0.709,0.646-1.328,0.646
			c-0.877,0-1.326-0.618-1.326-1.246c0-1.049,0.932-1.622,2.608-1.613v-0.089c0-0.359-0.098-1.004-0.986-1.004
			c-0.403,0-0.825,0.125-1.129,0.322l-0.179-0.52c0.359-0.233,0.877-0.386,1.426-0.386c1.326,0,1.648,0.905,1.648,1.774v1.623
			c0,0.376,0.017,0.743,0.072,1.038H48.221z M48.104,117.531c-0.86-0.018-1.837,0.135-1.837,0.977c0,0.512,0.342,0.753,0.744,0.753
			c0.564,0,0.923-0.358,1.049-0.726c0.026-0.081,0.043-0.171,0.043-0.251V117.531z"/>
		<path fill="#B3B2B3" d="M49.666,120.829c0.635-0.887,1.129-2.052,1.129-3.665c0-1.604-0.483-2.751-1.129-3.639h0.609
			c0.574,0.735,1.173,1.882,1.173,3.647c0,1.757-0.599,2.895-1.173,3.656H49.666z"/>
		<path fill="#B3B2B3" d="M54.615,113.785c0.475-0.071,1.04-0.124,1.659-0.124c1.119,0,1.917,0.259,2.446,0.752
			c0.537,0.493,0.851,1.191,0.851,2.169c0,0.985-0.305,1.791-0.868,2.348c-0.565,0.564-1.497,0.869-2.671,0.869
			c-0.557,0-1.022-0.027-1.417-0.072V113.785z M55.394,119.126c0.198,0.037,0.485,0.046,0.79,0.046c1.666,0,2.571-0.933,2.571-2.563
			c0.009-1.425-0.797-2.329-2.446-2.329c-0.403,0-0.708,0.034-0.915,0.08V119.126z"/>
		<path fill="#B3B2B3" d="M61.035,117.72c0.017,1.066,0.698,1.506,1.488,1.506c0.563,0,0.903-0.1,1.199-0.225l0.135,0.564
			c-0.278,0.126-0.753,0.27-1.442,0.27c-1.335,0-2.134-0.879-2.134-2.187c0-1.309,0.771-2.34,2.035-2.34
			c1.415,0,1.792,1.246,1.792,2.044c0,0.161-0.018,0.287-0.026,0.367H61.035z M63.347,117.155c0.009-0.502-0.205-1.281-1.093-1.281
			c-0.797,0-1.147,0.734-1.211,1.281H63.347z"/>
		<path fill="#B3B2B3" d="M65.087,116.823c0-0.555-0.018-1.003-0.035-1.416h0.708l0.036,0.744h0.018
			c0.322-0.529,0.834-0.843,1.541-0.843c1.05,0,1.837,0.888,1.837,2.205c0,1.56-0.948,2.33-1.972,2.33
			c-0.572,0-1.075-0.252-1.334-0.681h-0.018v2.356h-0.781V116.823z M65.868,117.979c0,0.117,0.018,0.224,0.035,0.323
			c0.144,0.546,0.618,0.923,1.182,0.923c0.834,0,1.319-0.682,1.319-1.677c0-0.869-0.458-1.612-1.291-1.612
			c-0.538,0-1.04,0.385-1.192,0.977c-0.026,0.099-0.053,0.215-0.053,0.322V117.979z"/>
		<path fill="#B3B2B3" d="M73.818,118.563c0,0.448,0.009,0.842,0.035,1.182h-0.698l-0.044-0.707h-0.02
			c-0.205,0.35-0.662,0.807-1.433,0.807c-0.681,0-1.497-0.377-1.497-1.899v-2.537h0.788v2.402c0,0.824,0.252,1.38,0.969,1.38
			c0.528,0,0.896-0.368,1.04-0.717c0.044-0.117,0.069-0.261,0.069-0.404v-2.661h0.79V118.563z"/>
		<path fill="#B3B2B3" d="M76.079,114.161v1.246h1.128v0.601h-1.128v2.339c0,0.538,0.152,0.843,0.591,0.843
			c0.206,0,0.358-0.026,0.457-0.055l0.036,0.592c-0.152,0.063-0.394,0.108-0.698,0.108c-0.368,0-0.664-0.117-0.852-0.332
			c-0.224-0.233-0.305-0.618-0.305-1.13v-2.365h-0.672v-0.601h0.672v-1.039L76.079,114.161z"/>
		<path fill="#B3B2B3" d="M80.499,119.744l-0.063-0.546H80.41c-0.243,0.341-0.709,0.646-1.327,0.646
			c-0.878,0-1.326-0.618-1.326-1.246c0-1.049,0.932-1.622,2.607-1.613v-0.089c0-0.359-0.098-1.004-0.985-1.004
			c-0.403,0-0.825,0.125-1.13,0.322l-0.179-0.52c0.359-0.233,0.878-0.386,1.426-0.386c1.325,0,1.647,0.905,1.647,1.774v1.623
			c0,0.376,0.018,0.743,0.072,1.038H80.499z M80.382,117.531c-0.859-0.018-1.837,0.135-1.837,0.977c0,0.512,0.342,0.753,0.744,0.753
			c0.564,0,0.923-0.358,1.049-0.726c0.026-0.081,0.044-0.171,0.044-0.251V117.531z"/>
		<path fill="#B3B2B3" d="M86.165,113.382v5.243c0,0.386,0.009,0.824,0.034,1.119h-0.707l-0.035-0.752h-0.02
			c-0.241,0.484-0.771,0.852-1.478,0.852c-1.049,0-1.854-0.888-1.854-2.204c-0.009-1.443,0.886-2.331,1.943-2.331
			c0.664,0,1.112,0.313,1.309,0.664h0.018v-2.591H86.165z M85.375,117.173c0-0.099-0.009-0.233-0.035-0.332
			c-0.117-0.501-0.547-0.914-1.139-0.914c-0.815,0-1.299,0.718-1.299,1.676c0,0.879,0.431,1.604,1.281,1.604
			c0.529,0,1.013-0.349,1.156-0.94c0.026-0.107,0.035-0.216,0.035-0.341V117.173z"/>
		<path fill="#B3B2B3" d="M91.4,117.541c0,1.604-1.11,2.303-2.159,2.303c-1.173,0-2.078-0.861-2.078-2.232
			c0-1.451,0.949-2.303,2.15-2.303C90.559,115.309,91.4,116.214,91.4,117.541z M87.96,117.585c0,0.95,0.546,1.667,1.316,1.667
			c0.753,0,1.319-0.708,1.319-1.685c0-0.735-0.368-1.667-1.3-1.667C88.362,115.9,87.96,116.761,87.96,117.585z"/>
		<path fill="#B3B2B3" d="M94.11,113.525c-0.655,0.879-1.13,2.044-1.13,3.666c0,1.595,0.492,2.742,1.13,3.638h-0.618
			c-0.566-0.743-1.176-1.891-1.176-3.638c0.009-1.766,0.609-2.912,1.176-3.666H94.11z"/>
		<path fill="#B3B2B3" d="M97.346,119.744l-0.063-0.546h-0.026c-0.243,0.341-0.709,0.646-1.327,0.646
			c-0.878,0-1.326-0.618-1.326-1.246c0-1.049,0.932-1.622,2.607-1.613v-0.089c0-0.359-0.098-1.004-0.985-1.004
			c-0.403,0-0.825,0.125-1.13,0.322l-0.179-0.52c0.359-0.233,0.878-0.386,1.426-0.386c1.325,0,1.647,0.905,1.647,1.774v1.623
			c0,0.376,0.018,0.743,0.072,1.038H97.346z M97.229,117.531c-0.859-0.018-1.837,0.135-1.837,0.977c0,0.512,0.342,0.753,0.744,0.753
			c0.564,0,0.923-0.358,1.049-0.726c0.026-0.081,0.044-0.171,0.044-0.251V117.531z"/>
		<path fill="#B3B2B3" d="M98.791,120.829c0.636-0.887,1.13-2.052,1.13-3.665c0-1.604-0.483-2.751-1.13-3.639H99.4
			c0.574,0.735,1.173,1.882,1.173,3.647c0,1.757-0.599,2.895-1.173,3.656H98.791z"/>
		<path fill="#B3B2B3" d="M18.538,131.4l-0.063-0.546h-0.026c-0.242,0.34-0.708,0.645-1.326,0.645c-0.879,0-1.328-0.618-1.328-1.245
			c0-1.049,0.934-1.622,2.608-1.613v-0.089c0-0.359-0.098-1.004-0.984-1.004c-0.405,0-0.825,0.125-1.129,0.322l-0.181-0.521
			c0.359-0.232,0.879-0.385,1.426-0.385c1.326,0,1.649,0.905,1.649,1.774v1.623c0,0.375,0.018,0.743,0.072,1.038H18.538z
			 M18.422,129.187c-0.862-0.017-1.837,0.136-1.837,0.978c0,0.512,0.34,0.753,0.742,0.753c0.566,0,0.923-0.358,1.049-0.726
			c0.026-0.081,0.045-0.171,0.045-0.251V129.187z"/>
		<path fill="#B3B2B3" d="M23.55,131.239c-0.205,0.107-0.662,0.251-1.245,0.251c-1.308,0-2.159-0.887-2.159-2.213
			c0-1.336,0.914-2.304,2.329-2.304c0.466,0,0.879,0.117,1.093,0.224l-0.179,0.609c-0.187-0.106-0.483-0.205-0.914-0.205
			c-0.995,0-1.532,0.734-1.532,1.64c0,1.004,0.646,1.622,1.506,1.622c0.448,0,0.745-0.116,0.967-0.215L23.55,131.239z"/>
		<path fill="#B3B2B3" d="M25.354,125.845c0.009,0.269-0.189,0.484-0.502,0.484c-0.277,0-0.475-0.216-0.475-0.484
			c0-0.277,0.207-0.493,0.492-0.493C25.165,125.352,25.354,125.567,25.354,125.845z M24.475,131.4v-4.337h0.79v4.337H24.475z"/>
		<path fill="#B3B2B3" d="M26.572,128.238c0-0.449-0.008-0.816-0.035-1.175h0.69l0.035,0.7h0.028
			c0.242-0.414,0.645-0.799,1.361-0.799c0.592,0,1.04,0.358,1.229,0.869h0.018c0.135-0.241,0.305-0.43,0.483-0.564
			c0.261-0.196,0.546-0.305,0.96-0.305c0.572,0,1.423,0.376,1.423,1.883v2.553h-0.771v-2.455c0-0.834-0.305-1.334-0.94-1.334
			c-0.448,0-0.798,0.33-0.932,0.716c-0.037,0.107-0.063,0.25-0.063,0.394v2.68h-0.771v-2.599c0-0.69-0.305-1.19-0.905-1.19
			c-0.492,0-0.851,0.394-0.977,0.788c-0.044,0.116-0.063,0.25-0.063,0.385v2.616h-0.771V128.238z"/>
		<path fill="#B3B2B3" d="M36.453,131.4l-0.063-0.546h-0.026c-0.244,0.34-0.709,0.645-1.328,0.645c-0.877,0-1.326-0.618-1.326-1.245
			c0-1.049,0.932-1.622,2.607-1.613v-0.089c0-0.359-0.098-1.004-0.986-1.004c-0.403,0-0.825,0.125-1.129,0.322l-0.179-0.521
			c0.359-0.232,0.877-0.385,1.425-0.385c1.326,0,1.648,0.905,1.648,1.774v1.623c0,0.375,0.018,0.743,0.072,1.038H36.453z
			 M36.335,129.187c-0.86-0.017-1.837,0.136-1.837,0.978c0,0.512,0.341,0.753,0.744,0.753c0.564,0,0.923-0.358,1.049-0.726
			c0.026-0.081,0.043-0.171,0.043-0.251V129.187z"/>
		<path fill="#B3B2B3" d="M40.274,128.479c0-0.555-0.018-1.004-0.037-1.416h0.709l0.035,0.743h0.018
			c0.324-0.528,0.833-0.842,1.541-0.842c1.049,0,1.837,0.888,1.837,2.205c0,1.559-0.949,2.329-1.97,2.329
			c-0.575,0-1.076-0.251-1.336-0.68h-0.018v2.356h-0.779V128.479z M41.053,129.636c0,0.117,0.018,0.224,0.035,0.322
			c0.144,0.547,0.62,0.923,1.184,0.923c0.834,0,1.317-0.681,1.317-1.676c0-0.869-0.457-1.612-1.291-1.612
			c-0.538,0-1.039,0.385-1.191,0.976c-0.028,0.1-0.054,0.216-0.054,0.323V129.636z"/>
		<path fill="#B3B2B3" d="M47.776,131.4l-0.063-0.546h-0.026c-0.242,0.34-0.708,0.645-1.326,0.645c-0.879,0-1.328-0.618-1.328-1.245
			c0-1.049,0.934-1.622,2.608-1.613v-0.089c0-0.359-0.098-1.004-0.984-1.004c-0.405,0-0.825,0.125-1.129,0.322l-0.181-0.521
			c0.359-0.232,0.879-0.385,1.426-0.385c1.326,0,1.649,0.905,1.649,1.774v1.623c0,0.375,0.018,0.743,0.072,1.038H47.776z
			 M47.661,129.187c-0.862-0.017-1.837,0.136-1.837,0.978c0,0.512,0.34,0.753,0.742,0.753c0.566,0,0.923-0.358,1.049-0.726
			c0.026-0.081,0.045-0.171,0.045-0.251V129.187z"/>
		<path fill="#B3B2B3" d="M49.697,128.416c0-0.51-0.009-0.948-0.037-1.353h0.69l0.028,0.853h0.035
			c0.198-0.584,0.672-0.951,1.201-0.951c0.089,0,0.152,0.009,0.224,0.027v0.743c-0.081-0.018-0.161-0.026-0.27-0.026
			c-0.555,0-0.949,0.421-1.058,1.012c-0.018,0.108-0.035,0.233-0.035,0.368v2.312h-0.779V128.416z"/>
		<path fill="#B3B2B3" d="M54.986,131.4l-0.063-0.546h-0.026c-0.243,0.34-0.709,0.645-1.327,0.645c-0.877,0-1.326-0.618-1.326-1.245
			c0-1.049,0.932-1.622,2.607-1.613v-0.089c0-0.359-0.098-1.004-0.986-1.004c-0.403,0-0.825,0.125-1.129,0.322l-0.179-0.521
			c0.359-0.232,0.877-0.385,1.425-0.385c1.326,0,1.648,0.905,1.648,1.774v1.623c0,0.375,0.018,0.743,0.072,1.038H54.986z
			 M54.869,129.187c-0.86-0.017-1.837,0.136-1.837,0.978c0,0.512,0.341,0.753,0.744,0.753c0.564,0,0.923-0.358,1.049-0.726
			c0.026-0.081,0.044-0.171,0.044-0.251V129.187z"/>
		<path fill="#B3B2B3" d="M59.247,129.376c0.018,1.066,0.698,1.505,1.486,1.505c0.564,0,0.905-0.099,1.201-0.224l0.134,0.564
			c-0.277,0.125-0.752,0.269-1.441,0.269c-1.337,0-2.133-0.878-2.133-2.186c0-1.309,0.771-2.34,2.032-2.34
			c1.417,0,1.794,1.246,1.794,2.044c0,0.161-0.018,0.287-0.028,0.367H59.247z M61.559,128.812c0.009-0.502-0.207-1.281-1.095-1.281
			c-0.797,0-1.147,0.733-1.208,1.281H61.559z"/>
		<path fill="#B3B2B3" d="M63.19,130.595c0.233,0.152,0.646,0.313,1.04,0.313c0.573,0,0.843-0.287,0.843-0.646
			c0-0.376-0.225-0.582-0.808-0.797c-0.779-0.279-1.147-0.708-1.147-1.228c0-0.699,0.566-1.273,1.498-1.273
			c0.439,0,0.824,0.126,1.066,0.27l-0.198,0.572c-0.17-0.106-0.483-0.25-0.886-0.25c-0.466,0-0.727,0.269-0.727,0.592
			c0,0.358,0.261,0.52,0.824,0.733c0.753,0.288,1.139,0.664,1.139,1.31c0,0.762-0.592,1.299-1.622,1.299
			c-0.475,0-0.914-0.116-1.219-0.296L63.19,130.595z"/>
		<path fill="#B3B2B3" d="M66.742,130.595c0.232,0.152,0.645,0.313,1.038,0.313c0.574,0,0.844-0.287,0.844-0.646
			c0-0.376-0.224-0.582-0.807-0.797c-0.779-0.279-1.147-0.708-1.147-1.228c0-0.699,0.564-1.273,1.497-1.273
			c0.438,0,0.823,0.126,1.065,0.27l-0.196,0.572c-0.17-0.106-0.483-0.25-0.888-0.25c-0.466,0-0.726,0.269-0.726,0.592
			c0,0.358,0.26,0.52,0.825,0.733c0.751,0.288,1.137,0.664,1.137,1.31c0,0.762-0.591,1.299-1.622,1.299
			c-0.475,0-0.914-0.116-1.219-0.296L66.742,130.595z"/>
		<path fill="#B3B2B3" d="M72.801,131.4l-0.063-0.546h-0.026c-0.242,0.34-0.708,0.645-1.326,0.645c-0.879,0-1.327-0.618-1.327-1.245
			c0-1.049,0.934-1.622,2.607-1.613v-0.089c0-0.359-0.098-1.004-0.984-1.004c-0.404,0-0.824,0.125-1.129,0.322l-0.181-0.521
			c0.359-0.232,0.879-0.385,1.426-0.385c1.325,0,1.649,0.905,1.649,1.774v1.623c0,0.375,0.018,0.743,0.072,1.038H72.801z
			 M72.686,129.187c-0.861-0.017-1.837,0.136-1.837,0.978c0,0.512,0.34,0.753,0.742,0.753c0.565,0,0.923-0.358,1.049-0.726
			c0.026-0.081,0.046-0.171,0.046-0.251V129.187z"/>
		<path fill="#B3B2B3" d="M79.713,131.239c-0.205,0.107-0.662,0.251-1.245,0.251c-1.308,0-2.159-0.887-2.159-2.213
			c0-1.336,0.914-2.304,2.329-2.304c0.466,0,0.879,0.117,1.093,0.224l-0.179,0.609c-0.188-0.106-0.483-0.205-0.914-0.205
			c-0.994,0-1.532,0.734-1.532,1.64c0,1.004,0.646,1.622,1.506,1.622c0.448,0,0.744-0.116,0.967-0.215L79.713,131.239z"/>
		<path fill="#B3B2B3" d="M83.04,131.4l-0.063-0.546h-0.026c-0.241,0.34-0.707,0.645-1.326,0.645c-0.879,0-1.327-0.618-1.327-1.245
			c0-1.049,0.934-1.622,2.607-1.613v-0.089c0-0.359-0.098-1.004-0.983-1.004c-0.405,0-0.825,0.125-1.13,0.322l-0.181-0.521
			c0.359-0.232,0.879-0.385,1.426-0.385c1.325,0,1.649,0.905,1.649,1.774v1.623c0,0.375,0.018,0.743,0.072,1.038H83.04z
			 M82.925,129.187c-0.861-0.017-1.837,0.136-1.837,0.978c0,0.512,0.34,0.753,0.742,0.753c0.566,0,0.923-0.358,1.049-0.726
			c0.026-0.081,0.046-0.171,0.046-0.251V129.187z"/>
		<path fill="#B3B2B3" d="M85.839,125.845c0.009,0.269-0.189,0.484-0.503,0.484c-0.276,0-0.475-0.216-0.475-0.484
			c0-0.277,0.207-0.493,0.492-0.493C85.649,125.352,85.839,125.567,85.839,125.845z M84.96,131.4v-4.337h0.79v4.337H84.96z"/>
		<path fill="#B3B2B3" d="M87.426,127.063l0.618,0.933c0.161,0.242,0.296,0.466,0.439,0.708h0.026
			c0.144-0.261,0.287-0.483,0.431-0.718l0.609-0.923H90.4l-1.478,2.098l1.523,2.239H89.55l-0.636-0.977
			c-0.172-0.251-0.315-0.492-0.468-0.752h-0.018c-0.144,0.26-0.296,0.492-0.457,0.752l-0.627,0.977h-0.868l1.541-2.214l-1.47-2.123
			H87.426z"/>
		<path fill="#B3B2B3" d="M93.61,131.4l-0.063-0.546h-0.026c-0.241,0.34-0.707,0.645-1.325,0.645c-0.88,0-1.328-0.618-1.328-1.245
			c0-1.049,0.934-1.622,2.607-1.613v-0.089c0-0.359-0.098-1.004-0.983-1.004c-0.405,0-0.825,0.125-1.13,0.322l-0.181-0.521
			c0.359-0.232,0.879-0.385,1.426-0.385c1.325,0,1.649,0.905,1.649,1.774v1.623c0,0.375,0.018,0.743,0.072,1.038H93.61z
			 M93.495,129.187c-0.861-0.017-1.837,0.136-1.837,0.978c0,0.512,0.34,0.753,0.742,0.753c0.566,0,0.923-0.358,1.049-0.726
			c0.026-0.081,0.046-0.171,0.046-0.251V129.187z"/>
	</g>
	<g opacity="0.2">
		<path fill-rule="evenodd" clip-rule="evenodd" d="M63.19,50.745c-2.59-1.188-4.459-3.082-5.851-5.463
			c-1.284-2.2-2.151-4.578-2.494-7.099c-0.318-2.318-0.481-4.656-0.69-6.988c-0.317-3.603-1.402-6.911-3.847-9.646
			c-1.9-2.126-4.305-3.466-7.096-4.065c-1.217-0.263-2.453-0.442-3.683-0.658h-3.758c-1.229,0.216-2.464,0.396-3.685,0.658
			c-2.792,0.599-5.192,1.939-7.094,4.065c-2.444,2.735-3.53,6.043-3.851,9.646c-0.205,2.333-0.366,4.67-0.685,6.988
			c-0.347,2.521-1.211,4.899-2.497,7.099c-1.392,2.381-3.259,4.275-5.849,5.463c2.955,1.48,5.83,0.326,8.823-0.376
			c-0.79,2.643-2.963,3.845-4.972,5.314c2.198,1.869,4.847,2.386,7.499,2.922c0.96,0.195,2.445-0.152,3.196-0.45
			c1.168-0.458,2.142-1.102,3.121-1.707c0.763-0.472,1.488-1.003,2.199-1.517c-0.872-2.037-1.243-4.431-1.364-6.421
			c-0.835-1.417-1.485-3-1.949-4.738c-0.594-2.216-0.778-4.475-0.771-6.756c0-0.245,0.028-4.781,0.043-5.031
			c0,0,4.893,2.837,6.73,3.009c3.247,0.307,12.698-3.009,12.698-3.009c0.014,0.25,0.045,4.786,0.045,5.031
			c0.005,2.282-0.179,4.54-0.772,6.756c-0.386,1.444-0.906,2.772-1.545,3.999c0.217,0.526,0.361,1.097,0.399,1.695
			c0.04,0.65-0.018,1.286-0.261,1.896c-0.034,0.082-0.079,0.156-0.114,0.236c-0.299,1.301-0.643,2.541-1.142,3.797
			c0.501,0.362,1.014,0.722,1.548,1.052c0.979,0.605,1.954,1.249,3.121,1.707c0.75,0.297,2.236,0.645,3.196,0.45
			c2.651-0.536,5.301-1.053,7.5-2.922c-2.01-1.469-4.183-2.671-4.971-5.314C57.36,51.07,60.238,52.225,63.19,50.745z"/>
		<g>
			<path fill-rule="evenodd" clip-rule="evenodd" fill="#808080" d="M98.16,69.702c-0.234-5.584,0.009-9.414-5.171-11.457
				c-1.053-0.413-2.226-0.681-3.354-0.708c-3.466-0.091-6.935-0.033-10.532,0.076c0.214,0.165,0.437,0.322,0.642,0.5
				c0.793,0.69,0.779,1.439-0.006,2.14c-0.578,0.515-1.144,1.044-1.695,1.585c-0.625,0.611-0.793,1.325-0.45,2.159
				c1.188,2.85,2.342,5.714,3.55,8.555c0.479,1.123,0.435,2.106-0.296,3.133c-1.323,1.853-2.567,3.766-3.844,5.651
				c-0.102,0.147-0.212,0.292-0.324,0.433c-0.135,0.161-0.271,0.274-0.409,0.333c-0.137-0.059-0.275-0.172-0.41-0.333
				c-0.113-0.141-0.223-0.285-0.322-0.433c-1.278-1.886-2.523-3.799-3.848-5.651c-0.729-1.026-0.771-2.01-0.294-3.133
				c1.208-2.84,2.364-5.705,3.548-8.555c0.347-0.834,0.177-1.548-0.45-2.159c-0.55-0.541-1.117-1.07-1.693-1.585
				c-0.786-0.701-0.797-1.45-0.007-2.14c0.15-0.133,0.312-0.247,0.472-0.369c-0.178-0.055-0.372-0.088-0.545-0.149
				c-3.338-0.093-6.583-0.144-9.817-0.058c-1.124,0.026-2.301,0.294-3.351,0.708c-1.524,0.601-2.575,1.361-3.32,2.27
				c-2.642-1.124-5.419-1.93-8.384-2.717c2.238,2.703,4.083,5.438,2.76,9.091c-1.509-0.967-2.996-1.917-4.338-2.779
				c-2.488,3.18-4.761,6.079-7.031,8.986c-0.531,0.682-1.06,1.045-1.588,1.094c-0.527-0.049-1.058-0.412-1.588-1.094
				c-2.268-2.907-4.543-5.806-7.033-8.986c-1.341,0.862-2.826,1.812-4.334,2.779c-1.326-3.653,0.52-6.388,2.758-9.091
				c-2.969,0.787-5.748,1.594-8.39,2.721c-4.102,1.742-5.571,5.248-5.902,9.45c-0.299,3.836,0.144,33.288,4.268,34.983h20.197h0.047
				h20.108h0.091h36.822c0.694-0.357,1.432-0.651,2.067-1.095c0.833-0.576,1.22-1.479,1.387-2.468c0.04-0.226,0.06-0.462,0.06-0.699
				C98.206,96.343,98.339,74.042,98.16,69.702z"/>
			<path d="M90.618,30.994c-0.06-0.24-0.073-0.466-0.099-0.692c-2.029-7.597-7.659-13.081-14.281-13.081
				c-8.328,0-15.102,8.656-15.102,19.297c0,0.313,0.038,0.611,0.049,0.92c0.394,0.673,0.773,1.354,1.155,2.045
				c0.344,0.627,0.702,1.244,1.057,1.865c0.338-0.016,0.679-0.041,1.017-0.045c0.229-0.007,0.428,0.046,0.64,0.075
				c-0.362-1.533-0.561-3.165-0.561-4.859c0-0.59,0.026-1.172,0.073-1.745c1.28,0.526,3.333,0.905,6.638,0.905
				c6.737,0,12.791-1.565,16.463-2.774c0.2,1.164,0.317,2.369,0.317,3.614c0,1.755-0.218,3.44-0.607,5.021
				c0.365,0.011,0.725,0.023,1.087,0.036c0.091-0.341,0.174-0.686,0.294-1.014c0.589-1.59,2.006-3.436,2.366-5.135
				C91.005,33.938,90.968,32.417,90.618,30.994z"/>
		</g>
	</g>
	<g>
		<path fill="#AAAAAA" d="M58.289,90.225h-6.497v-1.104c0-1.46,0.163-2.537,0.49-3.231c0.326-0.695,0.921-1.234,1.786-1.619
			l1.191-0.525c0.898-0.397,1.348-0.958,1.348-1.682c0-0.42-0.146-0.776-0.438-1.068c-0.292-0.292-0.648-0.438-1.068-0.438
			c-1.146,0-1.716,0.793-1.716,2.382h-6.042c0-2.125,0.49-3.859,1.471-5.201c0.723-0.993,1.664-1.781,2.819-2.364
			c1.156-0.584,2.352-0.876,3.59-0.876c2.194,0,4.042,0.727,5.542,2.181c1.499,1.453,2.25,3.254,2.25,5.402
			c0,2.649-1.075,4.512-3.222,5.586c-0.7,0.351-1.128,0.653-1.278,0.911C58.364,88.835,58.289,89.384,58.289,90.225z M55.154,91.152
			c1.144,0,2.128,0.414,2.95,1.243c0.823,0.828,1.235,1.815,1.235,2.96c0,1.144-0.41,2.115-1.227,2.916
			c-0.817,0.798-1.804,1.199-2.959,1.199c-1.203,0-2.193-0.389-2.968-1.165c-0.778-0.776-1.165-1.766-1.165-2.968
			c0-1.168,0.403-2.157,1.208-2.969S54.009,91.152,55.154,91.152z"/>
	</g>
	<g>
		<path fill="#F2F2F2" stroke="#989898" stroke-width="0.8966" stroke-miterlimit="10" d="M82.829,79.018
			c-1.201-1.25-3.008-1.46-4.036-0.471c-0.687,0.66-0.85,1.687-0.525,2.668c-0.228,0.068-0.452,0.146-0.673,0.232
			c-1.144-0.771-2.562-0.794-3.427,0.04c-0.72,0.692-0.863,1.792-0.475,2.816l-0.368,0.354c-1.19-1.03-2.822-1.151-3.78-0.229
			c-1.03,0.989-0.888,2.804,0.312,4.053l0.231,0.239c-0.028,0.067-0.057,0.139-0.084,0.208l-2.298-2.389l-0.186-0.151l-5.121-5.319
			c-1.007-0.826-2.301-1.017-3.243-0.5l-0.814,0.782c-0.614,1.026-0.369,2.525,0.668,3.604l1.583,1.644
			c-0.006,0-0.009,0-0.015,0.001l1.117,1.16c0.004-0.001,0.008-0.002,0.011-0.003l0.72,0.748l0,0l1.54,1.601v-0.001l6.436,6.688
			l-2.848-0.47c-2.166-0.359-4.117,0.544-4.362,2.017c-0.243,1.474,1.315,2.956,3.479,3.314l10.623,1.756
			c0,0,0.012,0.005,0.028,0.015c0.433,0.213,6.127,2.863,11.686-2.485c5.738-5.521,3.115-11.665,3.077-11.756
			c-0.002-0.001-0.002-0.005-0.002-0.005v0.001c-0.397-0.767-0.909-1.491-1.541-2.147L82.829,79.018z"/>
		<g>
			<g>
				<g>
					
						<line fill="none" stroke="#CCCBCB" stroke-width="0.9051" stroke-linecap="round" stroke-miterlimit="10" x1="87.558" y1="96.022" x2="80.417" y2="88.603"/>
					<g>
						<polygon fill="#CCCBCB" points="83.293,87.1 77.31,85.373 78.805,91.418 						"/>
					</g>
				</g>
			</g>
			<g>
				<g>
					
						<line fill="none" stroke="#CCCBCB" stroke-width="0.9051" stroke-linecap="round" stroke-miterlimit="10" x1="73.723" y1="88.824" x2="80.864" y2="96.245"/>
					<g>
						<polygon fill="#CCCBCB" points="77.988,97.748 83.972,99.475 82.477,93.43 						"/>
					</g>
				</g>
			</g>
		</g>
	</g>
</g>
</svg>
