<?xml version="1.0" encoding="utf-8"?>
<!-- Generator: Adobe Illustrator 16.0.0, SVG Export Plug-In . SVG Version: 6.00 Build 0)  -->
<!DOCTYPE svg PUBLIC "-//W3C//DTD SVG 1.1//EN" "http://www.w3.org/Graphics/SVG/1.1/DTD/svg11.dtd">
<svg version="1.1" id="Layer_1" xmlns="http://www.w3.org/2000/svg" xmlns:xlink="http://www.w3.org/1999/xlink" x="0px" y="0px"
	 width="103px" height="67px" viewBox="0 0 103 67" enable-background="new 0 0 103 67" xml:space="preserve">
<path fill="#CECECD" d="M84.333,51.776l-11.164-5.188v4.495h-9.381c0.461-1.138,0.718-2.387,0.718-3.697v-0.812v-4.226v-6.903
	c0-1.861-1.24-3.368-2.771-3.368c-1.024,0-1.912,0.673-2.396,1.671c-0.224-0.115-0.453-0.223-0.689-0.32
	c-0.312-1.448-1.392-2.52-2.682-2.52c-1.073,0-2.003,0.743-2.462,1.826h-0.549c-0.153-1.685-1.327-2.993-2.754-2.993
	c-1.532,0-2.775,1.508-2.775,3.367v0.357c-0.072,0.031-0.146,0.065-0.218,0.098V17.229c0,0-0.049-0.037-0.129-0.089
	c-0.427-0.456-2.633-2.533-5.28-0.033c-0.097,0.071-0.138,0.122-0.138,0.122v22.715l-1.854-2.483
	c-1.408-1.89-3.591-2.643-4.875-1.687c-1.286,0.958-1.185,3.267,0.226,5.153l6.907,9.265c0.092,0.305,0.2,0.602,0.319,0.892H30.324
	v-4.495l-11.658,5.188l11.658,5.188V52.47h12.76C44.733,55.188,47.66,57,51.007,57h4.155c3.343,0,6.269-1.813,7.92-4.53h10.087
	v4.495L84.333,51.776z"/>
</svg>
