<?xml version="1.0" encoding="utf-8"?>
<!-- Generator: Adobe Illustrator 16.0.0, SVG Export Plug-In . SVG Version: 6.00 Build 0)  -->
<!DOCTYPE svg PUBLIC "-//W3C//DTD SVG 1.1//EN" "http://www.w3.org/Graphics/SVG/1.1/DTD/svg11.dtd">
<svg version="1.1" id="Layer_1" xmlns="http://www.w3.org/2000/svg" xmlns:xlink="http://www.w3.org/1999/xlink" x="0px" y="0px"
	 width="600px" height="288px" viewBox="0 0 600 288" enable-background="new 0 0 600 288" xml:space="preserve">
<g>
	<polygon fill="#8AC53F" points="52.605,264.865 7.425,264.865 7.425,18.789 10.894,18.789 10.894,261.396 52.605,261.396 	"/>
</g>
<g>
	<g>
		<polygon fill="#8AC53F" points="49.569,252.753 67.541,263.131 49.569,273.509 		"/>
	</g>
</g>
<g>
	<g>
		<polygon fill="#8AC53F" points="592.573,264.865 547.395,264.865 547.395,261.396 589.104,261.396 589.104,18.789 592.573,18.789 
					"/>
	</g>
	<g>
		<g>
			<polygon fill="#8AC53F" points="550.431,273.509 532.459,263.131 550.431,252.753 			"/>
		</g>
	</g>
</g>
<g>
	<g>
		<g>
			<rect x="34.286" y="8.068" fill="#8AC53F" width="18.319" height="18.319"/>
		</g>
	</g>
	<rect x="7.425" y="15.667" fill="#8AC53F" width="26.861" height="3.122"/>
</g>
<g>
	<g>
		<g>
			<rect x="547.394" y="8.068" fill="#8AC53F" width="18.319" height="18.319"/>
		</g>
	</g>
	<polyline fill="#8AC53F" points="592.574,15.666 565.713,15.666 565.713,18.788 592.574,18.788 	"/>
</g>
</svg>
