<?xml version="1.0" encoding="utf-8"?>
<!-- Generator: Adobe Illustrator 16.0.0, SVG Export Plug-In . SVG Version: 6.00 Build 0)  -->
<!DOCTYPE svg PUBLIC "-//W3C//DTD SVG 1.1//EN" "http://www.w3.org/Graphics/SVG/1.1/DTD/svg11.dtd">
<svg version="1.1" id="Layer_1" xmlns="http://www.w3.org/2000/svg" xmlns:xlink="http://www.w3.org/1999/xlink" x="0px" y="0px"
	 width="110px" height="150px" viewBox="0 0 110 150" enable-background="new 0 0 110 150" xml:space="preserve">
<g opacity="0.2">
	<path d="M63.887,47.657c-2.815-1.292-4.848-3.35-6.36-5.939c-1.396-2.392-2.338-4.977-2.71-7.717
		c-0.346-2.521-0.523-5.062-0.75-7.597c-0.344-3.917-1.524-7.512-4.182-10.486c-2.065-2.311-4.68-3.768-7.714-4.419
		c-1.323-0.286-2.667-0.48-4.003-0.715h-4.085c-1.336,0.235-2.678,0.431-4.006,0.715c-3.035,0.651-5.644,2.108-7.711,4.419
		c-2.657,2.974-3.837,6.569-4.187,10.486c-0.223,2.536-0.398,5.076-0.745,7.597c-0.377,2.74-1.316,5.325-2.714,7.717
		c-1.514,2.588-3.542,4.647-6.358,5.938c3.212,1.608,6.337,0.354,9.591-0.409c-0.858,2.873-3.221,4.179-5.405,5.776
		c2.39,2.032,5.27,2.594,8.152,3.176c1.043,0.212,2.657-0.165,3.474-0.489c1.27-0.498,2.329-1.197,3.393-1.855
		c0.83-0.513,1.618-1.09,2.391-1.649c-0.948-2.214-1.351-4.817-1.483-6.98c-0.908-1.541-1.614-3.261-2.119-5.15
		c-0.646-2.409-0.846-4.865-0.838-7.345c0-0.266,0.03-5.197,0.047-5.469c0,0,5.319,3.084,7.316,3.271
		c3.529,0.333,13.803-3.271,13.803-3.271c0.016,0.271,0.049,5.203,0.049,5.469c0.005,2.481-0.195,4.936-0.839,7.345
		c-0.42,1.569-0.985,3.013-1.68,4.347c0.236,0.572,0.393,1.193,0.434,1.843c0.043,0.707-0.019,1.398-0.284,2.061
		c-0.037,0.09-0.086,0.17-0.124,0.257c-0.325,1.414-0.698,2.762-1.241,4.127c0.544,0.394,1.102,0.785,1.682,1.144
		c1.064,0.658,2.125,1.357,3.393,1.855c0.815,0.324,2.431,0.702,3.474,0.49c2.882-0.583,5.762-1.145,8.153-3.176
		c-2.185-1.598-4.548-2.904-5.404-5.777C57.549,48.01,60.679,49.266,63.887,47.657z"/>
	<g>
		<path fill="#808080" d="M101.902,68.265c-0.255-6.07,0.01-10.234-5.622-12.455c-1.145-0.449-2.419-0.74-3.646-0.77
			c-3.767-0.1-7.538-0.036-11.447,0.083c0.231,0.179,0.474,0.35,0.697,0.543c0.862,0.75,0.846,1.565-0.008,2.326
			c-0.627,0.56-1.242,1.135-1.842,1.723c-0.679,0.665-0.861,1.441-0.489,2.348c1.292,3.098,2.546,6.211,3.86,9.3
			c0.52,1.221,0.472,2.289-0.322,3.405c-1.438,2.013-2.791,4.093-4.179,6.142c-0.111,0.159-0.23,0.317-0.354,0.472
			c-0.146,0.174-0.293,0.298-0.443,0.361c-0.148-0.063-0.299-0.188-0.445-0.361c-0.123-0.154-0.242-0.31-0.351-0.472
			c-1.389-2.05-2.743-4.13-4.183-6.142c-0.793-1.114-0.839-2.184-0.32-3.405c1.313-3.087,2.571-6.202,3.857-9.3
			c0.377-0.907,0.192-1.683-0.489-2.348c-0.598-0.588-1.215-1.163-1.84-1.723c-0.855-0.761-0.867-1.576-0.009-2.326
			c0.164-0.145,0.34-0.269,0.515-0.401c-0.194-0.06-0.406-0.096-0.593-0.162c-3.629-0.102-7.157-0.157-10.673-0.063
			c-1.221,0.028-2.501,0.319-3.642,0.77c-1.659,0.653-2.801,1.479-3.609,2.468c-2.873-1.222-5.892-2.098-9.114-2.954
			c2.432,2.938,4.438,5.911,3,9.882c-1.641-1.051-3.257-2.084-4.716-3.021c-2.704,3.457-5.175,6.608-7.643,9.769
			c-0.577,0.741-1.152,1.135-1.727,1.188c-0.572-0.053-1.149-0.447-1.726-1.188c-2.466-3.16-4.938-6.312-7.646-9.769
			c-1.458,0.937-3.072,1.97-4.711,3.021c-1.442-3.971,0.565-6.944,2.998-9.882c-3.228,0.855-6.249,1.733-9.121,2.958
			c-4.459,1.895-6.056,5.705-6.416,10.273c-0.325,4.17,0.156,36.184,4.64,38.027h21.955h0.052h21.858h0.099h40.028
			c0.753-0.388,1.557-0.708,2.246-1.19c0.906-0.626,1.327-1.608,1.508-2.684c0.044-0.245,0.065-0.501,0.065-0.76
			C101.951,97.225,102.096,72.982,101.902,68.265z"/>
		<path d="M93.703,26.187c-0.064-0.261-0.079-0.507-0.107-0.752c-2.205-8.258-8.327-14.22-15.524-14.22
			c-9.053,0-16.416,9.409-16.416,20.977c0,0.34,0.04,0.664,0.053,1c0.429,0.731,0.84,1.472,1.255,2.223
			c0.374,0.682,0.763,1.353,1.148,2.028c0.367-0.017,0.739-0.044,1.106-0.049c0.249-0.008,0.465,0.05,0.696,0.081
			c-0.395-1.666-0.61-3.44-0.61-5.281c0-0.642,0.029-1.274,0.079-1.897c1.392,0.572,3.623,0.984,7.217,0.984
			c7.323,0,13.904-1.702,17.896-3.016c0.218,1.265,0.346,2.575,0.346,3.929c0,1.907-0.238,3.739-0.661,5.458
			c0.397,0.011,0.787,0.025,1.183,0.039c0.098-0.371,0.189-0.746,0.318-1.102c0.642-1.729,2.181-3.735,2.572-5.583
			C94.124,29.387,94.084,27.733,93.703,26.187z"/>
	</g>
</g>
<g>
	<path fill="#F2F2F2" stroke="#989898" stroke-width="1.6271" stroke-miterlimit="10" d="M67.808,52.772
		c-2.283-2.165-5.578-2.39-7.356-0.511c-1.19,1.254-1.396,3.13-0.726,4.882c-0.407,0.143-0.806,0.303-1.198,0.478
		c-2.14-1.302-4.713-1.224-6.21,0.361c-1.249,1.318-1.414,3.324-0.623,5.146L51.058,63.8c-2.246-1.765-5.214-1.846-6.872-0.093
		c-1.781,1.879-1.371,5.158,0.911,7.319l0.438,0.416c-0.044,0.122-0.091,0.256-0.135,0.382l-4.368-4.135l-0.35-0.256l-9.735-9.21
		c-1.894-1.411-4.257-1.647-5.92-0.632l-1.41,1.489c-1.024,1.911-0.455,4.607,1.517,6.476l3.01,2.846
		c-0.012,0.001-0.018,0.001-0.028,0.001l2.124,2.009c0.007-0.002,0.014-0.005,0.019-0.007l1.368,1.295l0,0l2.928,2.77l0,0
		L46.79,86.046l-5.202-0.612c-3.957-0.465-7.417,1.338-7.738,4.028c-0.314,2.693,2.635,5.247,6.589,5.714l19.405,2.281
		c0,0,0.023,0.008,0.053,0.024c0.803,0.351,11.35,4.671,20.971-5.495c9.935-10.494,4.659-21.407,4.582-21.571
		c-0.004,0.001-0.004-0.007-0.004-0.007l0,0c-0.786-1.356-1.774-2.624-2.977-3.761L67.808,52.772z"/>
	<g>
		<g>
			<g>
				
					<line fill="none" stroke="#CCCBCB" stroke-width="1.6425" stroke-linecap="round" stroke-miterlimit="10" x1="77.823" y1="83.193" x2="64.248" y2="70.354"/>
				<g>
					<polygon fill="#CCCBCB" points="69.334,67.383 58.344,64.761 61.563,75.591 					"/>
				</g>
			</g>
		</g>
		<g>
			<g>
				
					<line fill="none" stroke="#CCCBCB" stroke-width="1.6425" stroke-linecap="round" stroke-miterlimit="10" x1="52.132" y1="71.321" x2="65.707" y2="84.166"/>
				<g>
					<polygon fill="#CCCBCB" points="60.622,87.135 71.617,89.756 68.392,78.927 					"/>
				</g>
			</g>
		</g>
	</g>
</g>
<g>
	<path fill="#C1C1C1" d="M25.99,125.866l-0.475-1.806h-3.131l-0.488,1.806h-2.86l3.144-9.676h3.473l3.184,9.676H25.99z
		 M24.975,121.925l-0.415-1.582c-0.097-0.352-0.214-0.806-0.353-1.364c-0.138-0.558-0.229-0.958-0.273-1.199
		c-0.04,0.224-0.118,0.593-0.234,1.107c-0.117,0.514-0.375,1.526-0.774,3.038H24.975z"/>
	<path fill="#C1C1C1" d="M32.482,122.359v3.507h-2.604v-9.636h3.157c2.619,0,3.928,0.949,3.928,2.847
		c0,1.116-0.545,1.979-1.634,2.591l2.808,4.198h-2.953l-2.043-3.507H32.482z M32.482,120.402h0.487c0.91,0,1.365-0.402,1.365-1.206
		c0-0.663-0.446-0.995-1.338-0.995h-0.514V120.402z"/>
	<path fill="#C1C1C1" d="M41.617,122.359v3.507h-2.604v-9.636h3.157c2.619,0,3.928,0.949,3.928,2.847
		c0,1.116-0.545,1.979-1.634,2.591l2.808,4.198h-2.953l-2.043-3.507H41.617z M41.617,120.402h0.487c0.91,0,1.365-0.402,1.365-1.206
		c0-0.663-0.446-0.995-1.338-0.995h-0.514V120.402z"/>
	<path fill="#C1C1C1" d="M54.061,125.866l-0.475-1.806h-3.131l-0.488,1.806h-2.86l3.144-9.676h3.473l3.184,9.676H54.061z
		 M53.046,121.925l-0.415-1.582c-0.097-0.352-0.214-0.806-0.353-1.364c-0.138-0.558-0.229-0.958-0.273-1.199
		c-0.04,0.224-0.118,0.593-0.234,1.107c-0.117,0.514-0.375,1.526-0.774,3.038H53.046z"/>
	<path fill="#C1C1C1" d="M64.251,122.939c0,0.598-0.152,1.129-0.455,1.592c-0.304,0.464-0.74,0.824-1.312,1.081
		s-1.241,0.386-2.011,0.386c-0.642,0-1.18-0.045-1.614-0.135c-0.436-0.091-0.888-0.247-1.358-0.472v-2.32
		c0.497,0.255,1.013,0.454,1.549,0.597s1.028,0.215,1.477,0.215c0.387,0,0.67-0.067,0.851-0.201c0.18-0.135,0.271-0.307,0.271-0.518
		c0-0.132-0.037-0.247-0.109-0.346c-0.072-0.1-0.188-0.199-0.349-0.301c-0.161-0.101-0.588-0.307-1.282-0.619
		c-0.629-0.285-1.1-0.563-1.414-0.83c-0.314-0.269-0.547-0.576-0.698-0.923c-0.151-0.348-0.228-0.758-0.228-1.232
		c0-0.888,0.323-1.58,0.969-2.076c0.646-0.497,1.533-0.745,2.663-0.745c0.997,0,2.015,0.23,3.052,0.692l-0.798,2.01
		c-0.901-0.413-1.679-0.619-2.333-0.619c-0.339,0-0.585,0.06-0.738,0.178c-0.154,0.118-0.23,0.266-0.23,0.441
		c0,0.189,0.098,0.358,0.293,0.508s0.726,0.422,1.592,0.817c0.83,0.373,1.407,0.774,1.729,1.202
		C64.089,121.75,64.251,122.29,64.251,122.939z"/>
	<path fill="#C1C1C1" d="M69.991,125.866h-2.604v-7.507h-2.354v-2.129h7.303v2.129h-2.346V125.866z"/>
	<path fill="#C1C1C1" d="M79.437,125.866h-5.722v-9.636h5.722v2.089h-3.118v1.517h2.887v2.089h-2.887v1.819h3.118V125.866z"/>
	<path fill="#C1C1C1" d="M90.351,125.866h-5.722v-9.636h5.722v2.089h-3.118v1.517h2.887v2.089h-2.887v1.819h3.118V125.866z"/>
	<path fill="#C1C1C1" d="M21.976,139.138c0,0.598-0.151,1.129-0.455,1.592c-0.303,0.464-0.741,0.824-1.312,1.081
		c-0.571,0.257-1.242,0.386-2.01,0.386c-0.642,0-1.18-0.045-1.615-0.135c-0.435-0.091-0.887-0.247-1.357-0.472v-2.32
		c0.497,0.255,1.013,0.454,1.549,0.597s1.028,0.215,1.477,0.215c0.386,0,0.67-0.067,0.85-0.201c0.18-0.135,0.27-0.307,0.27-0.518
		c0-0.132-0.036-0.247-0.108-0.346c-0.073-0.1-0.189-0.199-0.35-0.301c-0.16-0.101-0.588-0.307-1.282-0.619
		c-0.628-0.285-1.1-0.563-1.414-0.83c-0.314-0.269-0.547-0.576-0.698-0.923c-0.152-0.348-0.228-0.758-0.228-1.232
		c0-0.888,0.323-1.58,0.969-2.076c0.646-0.497,1.534-0.745,2.663-0.745c0.998,0,2.015,0.23,3.052,0.692l-0.797,2.01
		c-0.901-0.413-1.679-0.619-2.333-0.619c-0.338,0-0.584,0.06-0.738,0.178c-0.154,0.118-0.231,0.266-0.231,0.441
		c0,0.189,0.098,0.358,0.293,0.508c0.195,0.149,0.726,0.422,1.592,0.817c0.83,0.373,1.407,0.774,1.73,1.202
		C21.814,137.948,21.976,138.488,21.976,139.138z"/>
	<path fill="#C1C1C1" d="M32.482,137.233c0,1.621-0.397,2.854-1.193,3.697s-1.959,1.266-3.493,1.266
		c-1.512,0-2.67-0.424-3.477-1.272c-0.807-0.848-1.209-2.082-1.209-3.704c0-1.604,0.401-2.828,1.203-3.674s1.967-1.269,3.497-1.269
		c1.534,0,2.696,0.419,3.487,1.259C32.086,134.375,32.482,135.607,32.482,137.233z M25.852,137.233c0,1.863,0.648,2.795,1.944,2.795
		c0.659,0,1.148-0.227,1.466-0.68c0.319-0.452,0.478-1.157,0.478-2.115c0-0.962-0.162-1.673-0.484-2.132
		c-0.323-0.46-0.805-0.689-1.447-0.689C26.504,134.412,25.852,135.353,25.852,137.233z"/>
	<path fill="#C1C1C1" d="M34.222,142.064v-9.636h2.604v7.533h3.71v2.103H34.222z"/>
	<path fill="#C1C1C1" d="M46.33,142.064h-2.604v-7.507h-2.353v-2.129h7.303v2.129H46.33V142.064z"/>
	<path fill="#C1C1C1" d="M55.774,142.064h-5.721v-9.636h5.721v2.089h-3.117v1.517h2.887v2.089h-2.887v1.819h3.117V142.064z"/>
	<path fill="#C1C1C1" d="M66.88,142.064l-0.475-1.806h-3.13l-0.488,1.806h-2.86l3.144-9.676h3.474l3.184,9.676H66.88z
		 M65.865,138.123l-0.415-1.582c-0.097-0.352-0.215-0.806-0.353-1.364c-0.139-0.558-0.229-0.958-0.273-1.199
		c-0.04,0.224-0.118,0.593-0.234,1.107c-0.116,0.514-0.375,1.526-0.774,3.038H65.865z"/>
	<path fill="#C1C1C1" d="M79.785,137.233c0,2.184-0.694,3.655-2.083,4.416l2.354,2.709h-3.243l-1.7-2.143l-0.007-0.007v-0.006
		l-0.006-0.007c-1.512,0-2.671-0.424-3.478-1.272c-0.806-0.848-1.209-2.082-1.209-3.704c0-1.604,0.4-2.828,1.203-3.674
		c0.802-0.846,1.967-1.269,3.496-1.269c1.533,0,2.695,0.419,3.486,1.259C79.39,134.375,79.785,135.607,79.785,137.233z
		 M73.155,137.233c0,1.863,0.647,2.795,1.944,2.795c0.658,0,1.147-0.227,1.466-0.68c0.318-0.452,0.479-1.157,0.479-2.115
		c0-0.962-0.162-1.673-0.485-2.132c-0.322-0.46-0.805-0.689-1.446-0.689C73.808,134.412,73.155,135.353,73.155,137.233z"/>
	<path fill="#C1C1C1" d="M89.718,132.429v5.8c0,1.261-0.357,2.237-1.071,2.93s-1.743,1.038-3.088,1.038
		c-1.314,0-2.323-0.336-3.028-1.009c-0.706-0.672-1.059-1.639-1.059-2.899v-5.859h2.617v5.655c0,0.681,0.127,1.175,0.382,1.482
		s0.631,0.462,1.127,0.462c0.532,0,0.917-0.153,1.157-0.459c0.239-0.305,0.359-0.805,0.359-1.499v-5.642H89.718z"/>
	<path fill="#C1C1C1" d="M91.741,142.064v-9.636h2.617v9.636H91.741z"/>
</g>
</svg>
