<?xml version="1.0" encoding="utf-8"?>
<!-- Generator: Adobe Illustrator 16.0.0, SVG Export Plug-In . SVG Version: 6.00 Build 0)  -->
<!DOCTYPE svg PUBLIC "-//W3C//DTD SVG 1.1//EN" "http://www.w3.org/Graphics/SVG/1.1/DTD/svg11.dtd">
<svg version="1.1" id="Layer_1" xmlns="http://www.w3.org/2000/svg" xmlns:xlink="http://www.w3.org/1999/xlink" x="0px" y="0px"
	 width="244.5px" height="40px" viewBox="0 0 244.5 40" enable-background="new 0 0 244.5 40" xml:space="preserve">
<path fill="#CECECD" d="M145.395,32.749l-7.87-3.655v3.169h-6.612c0.324-0.802,0.507-1.684,0.507-2.607v-0.572v-2.979v-4.865
	c0-1.313-0.875-2.373-1.953-2.373c-0.722,0-1.349,0.474-1.688,1.177c-0.159-0.081-0.32-0.157-0.485-0.226
	c-0.22-1.02-0.981-1.775-1.891-1.775c-0.758,0-1.411,0.523-1.737,1.287h-0.387c-0.107-1.188-0.935-2.11-1.941-2.11
	c-1.079,0-1.956,1.064-1.956,2.373v0.252c-0.051,0.021-0.103,0.045-0.153,0.068V8.398c0,0-0.035-0.025-0.092-0.062
	c-0.301-0.321-1.856-1.786-3.722-0.023c-0.067,0.051-0.097,0.086-0.097,0.086v16.01l-1.307-1.749
	c-0.993-1.333-2.532-1.861-3.436-1.189c-0.908,0.677-0.835,2.304,0.159,3.635l4.869,6.528c0.065,0.216,0.141,0.425,0.226,0.628
	h-8.503v-3.168l-8.217,3.658l8.217,3.655v-3.167h8.996c1.161,1.914,3.226,3.192,5.585,3.192h2.929c2.355,0,4.419-1.278,5.583-3.192
	h7.108v3.167L145.395,32.749z"/>
<g>
	<polygon fill="#CECECD" points="13.156,36.338 10.581,31.875 8.003,27.412 13.156,27.412 18.309,27.412 15.732,31.875 	"/>
	<polygon opacity="0.7" fill="#CECECD" enable-background="new    " points="13.156,24.463 10.581,20 8.003,15.538 13.156,15.538 
		18.309,15.538 15.732,20 	"/>
	<polygon opacity="0.4" fill="#CECECD" enable-background="new    " points="13.156,12.587 10.581,8.125 8.003,3.663 13.156,3.663 
		18.309,3.663 15.732,8.125 	"/>
</g>
<g>
	<polygon fill="#CECECD" points="231.341,36.338 228.765,31.875 226.187,27.412 231.341,27.412 236.492,27.412 233.916,31.875 	"/>
	<polygon opacity="0.7" fill="#CECECD" enable-background="new    " points="231.341,24.463 228.765,20 226.187,15.538 
		231.341,15.538 236.492,15.538 233.916,20 	"/>
	<polygon opacity="0.4" fill="#CECECD" enable-background="new    " points="231.341,12.587 228.765,8.125 226.187,3.666 
		231.341,3.666 236.492,3.666 233.916,8.125 	"/>
</g>
</svg>
