<?xml version="1.0" encoding="utf-8"?>
<!-- Generator: Adobe Illustrator 16.0.0, SVG Export Plug-In . SVG Version: 6.00 Build 0)  -->
<!DOCTYPE svg PUBLIC "-//W3C//DTD SVG 1.1//EN" "http://www.w3.org/Graphics/SVG/1.1/DTD/svg11.dtd">
<svg version="1.1" xmlns="http://www.w3.org/2000/svg" xmlns:xlink="http://www.w3.org/1999/xlink" x="0px" y="0px" width="309px"
	 height="497px" viewBox="0 0 309 497" enable-background="new 0 0 309 497" xml:space="preserve">
<g id="Layer_2">
</g>
<g id="background">
	<polyline opacity="0.7" fill="none" stroke="#D8D8D8" stroke-miterlimit="10" points="0,0 105,157 0,497 	"/>
	<path opacity="0.7" fill="#FFFFFF" d="M309,146"/>
	<polyline opacity="0.7" fill="none" stroke="#D8D8D8" stroke-miterlimit="10" points="309,175 105,157 130,497 	"/>
	<polyline opacity="0.7" fill="none" stroke="#D8D8D8" stroke-miterlimit="10" points="0,165 81.312,121.581 309,0 	"/>
	<polyline opacity="0.7" fill="none" stroke="#D8D8D8" stroke-miterlimit="10" points="81.312,121.581 98,0 188.529,164.37 
		127.435,462.115 309,497 	"/>
	<polyline opacity="0.7" fill="none" stroke="#D8D8D8" stroke-miterlimit="10" points="309,411 127.435,462.115 38.161,373.432 	"/>
	<polyline opacity="0.7" fill="none" stroke="#D8D8D8" stroke-miterlimit="10" points="154.5,0 243.412,429.465 250,0 	"/>
	<polyline opacity="0.7" fill="none" stroke="#D8D8D8" stroke-miterlimit="10" points="0,285 105,157 0,214 	"/>
	<g opacity="0.7">
		<circle fill="#D8D8D8" cx="246.945" cy="160.371" r="9.302"/>
		<path fill="#D8D8D8" d="M257.46,184.233v-9.072c0-2.138-2.897-3.872-6.471-3.872H242.9c-3.573,0-6.471,1.733-6.471,3.872v9.072
			H257.46z"/>
	</g>
	<g opacity="0.7">
		<circle fill="#D8D8D8" cx="38.161" cy="357.703" r="15.625"/>
		<path fill="#D8D8D8" d="M55.822,397.783v-15.236c0-3.593-4.867-6.503-10.869-6.503H31.368c-6.001,0-10.869,2.91-10.869,6.503
			v15.236H55.822z"/>
	</g>
	<g opacity="0.7">
		<circle fill="#D8D8D8" cx="128.161" cy="450.312" r="9.71"/>
		<path fill="#D8D8D8" d="M139.137,475.221v-9.469c0-2.233-3.025-4.042-6.755-4.042h-8.443c-3.73,0-6.755,1.809-6.755,4.042v9.469
			H139.137z"/>
	</g>
	<g opacity="0.7">
		<circle fill="#D8D8D8" cx="169.445" cy="70.097" r="3.903"/>
		<path fill="#D8D8D8" d="M173.856,80.108v-3.806c0-0.897-1.216-1.624-2.715-1.624h-3.394c-1.499,0-2.715,0.727-2.715,1.624v3.806
			H173.856z"/>
	</g>
	<g opacity="0.7">
		<circle fill="#D8D8D8" cx="81.312" cy="116.64" r="3.208"/>
		<path fill="#D8D8D8" d="M84.938,124.87v-3.128c0-0.738-1-1.335-2.231-1.335h-2.79c-1.232,0-2.231,0.598-2.231,1.335v3.128H84.938z
			"/>
	</g>
	<g opacity="0.7">
		<circle fill="#D8D8D8" cx="105" cy="145.125" r="9.957"/>
		<path fill="#D8D8D8" d="M116.255,170.667v-9.71c0-2.289-3.102-4.144-6.926-4.144h-8.658c-3.825,0-6.926,1.855-6.926,4.144v9.71
			H116.255z"/>
	</g>
	<g opacity="0.7">
		<circle fill="#D8D8D8" cx="187.993" cy="158.053" r="5.94"/>
		<path fill="#D8D8D8" d="M194.709,173.291v-5.793c0-1.366-1.851-2.472-4.133-2.472h-5.165c-2.282,0-4.133,1.106-4.133,2.472v5.793
			H194.709z"/>
	</g>
	<g opacity="0.7">
		<circle fill="#D8D8D8" cx="144.993" cy="80.322" r="8.152"/>
		<path fill="#D8D8D8" d="M154.209,101.233v-7.949c0-1.875-2.54-3.393-5.671-3.393h-7.088c-3.132,0-5.671,1.518-5.671,3.393v7.949
			H154.209z"/>
	</g>
	<g opacity="0.7">
		<circle fill="#D8D8D8" cx="249.999" cy="28.246" r="3.139"/>
		<path fill="#D8D8D8" d="M253.548,36.297v-3.061c0-0.722-0.978-1.306-2.184-1.306h-2.729c-1.205,0-2.184,0.584-2.184,1.306v3.061
			H253.548z"/>
	</g>
	<g opacity="0.7">
		<circle fill="#D8D8D8" cx="242.439" cy="420.963" r="6.996"/>
		<path fill="#D8D8D8" d="M250.347,438.909v-6.822c0-1.608-2.179-2.912-4.865-2.912h-6.084c-2.687,0-4.865,1.304-4.865,2.912v6.822
			H250.347z"/>
	</g>
</g>
</svg>
