<?xml version="1.0" encoding="utf-8"?>
<!-- Generator: Adobe Illustrator 16.0.0, SVG Export Plug-In . SVG Version: 6.00 Build 0)  -->
<!DOCTYPE svg PUBLIC "-//W3C//DTD SVG 1.1//EN" "http://www.w3.org/Graphics/SVG/1.1/DTD/svg11.dtd">
<svg version="1.1" id="Layer_1" xmlns="http://www.w3.org/2000/svg" xmlns:xlink="http://www.w3.org/1999/xlink" x="0px" y="0px"
	 width="64px" height="64px" viewBox="0 0 64 64" enable-background="new 0 0 64 64" xml:space="preserve">
<g>
	<path fill="#B3B2B3" d="M30.628,39.679c-0.097-0.392-0.161-0.673-0.192-0.841c-0.027,0.156-0.082,0.416-0.164,0.776
		c-0.081,0.359-0.262,1.068-0.542,2.127h1.437l-0.292-1.107C30.807,40.388,30.725,40.069,30.628,39.679z"/>
	<path fill="#B3B2B3" d="M44.203,39.144c-0.914,0-1.371,0.657-1.371,1.975c0,1.306,0.454,1.958,1.361,1.958
		c0.462,0,0.805-0.158,1.028-0.475c0.223-0.317,0.335-0.812,0.335-1.483c0-0.674-0.113-1.171-0.34-1.493
		C44.99,39.305,44.652,39.144,44.203,39.144z"/>
	<path fill="#B3B2B3" d="M16.21,39.679c-0.098-0.392-0.161-0.673-0.192-0.841c-0.027,0.156-0.082,0.416-0.164,0.776
		c-0.082,0.359-0.262,1.068-0.542,2.127h1.436l-0.291-1.107C16.389,40.388,16.306,40.069,16.21,39.679z"/>
	<path fill="#B3B2B3" d="M50.879,39.134H50.52v1.542h0.341c0.638,0,0.956-0.282,0.956-0.845
		C51.816,39.366,51.504,39.134,50.879,39.134z"/>
	<path fill="#B3B2B3" d="M51.958,25.77V25.76c-3.664-4.306-8.298-6.816-13.559-8.302c-1.535-0.434-3.094-0.845-4.557-1.466
		c-2.516-1.069-4.094-2.975-4.373-5.764c-0.138-1.394-0.103-2.803-0.179-4.204c-0.124-2.285-1.111-3.456-3.384-3.742
		c-3.153-0.396-5.46,1.14-7.045,3.673c-2.539,4.057-2.071,8.287-0.257,12.469c0.543,1.257,1.278,2.431,2.04,3.857
		c-0.882,0.052-1.522,0.12-2.163,0.123c-3.614,0.013-7.228-0.045-10.84,0.029c-3.427,0.07-5.488,2.484-5.271,5.918
		c0.151,2.394,1.691,3.747,3.587,4.806c-2.566,3.947-2.173,6.208,1.53,9.394c-2.918,4.271-2.2,7.357,2.398,9.709
		c-1.676,2.816-1.882,4.817-0.706,6.813c1.372,2.329,3.573,2.733,6.049,2.707c5.754-0.057,11.51,0.031,17.263-0.042
		c2.332-0.029,4.684-0.162,6.983-0.528c4.289-0.685,8.975-2.632,12.483-5.483v-0.009h9.687V25.77H51.958z M17.458,44.503
		l-0.332-1.266h-2.193l-0.342,1.266h-2.004l2.203-6.777h2.433l2.229,6.777H17.458z M26.627,39.217h-2.193v1.287h2.022v1.465h-2.022
		v2.534h-1.796v-6.75h3.989V39.217z M31.876,44.503l-0.332-1.266h-2.193l-0.341,1.266h-2.004l2.203-6.777h2.433l2.229,6.777H31.876z
		 M38.22,44.503h-2.147l-2.201-6.75h2.05l0.92,3.421c0.19,0.762,0.295,1.29,0.313,1.589c0.021-0.215,0.063-0.485,0.129-0.808
		c0.064-0.324,0.121-0.578,0.171-0.763l0.938-3.439h2.04L38.22,44.503z M46.642,43.709c-0.558,0.591-1.373,0.887-2.448,0.887
		c-1.059,0-1.87-0.298-2.436-0.892c-0.564-0.594-0.847-1.458-0.847-2.595c0-1.124,0.281-1.981,0.843-2.574
		c0.563-0.592,1.379-0.889,2.449-0.889c1.074,0,1.889,0.294,2.442,0.882c0.554,0.589,0.831,1.452,0.831,2.59
		C47.477,42.255,47.197,43.118,46.642,43.709z M52.411,44.503l-1.43-2.455H50.52v2.455h-1.824v-6.75h2.212
		c1.834,0,2.752,0.664,2.752,1.994c0,0.782-0.382,1.387-1.146,1.814l1.967,2.941H52.411z"/>
</g>
</svg>
