<?xml version="1.0" encoding="utf-8"?>
<!-- Generator: Adobe Illustrator 16.0.0, SVG Export Plug-In . SVG Version: 6.00 Build 0)  -->
<!DOCTYPE svg PUBLIC "-//W3C//DTD SVG 1.1//EN" "http://www.w3.org/Graphics/SVG/1.1/DTD/svg11.dtd">
<svg version="1.1" id="Layer_1" xmlns="http://www.w3.org/2000/svg" xmlns:xlink="http://www.w3.org/1999/xlink" x="0px" y="0px"
	 width="64px" height="64px" viewBox="0 0 64 64" enable-background="new 0 0 64 64" xml:space="preserve">
<circle fill="#F2F2F2" stroke="#808080" stroke-width="0.6294" stroke-miterlimit="10" cx="32.223" cy="32.073" r="28.86"/>
<title>eye</title>
<path fill="#5AB947" d="M32.223,20.745c-7.905,0-14.758,4.604-18.125,11.328c3.367,6.724,10.22,11.328,18.125,11.328
	s14.758-4.604,18.125-11.328C46.98,25.35,40.128,20.745,32.223,20.745z M41.159,26.752c2.131,1.359,3.934,3.178,5.29,5.321
	c-1.356,2.142-3.159,3.963-5.29,5.321c-2.675,1.707-5.766,2.608-8.937,2.608c-3.17,0-6.261-0.901-8.937-2.608
	c-2.13-1.358-3.934-3.178-5.29-5.321c1.356-2.142,3.16-3.962,5.29-5.321c0.138-0.088,0.278-0.175,0.42-0.258
	c-0.353,0.968-0.546,2.013-0.546,3.101c0,5.004,4.058,9.062,9.063,9.062s9.063-4.058,9.063-9.062c0-1.091-0.192-2.133-0.547-3.101
	C40.88,26.577,41.02,26.664,41.159,26.752L41.159,26.752z M32.223,28.675c0,1.876-1.521,3.398-3.398,3.398
	c-1.877,0-3.398-1.522-3.398-3.398s1.521-3.398,3.398-3.398C30.702,25.276,32.223,26.799,32.223,28.675z"/>
</svg>
