<?xml version="1.0" encoding="utf-8"?>
<!-- Generator: Adobe Illustrator 16.0.0, SVG Export Plug-In . SVG Version: 6.00 Build 0)  -->
<!DOCTYPE svg PUBLIC "-//W3C//DTD SVG 1.1//EN" "http://www.w3.org/Graphics/SVG/1.1/DTD/svg11.dtd">
<svg version="1.1" id="Layer_1" xmlns="http://www.w3.org/2000/svg" xmlns:xlink="http://www.w3.org/1999/xlink" x="0px" y="0px"
	 width="23px" height="16px" viewBox="0 0 23 16" enable-background="new 0 0 23 16" xml:space="preserve">
<path fill="#676767" d="M14.154,8.792c1.384-1.817,1.032-4.421-0.784-5.805c-1.815-1.384-4.42-1.032-5.804,0.784
	c-1.222,1.604-1.088,3.82,0.209,5.27l-2.77,3.635c-0.222,0.291-0.125,0.74,0.219,1.002c0.343,0.261,0.802,0.236,1.024-0.056
	l2.77-3.634C10.76,10.854,12.933,10.396,14.154,8.792z M9.203,8.456c-1.2-0.914-1.431-2.633-0.517-3.832
	c0.915-1.2,2.633-1.432,3.833-0.518c1.199,0.914,1.431,2.633,0.517,3.833S10.402,9.371,9.203,8.456z"/>
</svg>
