<?xml version="1.0" encoding="utf-8"?>
<!-- Generator: Adobe Illustrator 16.0.0, SVG Export Plug-In . SVG Version: 6.00 Build 0)  -->
<!DOCTYPE svg PUBLIC "-//W3C//DTD SVG 1.1//EN" "http://www.w3.org/Graphics/SVG/1.1/DTD/svg11.dtd">
<svg version="1.1" id="Layer_1" xmlns="http://www.w3.org/2000/svg" xmlns:xlink="http://www.w3.org/1999/xlink" x="0px" y="0px"
	 width="64px" height="64px" viewBox="0 0 64 64" enable-background="new 0 0 64 64" xml:space="preserve">
<g>
	<path d="M47.107,23.034c-0.098-0.39-0.162-0.67-0.191-0.839c-0.027,0.157-0.083,0.416-0.164,0.775
		c-0.081,0.36-0.262,1.068-0.542,2.126h1.437l-0.291-1.106C47.286,23.743,47.204,23.424,47.107,23.034z"/>
	<path d="M19.882,22.499c-0.914,0-1.37,0.658-1.37,1.974c0,1.304,0.454,1.956,1.36,1.956c0.461,0,0.803-0.159,1.026-0.476
		c0.223-0.316,0.334-0.81,0.334-1.48c0-0.673-0.113-1.17-0.339-1.492C20.667,22.66,20.33,22.499,19.882,22.499z"/>
	<path d="M61.598,35.646c-0.15-2.393-1.689-3.744-3.582-4.801c2.563-3.943,2.17-6.201-1.529-9.383
		c2.914-4.266,2.197-7.35-2.396-9.699c1.676-2.813,1.881-4.811,0.705-6.804c-1.37-2.327-3.568-2.73-6.042-2.705
		c-5.748,0.057-11.498-0.03-17.245,0.042c-2.329,0.029-4.679,0.162-6.975,0.528c-4.285,0.685-8.965,2.629-12.47,5.478V8.31H2.387
		v29.915h9.676v0.01c3.661,4.302,8.289,6.81,13.544,8.293c1.533,0.434,3.091,0.845,4.552,1.466c2.513,1.067,4.089,2.972,4.368,5.758
		c0.138,1.392,0.104,2.8,0.179,4.199c0.123,2.282,1.108,3.452,3.38,3.737c3.148,0.396,5.455-1.14,7.038-3.67
		c2.536-4.052,2.067-8.276,0.257-12.455c-0.543-1.256-1.275-2.429-2.037-3.854c0.881-0.053,1.521-0.12,2.16-0.123
		c3.609-0.014,7.221,0.046,10.828-0.027C59.754,41.486,61.813,39.075,61.598,35.646z M13.816,26.456
		c0.298,0,0.588-0.041,0.867-0.124c0.28-0.083,0.562-0.183,0.845-0.3v1.541c-0.563,0.249-1.199,0.374-1.91,0.374
		c-1.018,0-1.797-0.295-2.34-0.886c-0.542-0.59-0.814-1.443-0.814-2.56c0-0.698,0.132-1.312,0.394-1.84
		c0.263-0.528,0.642-0.935,1.135-1.22c0.494-0.284,1.074-0.426,1.741-0.426c0.728,0,1.425,0.158,2.089,0.475l-0.558,1.435
		c-0.25-0.117-0.498-0.215-0.748-0.295c-0.248-0.08-0.516-0.12-0.801-0.12c-0.435,0-0.772,0.177-1.015,0.533
		c-0.243,0.354-0.365,0.844-0.365,1.469C12.336,25.807,12.83,26.456,13.816,26.456z M22.317,27.06
		c-0.557,0.59-1.372,0.886-2.445,0.886c-1.058,0-1.868-0.297-2.433-0.89c-0.565-0.593-0.846-1.457-0.846-2.592
		c0-1.122,0.281-1.979,0.842-2.571c0.561-0.591,1.376-0.887,2.447-0.887c1.072,0,1.886,0.293,2.439,0.881
		c0.554,0.587,0.83,1.45,0.83,2.587C23.151,25.607,22.873,26.47,22.317,27.06z M30.788,27.854h-2.389l-2.463-4.75h-0.041
		c0.058,0.747,0.087,1.317,0.087,1.711v3.04h-1.614v-6.743h2.38l2.453,4.686h0.028c-0.043-0.68-0.064-1.225-0.064-1.637v-3.048
		h1.623V27.854z M36.861,22.601h-1.641v5.253h-1.822v-5.253h-1.646v-1.49h5.108V22.601L36.861,22.601z M48.354,27.854l-0.332-1.264
		h-2.189l-0.341,1.264h-1.888l-0.076-0.115l-0.039,0.115h-1.951l-1.43-2.454h-0.461v2.454h-1.821v-6.743h2.21
		c1.832,0,2.748,0.664,2.748,1.992c0,0.781-0.383,1.385-1.145,1.813l1.889,2.823l2.162-6.655h2.431l2.228,6.771L48.354,27.854
		L48.354,27.854z"/>
	<path d="M40.006,22.49h-0.357v1.541h0.34c0.638,0,0.955-0.282,0.955-0.844C40.941,22.722,40.631,22.49,40.006,22.49z"/>
</g>
</svg>
