<?xml version="1.0" encoding="utf-8"?>
<!-- Generator: Adobe Illustrator 16.0.0, SVG Export Plug-In . SVG Version: 6.00 Build 0)  -->
<!DOCTYPE svg PUBLIC "-//W3C//DTD SVG 1.1//EN" "http://www.w3.org/Graphics/SVG/1.1/DTD/svg11.dtd">
<svg version="1.1" id="Layer_1" xmlns="http://www.w3.org/2000/svg" xmlns:xlink="http://www.w3.org/1999/xlink" x="0px" y="0px"
	 width="80px" height="120px" viewBox="0 0 80 120" enable-background="new 0 0 80 120" xml:space="preserve">
<g>
	<circle fill="#FFFFFF" cx="40" cy="48.001" r="32.223"/>
	<g>
		<path fill="#479544" d="M36.469,51.601h-9.773V44.56h9.773v-9.64h7.064v9.64h9.771v7.041h-9.771v9.483h-7.064V51.601z"/>
	</g>
	<g>
		<path fill="#5AB947" d="M18.838,86.44h1.906l-2.394,10.181h-2.411L13.558,86.44h1.908l1.33,6.219
			c0.121,0.528,0.239,1.289,0.355,2.277c0.099-0.841,0.222-1.6,0.371-2.277L18.838,86.44z"/>
		<path fill="#5AB947" d="M26.233,96.621h-4.589V86.44h4.589v1.637h-2.696v2.424h2.501v1.643h-2.501v2.821h2.696V96.621z"/>
		<path fill="#5AB947" d="M29.609,92.659v3.962h-1.895V86.44h2.48c1.05,0,1.822,0.248,2.323,0.746
			c0.498,0.496,0.747,1.255,0.747,2.276c0,1.286-0.433,2.184-1.302,2.695l1.958,4.463h-2.028l-1.608-3.962H29.609z M29.609,91.029
			h0.487c0.447,0,0.768-0.126,0.963-0.379c0.195-0.254,0.291-0.631,0.291-1.132c0-0.521-0.104-0.891-0.309-1.11
			c-0.208-0.222-0.526-0.331-0.959-0.331h-0.474V91.029z"/>
		<path fill="#5AB947" d="M42.005,96.621l-1.936-8.67h-0.076c0.087,0.669,0.133,1.282,0.133,1.839v6.831H38.37V86.44h2.911
			l1.74,8.001h0.056l1.728-8.001h2.953v10.181h-1.797v-6.9c0-0.571,0.033-1.156,0.099-1.756h-0.057l-1.93,8.656H42.005z"/>
		<path fill="#5AB947" d="M54.374,96.621l-0.586-2.569h-2.652l-0.586,2.569h-1.894l2.521-10.223h2.568l2.529,10.223H54.374z
			 M53.434,92.373l-0.542-2.367c-0.034-0.145-0.107-0.505-0.22-1.082c-0.115-0.578-0.184-0.966-0.206-1.16
			c-0.061,0.399-0.137,0.839-0.23,1.319c-0.092,0.48-0.334,1.577-0.724,3.29H53.434z"/>
		<path fill="#5AB947" d="M57.515,96.621V86.44h1.781v10.181H57.515z"/>
		<path fill="#5AB947" d="M66.087,93.815c0,0.952-0.24,1.681-0.721,2.186c-0.479,0.507-1.174,0.76-2.079,0.76
			c-0.885,0-1.641-0.175-2.264-0.522v-1.873c0.763,0.496,1.462,0.745,2.097,0.745c0.361,0,0.634-0.1,0.818-0.299
			c0.183-0.199,0.275-0.472,0.275-0.815c0-0.339-0.109-0.649-0.327-0.93c-0.22-0.281-0.579-0.593-1.081-0.937
			c-0.436-0.302-0.766-0.591-0.992-0.866c-0.224-0.277-0.398-0.587-0.521-0.93c-0.124-0.345-0.186-0.743-0.186-1.199
			c0-0.872,0.242-1.563,0.728-2.075c0.484-0.511,1.137-0.766,1.954-0.766c0.78,0,1.529,0.219,2.25,0.654l-0.628,1.519
			c-0.223-0.13-0.455-0.246-0.7-0.348c-0.243-0.103-0.506-0.154-0.783-0.154c-0.306,0-0.543,0.102-0.705,0.304
			c-0.166,0.202-0.249,0.477-0.249,0.824c0,0.345,0.1,0.644,0.297,0.899c0.196,0.255,0.541,0.545,1.033,0.871
			c0.665,0.444,1.128,0.899,1.39,1.364S66.087,93.221,66.087,93.815z"/>
		<path fill="#808080" d="M19.266,106.561c0,1.4-0.285,2.471-0.856,3.212s-1.392,1.111-2.463,1.111h-2.077v-8.484h2.269
			c0.987,0,1.754,0.365,2.305,1.094C18.991,104.224,19.266,105.245,19.266,106.561z M17.646,106.606
			c0-1.896-0.521-2.843-1.568-2.843h-0.63v5.738h0.51c0.575,0,1.001-0.24,1.275-0.722C17.51,108.298,17.646,107.574,17.646,106.606z
			"/>
		<path fill="#808080" d="M24.326,110.884h-3.825v-8.484h3.825v1.364H22.08v2.019h2.083v1.37H22.08v2.35h2.246V110.884z"/>
		<path fill="#808080" d="M30.187,105.011c0,0.901-0.228,1.594-0.682,2.074c-0.455,0.482-1.109,0.723-1.97,0.723h-0.395v3.076h-1.58
			v-8.484h2.154C29.362,102.399,30.187,103.271,30.187,105.011z M27.141,106.438h0.301c0.387,0,0.676-0.106,0.864-0.318
			c0.19-0.213,0.285-0.562,0.285-1.046c0-0.445-0.086-0.774-0.262-0.989c-0.174-0.215-0.443-0.321-0.807-0.321h-0.382V106.438z"/>
		<path fill="#808080" d="M36.472,102.399v5.49c0,1.01-0.229,1.78-0.684,2.313C35.33,110.733,34.671,111,33.809,111
			c-0.845,0-1.484-0.264-1.927-0.793c-0.44-0.527-0.662-1.308-0.662-2.341v-5.467h1.568v5.583c0,1.079,0.356,1.618,1.073,1.618
			c0.333,0,0.589-0.137,0.77-0.412c0.183-0.274,0.274-0.664,0.274-1.172v-5.617H36.472z"/>
		<path fill="#808080" d="M40.539,110.884h-1.572v-7.098h-1.625v-1.387h4.823v1.387h-1.626V110.884z"/>
		<path fill="#808080" d="M46.679,110.884l-0.486-2.142H43.98l-0.487,2.142h-1.579l2.103-8.52h2.142l2.106,8.52H46.679z
			 M45.896,107.344l-0.452-1.973c-0.029-0.121-0.089-0.422-0.183-0.902c-0.097-0.482-0.154-0.804-0.173-0.967
			c-0.051,0.333-0.114,0.699-0.191,1.1s-0.278,1.314-0.603,2.742H45.896z"/>
		<path fill="#808080" d="M54.409,106.561c0,1.4-0.283,2.471-0.856,3.212c-0.569,0.741-1.393,1.111-2.464,1.111h-2.076v-8.484h2.268
			c0.988,0,1.757,0.365,2.305,1.094C54.135,104.224,54.409,105.245,54.409,106.561z M52.79,106.606c0-1.896-0.521-2.843-1.566-2.843
			h-0.632v5.738h0.51c0.577,0,1.002-0.24,1.277-0.722C52.653,108.298,52.79,107.574,52.79,106.606z"/>
		<path fill="#808080" d="M61.483,106.63c0,1.404-0.264,2.484-0.789,3.238c-0.528,0.755-1.278,1.132-2.258,1.132
			c-0.982,0-1.736-0.376-2.265-1.129c-0.524-0.753-0.788-1.837-0.788-3.253c0-1.404,0.264-2.481,0.788-3.229
			c0.528-0.75,1.286-1.124,2.277-1.124c0.977,0,1.729,0.377,2.251,1.129C61.222,104.147,61.483,105.226,61.483,106.63z
			 M56.996,106.63c0,0.968,0.122,1.704,0.367,2.211c0.243,0.507,0.602,0.76,1.073,0.76c0.952,0,1.427-0.99,1.427-2.971
			c0-1.981-0.472-2.971-1.414-2.971c-0.48,0-0.843,0.252-1.086,0.757C57.118,104.921,56.996,105.658,56.996,106.63z"/>
		<path fill="#808080" d="M66.584,108.544c0,0.794-0.199,1.401-0.6,1.823S65.007,111,64.252,111c-0.74,0-1.368-0.146-1.886-0.436
			v-1.562c0.634,0.415,1.217,0.621,1.745,0.621c0.302,0,0.529-0.083,0.685-0.25c0.15-0.166,0.228-0.392,0.228-0.679
			c0-0.282-0.09-0.54-0.271-0.774c-0.183-0.233-0.481-0.494-0.899-0.78c-0.365-0.25-0.641-0.493-0.828-0.722
			c-0.188-0.23-0.332-0.489-0.435-0.776c-0.104-0.286-0.154-0.618-0.154-0.997c0-0.728,0.2-1.305,0.607-1.729
			c0.402-0.426,0.945-0.639,1.625-0.639c0.651,0,1.276,0.183,1.876,0.546l-0.522,1.265c-0.186-0.107-0.378-0.205-0.583-0.29
			c-0.202-0.085-0.421-0.128-0.652-0.128c-0.257,0-0.451,0.085-0.59,0.253c-0.138,0.168-0.205,0.396-0.205,0.688
			c0,0.287,0.081,0.535,0.246,0.749c0.163,0.212,0.452,0.454,0.862,0.726c0.553,0.37,0.939,0.75,1.157,1.138
			C66.475,107.608,66.584,108.05,66.584,108.544z"/>
	</g>
</g>
</svg>
