<?xml version="1.0" encoding="utf-8"?>
<!-- Generator: Adobe Illustrator 16.0.0, SVG Export Plug-In . SVG Version: 6.00 Build 0)  -->
<!DOCTYPE svg PUBLIC "-//W3C//DTD SVG 1.1//EN" "http://www.w3.org/Graphics/SVG/1.1/DTD/svg11.dtd">
<svg version="1.1" id="Layer_1" xmlns="http://www.w3.org/2000/svg" xmlns:xlink="http://www.w3.org/1999/xlink" x="0px" y="0px"
	 width="767px" height="513.027px" viewBox="0 0 767 513.027" enable-background="new 0 0 767 513.027" xml:space="preserve">
<g>
	<path fill-rule="evenodd" clip-rule="evenodd" fill="#B3B2B3" d="M701.265,295.268c-6.497-0.008-12.995-0.002-19.702-0.568
		c16.339-9.352,32.894-18.138,48.338-28.77c7.73-5.397,15.859-10.254,23.134-16.426c-2.592-2.662-5.398-1.771-7.937-1.778
		c-42.197-0.119-84.395-0.169-126.591-0.236c-30.601,0.045-61.2-0.075-91.796,0.278c-5.862,0.067-7.135-1.933-7.143-7.294
		c-0.066-43.042-0.316-86.085-0.617-129.127c-0.262-37.116-0.66-74.231-1-111.347c-6.948,0.277-13.652,2.067-20.431,3.349
		c-11.961,2.263-11.945,2.346-12.696,14.096c0.058,54.481,0.12,108.963,0.17,163.444c0.018,20.202-0.142,40.405,0.109,60.604
		c0.062,4.869-1.463,6.233-6.241,6.239c-17.328,0.021-17.224,0.184-17.348-17.278c-0.504-70.992-1.073-141.984-1.632-212.976
		c-0.01-1.424-0.181-2.847-0.277-4.27c-10.704,1.863-21.407,3.726-32.109,5.589c-0.067,17.558-0.184,35.116-0.191,52.673
		c-0.023,56.559,0.026,113.118-0.123,169.677c-0.008,2.229,2.521,6.895-3.444,6.258c-13.612,0.131-27.229,0.263-40.843,0.395
		c0.115,1.141,0.232,2.28,0.35,3.42c4.896,2.759,9.199,6.315,13.432,9.969c9.464,6.548,18.945,13.071,28.382,19.66
		c3.622,2.528,2.161,6.377,1.837,9.584c-0.32,3.154-3.521,2.182-5.534,2.166c-39.759-0.318-79.519-0.734-119.277-1.117
		c-2.506-0.025-4.855-0.307-6.678-2.344c-10.324-11.535-22.85-20.061-36.698-26.774c-0.693-0.336-1.244-0.967-1.863-1.46
		c-22.857-7.567-45.876-11.802-69.513-3.4c-18.169,6.901-33.569,17.972-47.198,31.617c-2.55,2.551-5.469,2.314-8.484,2.348
		c-43.882,0.479-87.765,0.943-131.648,1.41v6.291c17.431,0.521,34.86,1.074,52.292,1.504c3.663,0.092,4.816,1.557,4.904,5.209
		c0.357,14.807,0.488,14.865-13.82,17.836c-14.445,3.002-28.914,5.9-43.376,8.828v7.727c0.077-0.014,0.156-0.021,0.233-0.035
		c47.058-9.037,94.079-18.266,141.184-27.055c16.361-3.053,32.45-7.725,49.524-6.705c39.088,2.332,78.215,4.006,117.327,5.895
		c37.694,1.822,75.392,3.537,113.086,5.373c63.564,3.098,127.127,6.252,190.69,9.383c30.969,1.523,61.935,3.107,92.906,4.545
		c20.68,0.959,41.365,1.768,62.049,2.619v-38.93C745.088,295.33,723.177,295.297,701.265,295.268z"/>
	<g>
		<path fill-rule="evenodd" clip-rule="evenodd" fill="#CCCBCB" d="M618.507,247.489c-30.601,0.045-61.2-0.075-91.796,0.278
			c-5.862,0.067-7.135-1.933-7.143-7.294c-0.066-43.042-0.316-86.085-0.617-129.127c-0.262-37.116-0.66-74.231-1-111.347
			c12.094,0.664,23.51,4.673,35.222,7.213c19.034,4.128,37.989,8.627,57.065,12.546c5.548,1.139,7.588,3.112,7.566,9.159
			c-0.244,69.83-0.157,139.661-0.142,209.492C617.663,241.455,617.284,244.551,618.507,247.489z"/>
		<path fill-rule="evenodd" clip-rule="evenodd" fill="#CCCBCB" d="M484.824,17.445c0.058,54.481,0.12,108.963,0.17,163.444
			c0.018,20.202-0.142,40.405,0.109,60.604c0.062,4.869-1.463,6.233-6.241,6.239c-17.328,0.021-17.224,0.184-17.348-17.278
			c-0.504-70.992-1.073-141.984-1.632-212.976c-0.01-1.424-0.181-2.847-0.277-4.27c6.728-0.635,12.836,2.461,19.335,3.219
			C480.914,16.658,482.862,17.101,484.824,17.445z"/>
		<g>
			<path fill-rule="evenodd" clip-rule="evenodd" fill="#CCCBCB" d="M734.422,268.428c-1.564-0.065-5.105,1.997-4.521-2.498
				c-15.444,10.632-31.999,19.418-48.338,28.77c6.707,0.566,13.205,0.561,19.702,0.568c21.912,0.029,43.823,0.063,65.735,0.096
				v-25.91C756.138,269.162,745.276,268.882,734.422,268.428z"/>
			<path fill-rule="evenodd" clip-rule="evenodd" fill="#CCCBCB" d="M57.196,305.883c-0.088-3.652-1.241-5.117-4.904-5.209
				C34.86,300.244,17.431,299.691,0,299.17v33.377c14.462-2.928,28.931-5.826,43.376-8.828
				C57.685,320.748,57.554,320.689,57.196,305.883z"/>
			<path fill-rule="evenodd" clip-rule="evenodd" fill="#CCCBCB" d="M140.133,289.121c13.629-13.646,29.029-24.716,47.198-31.617
				c-3.867,0.009-7.736,0.088-11.603,0.015c-41.168-0.789-82.337-1.539-123.504-2.438C34.818,254.701,17.38,255.548,0,254.09v38.789
				c43.884-0.467,87.767-0.932,131.648-1.41C134.664,291.436,137.583,291.672,140.133,289.121z"/>
			<path fill-rule="evenodd" clip-rule="evenodd" fill="#CCCBCB" d="M612.045,327.129c-63.563-3.131-127.126-6.285-190.69-9.383
				c-37.694-1.836-75.392-3.551-113.086-5.373c-39.112-1.889-78.239-3.563-117.327-5.895c-17.074-1.02-33.163,3.652-49.524,6.705
				c-47.104,8.789-94.126,18.018-141.184,27.055c-0.077,0.014-0.156,0.021-0.233,0.035v32.672v50.029v90.053h767v-90.053v-50.029
				v-38.652c-20.684-0.852-41.369-1.66-62.049-2.619C673.979,330.236,643.014,328.652,612.045,327.129z"/>
			<path fill-rule="evenodd" clip-rule="evenodd" fill="#CCCBCB" d="M295.405,289.139c1.822,2.037,4.172,2.318,6.678,2.344
				c39.759,0.383,79.519,0.799,119.277,1.117c2.013,0.016,5.214,0.988,5.534-2.166c0.324-3.207,1.785-7.056-1.837-9.584
				c-9.437-6.589-18.918-13.112-28.382-19.66c-6.207,2.323-12.454,0.233-18.679,0.146c-38.05-0.525-76.098-1.114-114.147-1.631
				c-2.371-0.032-4.928-0.677-7.006,1.199c0.619,0.493,1.17,1.124,1.863,1.46C272.556,269.078,285.081,277.604,295.405,289.139z"/>
		</g>
	</g>
</g>
</svg>
