<?xml version="1.0" encoding="utf-8"?>
<!-- Generator: Adobe Illustrator 16.0.0, SVG Export Plug-In . SVG Version: 6.00 Build 0)  -->
<!DOCTYPE svg PUBLIC "-//W3C//DTD SVG 1.1//EN" "http://www.w3.org/Graphics/SVG/1.1/DTD/svg11.dtd">
<svg version="1.1" id="Layer_1" xmlns="http://www.w3.org/2000/svg" xmlns:xlink="http://www.w3.org/1999/xlink" x="0px" y="0px"
	 width="64px" height="64px" viewBox="0 0 64 64" enable-background="new 0 0 64 64" xml:space="preserve">
<g>
	<circle fill="#F2F2F2" stroke="#808080" stroke-width="0.6294" stroke-miterlimit="10" cx="32.223" cy="32.073" r="28.86"/>
	<path fill="#5AB947" d="M48.398,33.396l-4.885-4.522v-8.878c0-0.867-0.705-1.571-1.572-1.571H38.73
		c-0.868,0-1.571,0.705-1.571,1.571v2.996l-4.936-4.568l-16.175,14.97h3.856c-0.002,0.029-0.004,0.059-0.004,0.09v10.666
		c0,0.868,0.704,1.572,1.572,1.572h21.502c0.867,0,1.572-0.704,1.572-1.572V33.483c0-0.03-0.004-0.06-0.006-0.09h3.857V33.396z"/>
</g>
</svg>
