<?xml version="1.0" encoding="utf-8"?>
<!-- Generator: Adobe Illustrator 16.0.0, SVG Export Plug-In . SVG Version: 6.00 Build 0)  -->
<!DOCTYPE svg PUBLIC "-//W3C//DTD SVG 1.1//EN" "http://www.w3.org/Graphics/SVG/1.1/DTD/svg11.dtd">
<svg version="1.1" id="Layer_1" xmlns="http://www.w3.org/2000/svg" xmlns:xlink="http://www.w3.org/1999/xlink" x="0px" y="0px"
	 width="64px" height="64px" viewBox="0 0 64 64" enable-background="new 0 0 64 64" xml:space="preserve">
<g>
	<circle fill="#F2F2F2" stroke="#808080" stroke-width="0.6294" stroke-miterlimit="10" cx="32" cy="32.001" r="28.862"/>
	<g>
		<path fill="#367036" d="M32.52,42.395c-1.664-1.369-3.164-2.408-4.42-3.686c-1.507-1.532-3.224-1.536-5.263-1.249
			c0,1.062-0.015,2.075,0.004,3.087c0.017,0.92-0.382,1.604-1.303,1.606c-0.916,0.004-1.329-0.672-1.315-1.591
			c0.017-1.016,0.003-2.031,0.003-3.146c-0.624-0.034-1.1-0.071-1.575-0.083c-1.678-0.049-2.222-0.555-2.24-2.182
			c-0.022-2.005-0.022-4.011,0-6.017c0.018-1.533,0.607-2.135,2.108-2.149c2.152-0.021,4.312,0.09,6.455-0.052
			c0.889-0.059,1.866-0.457,2.598-0.984c1.644-1.188,3.162-2.554,4.944-4.025C32.52,28.841,32.52,35.44,32.52,42.395z"/>
		<path fill="#5AB947" d="M42.509,44.134c-0.55-0.623-1.032-1.17-1.581-1.791c2.667-2.896,4.161-6.387,4.204-10.395
			c0.04-3.965-1.313-7.463-4.125-10.613c0.651-0.49,1.301-0.978,1.953-1.469C49.27,25.843,49.181,37.695,42.509,44.134z"/>
		<path fill="#5AB947" d="M37.351,25.033c0.554-0.475,1.104-0.945,1.661-1.424c3.549,2.479,5.302,11.395-0.117,16.746
			c-0.521-0.558-1.042-1.114-1.64-1.753C40.699,34.219,40.777,29.688,37.351,25.033z"/>
	</g>
</g>
</svg>
