<?xml version="1.0" encoding="utf-8"?>
<!-- Generator: Adobe Illustrator 16.0.0, SVG Export Plug-In . SVG Version: 6.00 Build 0)  -->
<!DOCTYPE svg PUBLIC "-//W3C//DTD SVG 1.1//EN" "http://www.w3.org/Graphics/SVG/1.1/DTD/svg11.dtd">
<svg version="1.1" id="Layer_1" xmlns="http://www.w3.org/2000/svg" xmlns:xlink="http://www.w3.org/1999/xlink" x="0px" y="0px"
	 width="52.25px" height="120px" viewBox="0 0 52.25 120" enable-background="new 0 0 52.25 120" xml:space="preserve">
<rect x="0" fill="#5AB947" width="52.25" height="120"/>
<g>
	<g>
		<path fill="#FFFFFF" d="M14.4,72.989c-0.459,0-0.892-0.179-1.217-0.504c-0.325-0.325-0.504-0.757-0.504-1.217
			s0.179-0.892,0.504-1.217l10.324-10.326L13.216,49.98c-0.333-0.315-0.524-0.743-0.537-1.202c-0.013-0.46,0.155-0.896,0.471-1.23
			c0.329-0.346,0.773-0.537,1.25-0.537c0.441,0,0.862,0.168,1.183,0.472l12.858,12.176L15.617,72.485
			C15.292,72.811,14.859,72.989,14.4,72.989z"/>
	</g>
	<g>
		<path fill="#FFFFFF" d="M27.53,72.989c-0.459,0-0.892-0.179-1.217-0.504c-0.671-0.671-0.671-1.763,0-2.434l10.325-10.326
			L26.347,49.98c-0.333-0.315-0.524-0.743-0.537-1.202c-0.013-0.46,0.155-0.896,0.471-1.23c0.329-0.346,0.773-0.537,1.25-0.537
			c0.441,0,0.862,0.168,1.183,0.472l12.858,12.176L28.747,72.485C28.422,72.811,27.99,72.989,27.53,72.989z"/>
	</g>
</g>
<rect x="0" fill="#479544" width="52.25" height="6.25"/>
<rect x="0" y="113.75" fill="#479544" width="52.25" height="6.25"/>
</svg>
