<?xml version="1.0" encoding="utf-8"?>
<!-- Generator: Adobe Illustrator 16.0.0, SVG Export Plug-In . SVG Version: 6.00 Build 0)  -->
<!DOCTYPE svg PUBLIC "-//W3C//DTD SVG 1.1//EN" "http://www.w3.org/Graphics/SVG/1.1/DTD/svg11.dtd">
<svg version="1.1" id="Layer_1" xmlns="http://www.w3.org/2000/svg" xmlns:xlink="http://www.w3.org/1999/xlink" x="0px" y="0px"
	 width="32px" height="32px" viewBox="0 0 32 32" enable-background="new 0 0 32 32" xml:space="preserve">
<g>
	<path fill="#F2F2F2" stroke="#989898" stroke-width="0.5895" stroke-miterlimit="10" d="M20.909,8.06
		c-0.79-0.822-1.978-0.96-2.653-0.31c-0.452,0.435-0.559,1.109-0.346,1.754c-0.149,0.045-0.297,0.096-0.442,0.153
		c-0.752-0.507-1.685-0.521-2.253,0.027c-0.473,0.455-0.568,1.177-0.312,1.851l-0.242,0.232c-0.783-0.676-1.856-0.756-2.486-0.15
		c-0.677,0.65-0.584,1.844,0.205,2.665l0.152,0.158c-0.019,0.044-0.037,0.091-0.056,0.136l-1.51-1.57l-0.122-0.099L7.478,9.407
		C6.815,8.865,5.964,8.739,5.345,9.079L4.81,9.593c-0.404,0.675-0.243,1.661,0.438,2.369l1.041,1.081H6.28l0.735,0.763
		c0.002,0,0.004-0.001,0.006-0.001l0.474,0.492l0,0l1.012,1.052l0,0l4.231,4.397l-1.872-0.311c-1.424-0.235-2.707,0.359-2.868,1.327
		c-0.16,0.969,0.865,1.943,2.288,2.179l6.984,1.154c0,0,0.008,0.003,0.019,0.01c0.284,0.14,4.029,1.883,7.683-1.634
		c3.773-3.631,2.049-7.67,2.023-7.729c-0.001-0.001-0.001-0.003-0.001-0.003v0c-0.262-0.503-0.598-0.98-1.014-1.411L20.909,8.06z"/>
</g>
</svg>
