<?xml version="1.0" encoding="utf-8"?>
<!-- Generator: Adobe Illustrator 16.0.0, SVG Export Plug-In . SVG Version: 6.00 Build 0)  -->
<!DOCTYPE svg PUBLIC "-//W3C//DTD SVG 1.1//EN" "http://www.w3.org/Graphics/SVG/1.1/DTD/svg11.dtd">
<svg version="1.1" id="Layer_1" xmlns="http://www.w3.org/2000/svg" xmlns:xlink="http://www.w3.org/1999/xlink" x="0px" y="0px"
	 width="170px" height="170.805px" viewBox="0 0 170 170.805" enable-background="new 0 0 170 170.805" xml:space="preserve">
<g>
	<path fill="#009C4A" d="M12.129,130.437l14.911-14.911c-0.621-1.216-1.221-2.445-1.774-3.707
		c-3.519-8.021-5.301-16.608-5.301-25.521c0-9.191,1.782-17.921,5.307-25.961c3.466-7.886,8.269-14.83,14.268-20.629
		c5.908-5.721,12.775-10.27,20.429-13.529c4.534-1.924,9.282-3.28,14.188-4.097V2.085c-7.871,1.237-15.396,3.391-22.457,6.487
		c-10.503,4.605-19.671,10.784-27.252,18.367C16.916,34.467,10.908,43.43,6.591,53.581C2.322,63.61,0.158,74.62,0.158,86.303
		c0,12.207,2.224,23.541,6.611,33.693C8.342,123.639,10.138,127.117,12.129,130.437z"/>
	<path fill="#009C4A" d="M149.394,96.424c-0.832,5.313-2.313,10.467-4.479,15.398c-3.375,7.693-7.969,14.57-13.645,20.43
		c-5.807,6.011-12.752,10.815-20.648,14.283c-8.02,3.519-16.609,5.303-25.529,5.303c-8.985,0-17.557-1.807-25.463-5.365
		c-7.59-3.41-14.42-8.124-20.278-13.989c-0.305-0.304-0.588-0.626-0.886-0.936l-14.37,14.37c0.301,0.307,0.59,0.624,0.896,0.926
		c7.634,7.521,16.696,13.457,26.938,17.646c10.245,4.191,21.402,6.316,33.162,6.316c11.91,0,23.107-2.226,33.273-6.61
		c10.262-4.431,19.297-10.564,26.846-18.223c7.621-7.74,13.756-16.863,18.232-27.107c3.072-7.037,5.047-14.559,5.957-22.441H149.394
		z"/>
	<path fill="#009C4A" d="M149.812,80.604c6.664-0.139,13.385,0.162,20.029-0.08c-0.605-9.759-2.764-18.752-6.566-27.335
		c-4.609-10.391-10.867-19.582-18.602-27.319c-7.691-7.689-16.828-13.853-27.152-18.315c-8.566-3.697-17.674-5.824-27.123-6.408
		v20.38c16.168,1.614,29.898,8.126,40.863,19.431C141.935,51.986,148.151,65.309,149.812,80.604z"/>
</g>
</svg>
