<?xml version="1.0" encoding="utf-8"?>
<!-- Generator: Adobe Illustrator 16.0.0, SVG Export Plug-In . SVG Version: 6.00 Build 0)  -->
<!DOCTYPE svg PUBLIC "-//W3C//DTD SVG 1.1//EN" "http://www.w3.org/Graphics/SVG/1.1/DTD/svg11.dtd">
<svg version="1.1" id="Layer_1" xmlns="http://www.w3.org/2000/svg" xmlns:xlink="http://www.w3.org/1999/xlink" x="0px" y="0px"
	 width="186.25px" height="32.25px" viewBox="0 0 186.25 32.25" enable-background="new 0 0 186.25 32.25" xml:space="preserve">
<path fill="#B3B4B4" d="M29.754,8.94c1.975,0,3.654,0.691,5.037,2.074c0.335,0.375,0.489,0.82,0.459,1.333
	c-0.03,0.514-0.222,0.938-0.578,1.274s-0.81,0.514-1.363,0.533c-0.554,0.02-1.007-0.157-1.363-0.533
	c-0.613-0.553-1.343-0.83-2.192-0.83c-0.455,0-0.884,0.095-1.289,0.281c-0.405,0.188-0.761,0.435-1.066,0.741
	c-0.306,0.306-0.548,0.657-0.726,1.052c-0.178,0.395-0.267,0.81-0.267,1.245c0,0.454,0.089,0.884,0.267,1.288
	c0.178,0.406,0.424,0.763,0.741,1.068c0.315,0.307,0.671,0.547,1.066,0.726c0.396,0.178,0.82,0.257,1.274,0.237
	c0.868,0,1.6-0.267,2.192-0.8c0.355-0.396,0.809-0.593,1.363-0.593c0.552,0,1.007,0.197,1.363,0.593
	c0.178,0.158,0.316,0.346,0.415,0.563c0.098,0.218,0.152,0.444,0.163,0.682s-0.025,0.47-0.104,0.697
	c-0.08,0.227-0.198,0.429-0.355,0.606c-0.692,0.692-1.452,1.215-2.282,1.57c-0.829,0.355-1.748,0.534-2.755,0.534
	c-0.988,0-1.917-0.192-2.785-0.577c-0.868-0.386-1.629-0.904-2.281-1.557c-0.652-0.651-1.17-1.412-1.555-2.281
	c-0.385-0.867-0.578-1.787-0.578-2.755c0-0.949,0.193-1.857,0.578-2.726c0.385-0.869,0.908-1.63,1.57-2.282
	c0.661-0.652,1.426-1.175,2.296-1.57C27.868,9.138,28.786,8.94,29.754,8.94z"/>
<path fill="#B3B4B4" d="M44.597,8.97c0.889,0.1,1.723,0.356,2.504,0.77c0.78,0.415,1.452,0.944,2.015,1.585
	c0.563,0.643,1.007,1.374,1.333,2.193c0.326,0.82,0.489,1.684,0.489,2.593v5.244c0,0.534-0.197,0.988-0.593,1.362
	c-0.396,0.375-0.839,0.563-1.333,0.563c-0.691,0-1.244-0.314-1.659-0.947c-0.099,0.04-0.188,0.083-0.267,0.132
	c-0.08,0.05-0.158,0.095-0.237,0.135c-0.474,0.218-0.958,0.385-1.452,0.504c-0.514,0.118-1.056,0.177-1.629,0.177
	c-1.481,0-2.805-0.399-3.97-1.199c-1.166-0.8-2.034-1.832-2.607-3.097c-0.198-0.453-0.351-0.918-0.459-1.392
	s-0.163-0.968-0.163-1.481c0-0.514,0.055-1.007,0.163-1.481s0.261-0.938,0.459-1.393c0.573-1.283,1.442-2.321,2.607-3.111
	c1.166-0.79,2.489-1.185,3.97-1.185c0.157,0,0.301,0,0.43,0C44.325,8.94,44.458,8.951,44.597,8.97z M43.738,19.428
	c0.455,0,0.883-0.083,1.289-0.251c0.404-0.168,0.755-0.4,1.052-0.696c0.296-0.297,0.533-0.646,0.71-1.052
	c0.178-0.405,0.267-0.845,0.267-1.318c0-0.435-0.089-0.854-0.267-1.259c-0.178-0.404-0.42-0.761-0.726-1.066
	c-0.306-0.307-0.662-0.548-1.066-0.726c-0.406-0.179-0.825-0.267-1.259-0.267c-0.435,0-0.85,0.088-1.244,0.267
	c-0.396,0.178-0.746,0.419-1.052,0.726c-0.307,0.306-0.548,0.662-0.726,1.066c-0.178,0.405-0.267,0.825-0.267,1.259
	c0,0.455,0.094,0.884,0.281,1.288s0.435,0.755,0.741,1.052c0.307,0.297,0.656,0.534,1.052,0.711
	C42.917,19.34,43.323,19.428,43.738,19.428z"/>
<path fill="#B3B4B4" d="M54.315,23.311c-0.533,0-0.978-0.174-1.333-0.52c-0.356-0.345-0.553-0.804-0.593-1.377v-5.481
	c0.019-0.948,0.222-1.842,0.607-2.681c0.385-0.84,0.899-1.571,1.541-2.193c0.642-0.622,1.393-1.116,2.252-1.481
	s1.772-0.568,2.741-0.606c0.552,0,1.012,0.188,1.378,0.563c0.365,0.375,0.567,0.83,0.607,1.363c0,0.533-0.188,0.983-0.563,1.348
	c-0.375,0.366-0.839,0.558-1.393,0.577c-0.455,0-0.878,0.084-1.274,0.251c-0.395,0.169-0.741,0.4-1.037,0.696
	c-0.296,0.297-0.533,0.647-0.711,1.053c-0.177,0.405-0.267,0.844-0.267,1.318v5.392c-0.04,0.515-0.232,0.938-0.578,1.274
	C55.346,23.143,54.887,23.311,54.315,23.311z"/>
<path fill="#B3B4B4" d="M63.617,23.311c-0.533,0-0.978-0.174-1.333-0.52c-0.355-0.345-0.553-0.804-0.592-1.377v-5.481
	c0.019-0.948,0.222-1.842,0.607-2.681c0.385-0.84,0.899-1.571,1.541-2.193c0.642-0.622,1.393-1.116,2.251-1.481
	c0.859-0.365,1.772-0.568,2.74-0.606c0.552,0,1.012,0.188,1.378,0.563s0.567,0.83,0.607,1.363c0,0.533-0.188,0.983-0.563,1.348
	c-0.375,0.366-0.84,0.558-1.393,0.577c-0.455,0-0.878,0.084-1.274,0.251c-0.396,0.169-0.741,0.4-1.037,0.696
	c-0.296,0.297-0.534,0.647-0.711,1.053s-0.267,0.844-0.267,1.318v5.392c-0.04,0.515-0.232,0.938-0.578,1.274
	S64.19,23.311,63.617,23.311z"/>
<path fill="#B3B4B4" d="M78.104,8.94c0.948,0,1.857,0.197,2.726,0.592c0.869,0.396,1.634,0.924,2.296,1.585
	c0.662,0.662,1.189,1.422,1.584,2.281c0.395,0.86,0.593,1.763,0.593,2.711c0,0.514-0.192,0.967-0.578,1.364
	c-0.385,0.394-0.864,0.581-1.437,0.563h-7.881c0.651,0.928,1.55,1.393,2.696,1.393c0.316,0,0.583-0.03,0.8-0.089
	c0.217-0.059,0.409-0.128,0.578-0.208c0.167-0.079,0.335-0.148,0.503-0.208c0.167-0.059,0.36-0.088,0.578-0.088
	c0.415,0.02,0.774,0.139,1.081,0.355c0.306,0.217,0.533,0.488,0.682,0.814c0.148,0.325,0.197,0.678,0.148,1.052
	c-0.049,0.375-0.222,0.722-0.519,1.037c-0.533,0.435-1.125,0.735-1.777,0.903c-0.652,0.169-1.344,0.262-2.074,0.281
	c-0.948,0.04-1.857-0.133-2.726-0.518c-0.869-0.385-1.635-0.909-2.296-1.571c-0.662-0.662-1.185-1.438-1.57-2.325
	c-0.385-0.889-0.578-1.808-0.578-2.755c0-0.928,0.192-1.827,0.578-2.696c0.385-0.869,0.903-1.635,1.555-2.296
	c0.652-0.662,1.412-1.19,2.282-1.585C76.219,9.138,77.137,8.94,78.104,8.94z M80.801,14.155c-0.336-0.414-0.731-0.745-1.185-0.992
	c-0.455-0.246-0.958-0.371-1.511-0.371c-0.573,0-1.081,0.124-1.526,0.371c-0.444,0.247-0.835,0.578-1.17,0.992H80.801z"/>
<path fill="#B3B4B4" d="M93.718,8.94c0.986,0,1.915,0.188,2.785,0.563c0.867,0.375,1.629,0.89,2.28,1.541
	c0.652,0.652,1.161,1.413,1.526,2.282c0.365,0.869,0.548,1.798,0.548,2.785c0,1.343-0.286,2.529-0.858,3.555
	c0.571,0.771,0.858,1.748,0.858,2.934c0,0.691-0.129,1.349-0.385,1.97c-0.258,0.622-0.607,1.171-1.053,1.645
	s-0.973,0.854-1.585,1.141c-0.612,0.286-1.273,0.449-1.984,0.488h-7.525c-0.494,0-0.914-0.191-1.259-0.577
	c-0.346-0.385-0.519-0.834-0.519-1.348c0-0.515,0.182-0.963,0.547-1.349c0.366-0.384,0.815-0.588,1.348-0.606h7.2
	c0.395,0,0.721-0.134,0.978-0.4c0.256-0.267,0.403-0.597,0.443-0.993v-0.028c-0.396,0.217-0.844,0.396-1.35,0.533
	c-0.502,0.139-1.169,0.208-1.998,0.208c-1.047,0-2.01-0.179-2.889-0.534c-0.878-0.355-1.635-0.849-2.266-1.48
	c-0.633-0.633-1.126-1.388-1.481-2.266c-0.355-0.879-0.533-1.842-0.533-2.89c0-0.967,0.197-1.886,0.593-2.755
	c0.394-0.869,0.922-1.63,1.584-2.282c0.662-0.652,1.422-1.171,2.282-1.555C91.867,9.133,92.77,8.94,93.718,8.94z M93.718,12.792
	c-0.435,0-0.85,0.095-1.244,0.281c-0.396,0.188-0.746,0.435-1.052,0.741c-0.307,0.306-0.553,0.657-0.74,1.052
	c-0.188,0.395-0.282,0.81-0.282,1.245c0,0.435,0.083,0.855,0.252,1.26c0.167,0.404,0.4,0.76,0.696,1.064
	c0.296,0.308,0.647,0.554,1.052,0.741c0.405,0.188,0.845,0.281,1.319,0.281c0.473,0,0.918-0.089,1.332-0.268
	c0.415-0.178,0.771-0.424,1.067-0.74c0.296-0.315,0.529-0.671,0.696-1.065c0.168-0.396,0.251-0.82,0.251-1.274
	s-0.093-0.884-0.279-1.289c-0.189-0.406-0.436-0.756-0.742-1.053c-0.306-0.296-0.662-0.534-1.065-0.71
	C94.571,12.881,94.151,12.792,93.718,12.792z"/>
<path fill="#B3B4B4" d="M110.249,8.97c0.889,0.1,1.724,0.356,2.503,0.77c0.781,0.415,1.453,0.944,2.015,1.585
	c0.563,0.643,1.008,1.374,1.334,2.193c0.326,0.82,0.489,1.684,0.489,2.593v5.244c0,0.534-0.198,0.988-0.593,1.362
	c-0.396,0.375-0.841,0.563-1.334,0.563c-0.691,0-1.244-0.314-1.658-0.947c-0.099,0.04-0.188,0.083-0.267,0.132
	c-0.079,0.05-0.158,0.095-0.237,0.135c-0.474,0.218-0.959,0.385-1.451,0.504c-0.515,0.118-1.057,0.177-1.63,0.177
	c-1.481,0-2.805-0.399-3.971-1.199c-1.165-0.8-2.035-1.832-2.608-3.097c-0.197-0.453-0.35-0.918-0.458-1.392
	c-0.11-0.474-0.163-0.968-0.163-1.481c0-0.514,0.053-1.007,0.163-1.481c0.108-0.474,0.261-0.938,0.458-1.393
	c0.572-1.283,1.443-2.321,2.608-3.111c1.166-0.79,2.488-1.185,3.971-1.185c0.157,0,0.301,0,0.43,0
	C109.978,8.94,110.11,8.951,110.249,8.97z M109.39,19.428c0.454,0,0.884-0.083,1.288-0.251c0.405-0.168,0.757-0.4,1.053-0.696
	c0.297-0.297,0.533-0.646,0.711-1.052s0.267-0.845,0.267-1.318c0-0.435-0.089-0.854-0.267-1.259
	c-0.179-0.404-0.42-0.761-0.728-1.066c-0.306-0.306-0.66-0.548-1.064-0.726c-0.406-0.179-0.826-0.267-1.26-0.267
	s-0.85,0.088-1.244,0.267c-0.396,0.178-0.746,0.419-1.053,0.726c-0.307,0.306-0.548,0.662-0.726,1.066
	c-0.179,0.406-0.269,0.825-0.269,1.259c0,0.455,0.095,0.884,0.282,1.288s0.434,0.755,0.741,1.052
	c0.307,0.297,0.656,0.534,1.051,0.711C108.57,19.34,108.976,19.428,109.39,19.428z"/>
<path fill="#B3B4B4" d="M125.329,8.852c0.948,0,1.855,0.173,2.726,0.519c0.869,0.345,1.629,0.83,2.281,1.452
	c0.651,0.622,1.176,1.358,1.572,2.207c0.395,0.85,0.592,1.769,0.592,2.755v5.48c0,0.515-0.182,0.958-0.548,1.334
	c-0.365,0.374-0.814,0.572-1.349,0.592c-0.533,0-0.991-0.173-1.376-0.518c-0.388-0.346-0.579-0.785-0.579-1.318v-5.333
	c0-0.455-0.084-0.884-0.251-1.289c-0.168-0.405-0.405-0.755-0.711-1.052c-0.307-0.296-0.663-0.534-1.066-0.711
	c-0.405-0.178-0.845-0.267-1.318-0.267c-0.436,0-0.851,0.083-1.244,0.251c-0.396,0.168-0.742,0.391-1.037,0.667
	c-0.297,0.277-0.533,0.612-0.711,1.007s-0.267,0.811-0.267,1.244v5.393c0,0.515-0.198,0.963-0.593,1.348
	c-0.396,0.385-0.85,0.578-1.363,0.578c-0.515,0-0.968-0.179-1.362-0.533c-0.396-0.356-0.594-0.791-0.594-1.305V16.02
	c0.02-0.987,0.213-1.915,0.578-2.785c0.365-0.869,0.867-1.629,1.511-2.281c0.642-0.652,1.398-1.165,2.268-1.542
	C123.354,9.04,124.303,8.852,125.329,8.852z"/>
<path fill="#B3B4B4" d="M146.008,4.408c0.514,0,0.964,0.182,1.348,0.548c0.386,0.366,0.579,0.834,0.579,1.407v9.748
	c0,0.967-0.193,1.887-0.579,2.755c-0.384,0.868-0.907,1.629-1.569,2.281c-0.661,0.651-1.427,1.171-2.297,1.556
	c-0.868,0.386-1.776,0.577-2.726,0.577c-0.947,0-1.856-0.187-2.725-0.563c-0.868-0.374-1.635-0.889-2.295-1.541
	c-0.663-0.651-1.19-1.411-1.586-2.281c-0.396-0.869-0.592-1.797-0.592-2.784c0-0.968,0.191-1.886,0.576-2.756
	c0.386-0.868,0.909-1.629,1.571-2.281c0.663-0.653,1.427-1.171,2.295-1.556c0.87-0.385,1.788-0.578,2.755-0.578
	c1.187,0,2.282,0.267,3.289,0.799V6.333c0-0.256,0.055-0.503,0.163-0.74c0.109-0.238,0.251-0.445,0.431-0.623
	c0.179-0.179,0.385-0.315,0.622-0.415C145.504,4.457,145.751,4.408,146.008,4.408z M140.764,12.792
	c-0.454,0-0.883,0.089-1.287,0.267c-0.406,0.178-0.761,0.42-1.066,0.726c-0.309,0.307-0.548,0.662-0.727,1.067
	s-0.267,0.825-0.267,1.259c0,0.454,0.088,0.884,0.267,1.288c0.179,0.406,0.418,0.757,0.727,1.054
	c0.307,0.295,0.662,0.532,1.066,0.711c0.405,0.178,0.833,0.267,1.287,0.267c0.437,0,0.85-0.089,1.246-0.267
	c0.395-0.179,0.744-0.42,1.051-0.728c0.307-0.307,0.549-0.656,0.728-1.051c0.178-0.396,0.267-0.82,0.267-1.274
	c0-0.474-0.089-0.914-0.267-1.318c-0.179-0.405-0.421-0.756-0.728-1.052c-0.307-0.297-0.656-0.529-1.051-0.697
	C141.613,12.876,141.199,12.792,140.764,12.792z"/>
<path fill="#B3B4B4" d="M156.526,9.207c0.967,0,1.887,0.188,2.755,0.563s1.631,0.889,2.282,1.542
	c0.651,0.652,1.169,1.413,1.555,2.281c0.386,0.87,0.577,1.807,0.577,2.814c0,0.988-0.188,1.91-0.563,2.771
	c-0.376,0.859-0.885,1.614-1.526,2.267c-0.642,0.651-1.397,1.165-2.267,1.541c-0.869,0.374-1.806,0.562-2.813,0.562
	c-0.989,0-1.916-0.177-2.785-0.533c-0.87-0.354-1.63-0.854-2.281-1.496c-0.652-0.642-1.165-1.396-1.542-2.267
	c-0.374-0.867-0.562-1.816-0.562-2.843c0-0.987,0.18-1.911,0.548-2.771c0.364-0.859,0.867-1.609,1.512-2.252
	c0.64-0.641,1.402-1.154,2.28-1.541C154.575,9.459,155.52,9.247,156.526,9.207z M156.526,13.088c-0.454,0-0.879,0.083-1.274,0.251
	c-0.395,0.168-0.745,0.401-1.052,0.697c-0.307,0.296-0.549,0.647-0.728,1.052c-0.178,0.406-0.267,0.845-0.267,1.318
	c0,0.454,0.089,0.885,0.267,1.289c0.179,0.405,0.421,0.76,0.728,1.065c0.307,0.308,0.656,0.549,1.052,0.727s0.82,0.267,1.274,0.267
	c0.453,0,0.883-0.089,1.288-0.267s0.757-0.419,1.052-0.727c0.297-0.306,0.533-0.66,0.712-1.065c0.177-0.404,0.266-0.835,0.266-1.289
	c-0.039-0.908-0.365-1.678-0.978-2.311C158.255,13.463,157.475,13.128,156.526,13.088z"/>
</svg>
