<?xml version="1.0" encoding="utf-8"?>
<!-- Generator: Adobe Illustrator 16.0.0, SVG Export Plug-In . SVG Version: 6.00 Build 0)  -->
<!DOCTYPE svg PUBLIC "-//W3C//DTD SVG 1.1//EN" "http://www.w3.org/Graphics/SVG/1.1/DTD/svg11.dtd">
<svg version="1.1" id="Layer_1" xmlns="http://www.w3.org/2000/svg" xmlns:xlink="http://www.w3.org/1999/xlink" x="0px" y="0px"
	 width="32px" height="32px" viewBox="0 0 32 32" enable-background="new 0 0 32 32" xml:space="preserve">
<circle opacity="0.4" fill="#F2F2F2" stroke="#989898" stroke-width="1.31" stroke-miterlimit="10" enable-background="new    " cx="8.168" cy="11.714" r="5.833"/>
<circle opacity="0.4" fill="#F2F2F2" stroke="#989898" stroke-width="0.786" stroke-miterlimit="10" enable-background="new    " cx="8.168" cy="11.714" r="3.5"/>
<g>
	<path fill="#F2F2F2" stroke="#989898" stroke-width="0.5895" stroke-miterlimit="10" d="M23.163,9.52
		c-0.789-0.822-1.978-0.96-2.651-0.31c-0.451,0.435-0.56,1.109-0.347,1.754c-0.147,0.045-0.297,0.096-0.442,0.153
		c-0.752-0.507-1.685-0.521-2.252,0.027c-0.474,0.455-0.568,1.177-0.313,1.851l-0.241,0.232c-0.785-0.676-1.857-0.756-2.487-0.15
		c-0.677,0.65-0.584,1.844,0.205,2.665l0.152,0.158c-0.019,0.044-0.037,0.091-0.056,0.136l-1.51-1.57l-0.122-0.099l-3.366-3.5
		c-0.663-0.542-1.514-0.668-2.133-0.328l-0.535,0.514c-0.404,0.675-0.243,1.661,0.438,2.369l1.041,1.081H8.534l0.735,0.763
		c0.002,0,0.004-0.001,0.006-0.001l0.474,0.492l0,0l1.012,1.052l0,0l4.231,4.396l-1.872-0.311c-1.424-0.235-2.707,0.357-2.868,1.326
		c-0.16,0.969,0.865,1.942,2.288,2.18l6.983,1.154c0,0,0.009,0.002,0.021,0.01c0.283,0.14,4.028,1.883,7.685-1.635
		c3.771-3.632,2.049-7.669,2.021-7.729c0-0.001,0-0.003,0-0.003l0,0c-0.263-0.503-0.599-0.98-1.015-1.411L23.163,9.52z"/>
</g>
<g>
	<path fill="#989898" d="M17.525,20.329c-0.103,0.091-0.145,0.203-0.128,0.338s0.091,0.275,0.222,0.422
		c0.271,0.306,0.523,0.356,0.757,0.149c0.07-0.063,0.129-0.133,0.178-0.211s0.095-0.16,0.137-0.247l0.322,0.363
		c-0.08,0.177-0.204,0.339-0.372,0.488c-0.24,0.213-0.486,0.306-0.737,0.28c-0.252-0.025-0.494-0.169-0.728-0.433
		c-0.146-0.165-0.244-0.337-0.293-0.517c-0.048-0.18-0.044-0.354,0.013-0.525c0.057-0.17,0.164-0.325,0.321-0.465
		c0.172-0.152,0.369-0.261,0.592-0.325l0.169,0.455c-0.083,0.024-0.162,0.053-0.238,0.087C17.664,20.223,17.593,20.27,17.525,20.329
		z"/>
	<path fill="#989898" d="M19.382,20.936l-1.412-1.59l0.43-0.382l1.104,1.242l0.612-0.543l0.308,0.348L19.382,20.936z"/>
	<path fill="#989898" d="M20.678,19.784l-1.412-1.59l0.433-0.383l1.411,1.59L20.678,19.784z"/>
	<path fill="#989898" d="M22.233,16.979c0.319,0.359,0.42,0.704,0.303,1.032l0.785,0.104l-0.535,0.475l-0.595-0.104H22.19
		l-0.002-0.001h-0.001c-0.25,0.222-0.504,0.32-0.761,0.299s-0.505-0.166-0.742-0.433c-0.235-0.266-0.348-0.525-0.34-0.784
		c0.008-0.257,0.139-0.497,0.392-0.721c0.253-0.225,0.506-0.325,0.759-0.303C21.749,16.564,21.995,16.71,22.233,16.979z
		 M21.14,17.95c0.272,0.307,0.516,0.365,0.729,0.176c0.108-0.097,0.156-0.205,0.143-0.327s-0.091-0.262-0.23-0.419
		c-0.142-0.159-0.271-0.252-0.393-0.281c-0.121-0.028-0.234,0.005-0.34,0.099C20.833,17.389,20.864,17.64,21.14,17.95z"/>
	<path fill="#989898" d="M23.168,14.73l0.85,0.956c0.185,0.208,0.27,0.423,0.252,0.641c-0.016,0.22-0.135,0.428-0.356,0.624
		c-0.217,0.192-0.433,0.285-0.647,0.277c-0.216-0.008-0.415-0.115-0.6-0.323l-0.858-0.967l0.432-0.383l0.828,0.933
		c0.101,0.113,0.193,0.175,0.281,0.188c0.087,0.013,0.171-0.016,0.253-0.089c0.088-0.077,0.129-0.16,0.123-0.245
		c-0.005-0.086-0.058-0.185-0.159-0.3l-0.827-0.931L23.168,14.73z"/>
	<path fill="#989898" d="M25.857,15.187l-0.944,0.838l-1.411-1.59l0.943-0.838l0.307,0.345l-0.515,0.456l0.223,0.25l0.477-0.423
		l0.306,0.345l-0.477,0.423l0.267,0.3l0.515-0.456L25.857,15.187z"/>
</g>
</svg>
