<?xml version="1.0" encoding="utf-8"?>
<!-- Generator: Adobe Illustrator 16.0.0, SVG Export Plug-In . SVG Version: 6.00 Build 0)  -->
<!DOCTYPE svg PUBLIC "-//W3C//DTD SVG 1.1//EN" "http://www.w3.org/Graphics/SVG/1.1/DTD/svg11.dtd">
<svg version="1.1" id="Layer_1" xmlns="http://www.w3.org/2000/svg" xmlns:xlink="http://www.w3.org/1999/xlink" x="0px" y="0px"
	 width="110px" height="110px" viewBox="0 0 110 110" enable-background="new 0 0 110 110" xml:space="preserve">
<g>
	<path fill="#FDDF00" d="M19.312,97.315l9.291-9.291c-1.117-0.916-2.193-1.885-3.221-2.912c-3.831-3.822-6.899-8.322-9.12-13.381
		c-2.277-5.194-3.433-10.755-3.433-16.525c0-5.953,1.155-11.604,3.437-16.812c2.244-5.105,5.354-9.602,9.238-13.356
		c3.826-3.705,8.272-6.65,13.229-8.761c4.517-1.917,9.354-2.985,14.406-3.197V0.073c-7.01,0.521-13.649,2.125-19.761,4.805
		c-6.801,2.981-12.737,6.982-17.646,11.893c-4.876,4.874-8.767,10.678-11.563,17.25c-2.764,6.495-4.164,13.623-4.164,21.188
		c0,7.905,1.439,15.243,4.28,21.817c2.871,6.652,6.84,12.5,11.799,17.385C17.117,95.428,18.199,96.39,19.312,97.315z"/>
	<path fill="#FDDF00" d="M105.625,33.769c-2.984-6.729-7.037-12.681-12.045-17.69C88.6,11.1,82.684,7.108,75.998,4.219
		C72.855,2.862,69.6,1.832,66.256,1.12v13.604c7.137,1.989,13.381,5.702,18.639,11.123c7.645,7.897,11.771,17.605,12.266,28.857
		l0.01,0.25v0.251c0,5.775-1.154,11.337-3.434,16.527c-2.186,4.981-5.158,9.436-8.834,13.229c-3.76,3.893-8.256,7.003-13.371,9.249
		c-5.193,2.278-10.754,3.434-16.53,3.434c-4.56,0-8.949-0.729-13.1-2.147c-3.248,3.248-6.496,6.496-9.744,9.744
		c0.455,0.201,0.908,0.405,1.371,0.595c6.633,2.714,13.857,4.091,21.473,4.091c7.712,0,14.962-1.441,21.546-4.281
		c6.645-2.868,12.494-6.841,17.383-11.799c4.934-5.013,8.906-10.919,11.805-17.553c2.828-6.475,4.262-13.569,4.262-21.085
		C109.996,47.42,108.564,40.405,105.625,33.769z"/>
</g>
</svg>
