<?xml version="1.0" encoding="utf-8"?>
<!-- Generator: Adobe Illustrator 16.0.0, SVG Export Plug-In . SVG Version: 6.00 Build 0)  -->
<!DOCTYPE svg PUBLIC "-//W3C//DTD SVG 1.1//EN" "http://www.w3.org/Graphics/SVG/1.1/DTD/svg11.dtd">
<svg version="1.1" id="Layer_1" xmlns="http://www.w3.org/2000/svg" xmlns:xlink="http://www.w3.org/1999/xlink" x="0px" y="0px"
	 width="32px" height="32px" viewBox="0 0 32 32" enable-background="new 0 0 32 32" xml:space="preserve">
<circle opacity="0.4" fill="#F2F2F2" stroke="#989898" stroke-width="1.31" stroke-miterlimit="10" enable-background="new    " cx="8.168" cy="11.714" r="5.833"/>
<circle opacity="0.4" fill="#F2F2F2" stroke="#989898" stroke-width="0.786" stroke-miterlimit="10" enable-background="new    " cx="8.168" cy="11.714" r="3.5"/>
<g>
	<path fill="#F2F2F2" stroke="#989898" stroke-width="0.5895" stroke-miterlimit="10" d="M23.163,9.52
		c-0.789-0.822-1.978-0.96-2.651-0.31c-0.451,0.435-0.56,1.109-0.347,1.754c-0.147,0.045-0.297,0.096-0.442,0.153
		c-0.752-0.507-1.685-0.521-2.252,0.027c-0.474,0.455-0.568,1.177-0.313,1.851l-0.241,0.232c-0.785-0.676-1.857-0.756-2.487-0.15
		c-0.677,0.65-0.584,1.844,0.205,2.665l0.152,0.158c-0.019,0.044-0.037,0.091-0.056,0.136l-1.51-1.57l-0.122-0.099l-3.366-3.5
		C9.07,10.325,8.219,10.199,7.6,10.539l-0.535,0.514c-0.404,0.675-0.243,1.661,0.438,2.369l1.041,1.081h-0.01l0.735,0.763
		c0.002,0,0.004-0.001,0.006-0.001l0.474,0.492l0,0l1.012,1.052l0,0l4.231,4.396l-1.872-0.311c-1.424-0.235-2.707,0.356-2.868,1.326
		c-0.16,0.969,0.865,1.941,2.288,2.18l6.983,1.154c0,0,0.009,0.002,0.021,0.01c0.283,0.14,4.028,1.883,7.685-1.635
		C31,20.297,29.277,16.26,29.25,16.2c0-0.001,0-0.003,0-0.003l0,0c-0.264-0.503-0.6-0.98-1.016-1.411L23.163,9.52z"/>
</g>
<g>
	<path fill="#989898" d="M19,22.12l-1.957-2.072l0.56-0.529l1.53,1.622l0.799-0.754l0.428,0.451L19,22.12z"/>
	<path fill="#989898" d="M20.69,20.524l-1.958-2.073l0.563-0.531l1.958,2.073L20.69,20.524z"/>
	<path fill="#989898" d="M23.675,17.706L22.94,18.4l-2.136-0.744l-0.014,0.011c0.234,0.214,0.41,0.38,0.524,0.501l0.882,0.934
		l-0.496,0.469l-1.957-2.073l0.73-0.69l2.115,0.729l0.009-0.008c-0.21-0.196-0.375-0.358-0.495-0.485l-0.885-0.937l0.499-0.471
		L23.675,17.706z"/>
	<path fill="#989898" d="M25.894,15.611l-0.632,0.598l-1.159-0.405l-0.071,0.256l0.655,0.692l-0.563,0.531l-1.958-2.073l0.563-0.531
		l0.851,0.901c-0.023-0.083-0.051-0.224-0.078-0.427l-0.166-1.047l0.612-0.578l0.225,1.546L25.894,15.611z"/>
</g>
</svg>
