<?xml version="1.0" encoding="utf-8"?>
<!-- Generator: Adobe Illustrator 16.0.0, SVG Export Plug-In . SVG Version: 6.00 Build 0)  -->
<!DOCTYPE svg PUBLIC "-//W3C//DTD SVG 1.1//EN" "http://www.w3.org/Graphics/SVG/1.1/DTD/svg11.dtd">
<svg version="1.1" id="Layer_1" xmlns="http://www.w3.org/2000/svg" xmlns:xlink="http://www.w3.org/1999/xlink" x="0px" y="0px"
	 width="64px" height="64px" viewBox="0 0 64 64" enable-background="new 0 0 64 64" xml:space="preserve">
<g>
	<path d="M30.628,39.68c-0.097-0.393-0.161-0.674-0.192-0.842c-0.027,0.156-0.082,0.416-0.164,0.775
		c-0.081,0.359-0.262,1.068-0.542,2.128h1.437l-0.292-1.107C30.807,40.389,30.725,40.068,30.628,39.68z"/>
	<path d="M44.203,39.145c-0.914,0-1.371,0.656-1.371,1.975c0,1.306,0.454,1.958,1.361,1.958c0.461,0,0.805-0.158,1.027-0.476
		c0.223-0.316,0.336-0.812,0.336-1.482c0-0.674-0.113-1.172-0.341-1.493C44.99,39.305,44.652,39.145,44.203,39.145z"/>
	<path d="M16.21,39.68c-0.098-0.393-0.161-0.674-0.192-0.842c-0.027,0.156-0.082,0.416-0.164,0.775s-0.262,1.068-0.542,2.128h1.436
		l-0.291-1.107C16.389,40.389,16.306,40.068,16.21,39.68z"/>
	<path d="M50.879,39.134H50.52v1.542h0.342c0.638,0,0.955-0.281,0.955-0.845C51.816,39.366,51.504,39.134,50.879,39.134z"/>
	<path d="M51.958,25.77v-0.01c-3.664-4.306-8.298-6.816-13.56-8.302c-1.535-0.434-3.094-0.845-4.557-1.466
		c-2.516-1.069-4.094-2.975-4.373-5.764c-0.138-1.394-0.103-2.803-0.179-4.204c-0.124-2.285-1.111-3.456-3.384-3.742
		c-3.153-0.396-5.46,1.14-7.045,3.673c-2.539,4.057-2.071,8.287-0.257,12.469c0.543,1.257,1.278,2.431,2.04,3.857
		c-0.882,0.052-1.522,0.12-2.163,0.123c-3.614,0.013-7.228-0.045-10.84,0.029c-3.427,0.07-5.488,2.484-5.271,5.918
		c0.151,2.394,1.691,3.747,3.587,4.805c-2.566,3.947-2.173,6.209,1.53,9.395c-2.918,4.271-2.2,7.357,2.398,9.709
		c-1.676,2.816-1.882,4.817-0.706,6.813c1.372,2.33,3.573,2.734,6.049,2.707c5.754-0.057,11.51,0.031,17.263-0.041
		c2.331-0.029,4.684-0.162,6.983-0.528c4.289-0.685,8.975-2.632,12.482-5.483v-0.009h9.688V25.77H51.958z M17.458,44.503
		l-0.332-1.267h-2.193l-0.342,1.267h-2.004l2.203-6.776h2.433l2.229,6.776H17.458z M26.627,39.217h-2.193v1.287h2.022v1.465h-2.022
		v2.534h-1.796v-6.75h3.989V39.217z M31.876,44.503l-0.332-1.267h-2.193l-0.341,1.267h-2.004l2.203-6.776h2.433l2.229,6.776H31.876z
		 M38.221,44.503h-2.148l-2.2-6.75h2.05l0.92,3.421c0.19,0.762,0.295,1.29,0.313,1.59c0.021-0.216,0.063-0.486,0.13-0.809
		c0.063-0.324,0.12-0.578,0.171-0.764l0.938-3.438h2.041L38.221,44.503z M46.643,43.709c-0.559,0.591-1.373,0.887-2.449,0.887
		c-1.059,0-1.869-0.298-2.436-0.892c-0.564-0.595-0.847-1.458-0.847-2.595c0-1.125,0.28-1.981,0.843-2.574
		c0.563-0.592,1.379-0.889,2.449-0.889c1.074,0,1.889,0.293,2.441,0.881c0.555,0.59,0.832,1.453,0.832,2.591
		C47.477,42.255,47.197,43.118,46.643,43.709z M52.411,44.503l-1.431-2.455H50.52v2.455h-1.824v-6.75h2.213
		c1.834,0,2.752,0.664,2.752,1.994c0,0.782-0.383,1.387-1.146,1.813l1.967,2.941L52.411,44.503L52.411,44.503z"/>
</g>
</svg>
