<?xml version="1.0" encoding="utf-8"?>
<!-- Generator: Adobe Illustrator 16.0.0, SVG Export Plug-In . SVG Version: 6.00 Build 0)  -->
<!DOCTYPE svg PUBLIC "-//W3C//DTD SVG 1.1//EN" "http://www.w3.org/Graphics/SVG/1.1/DTD/svg11.dtd">
<svg version="1.1" id="Layer_1" xmlns="http://www.w3.org/2000/svg" xmlns:xlink="http://www.w3.org/1999/xlink" x="0px" y="0px"
	 width="210px" height="165px" viewBox="0 0 210 165" enable-background="new 0 0 210 165" xml:space="preserve">
<g>
	<path fill-rule="evenodd" clip-rule="evenodd" fill="#FFFFFF" d="M107.818,138.994c-9.041-7.438-17.193-13.084-24.021-20.033
		c-8.193-8.332-17.527-8.343-28.607-6.789c0,5.771-0.08,11.283,0.021,16.789c0.092,4.992-2.072,8.717-7.078,8.733
		c-4.977,0.014-7.223-3.655-7.148-8.656c0.086-5.517,0.02-11.036,0.02-17.104c-3.395-0.18-5.98-0.374-8.566-0.447
		c-9.115-0.268-12.074-3.007-12.168-11.854c-0.127-10.901-0.127-21.807,0-32.705c0.094-8.34,3.301-11.607,11.459-11.685
		c11.701-0.113,23.436,0.485,35.088-0.283c4.838-0.317,10.145-2.482,14.119-5.353c8.941-6.459,17.188-13.886,26.883-21.881
		C107.818,65.323,107.818,101.203,107.818,138.994z"/>
	<path fill-rule="evenodd" clip-rule="evenodd" fill="#FFFFFF" d="M162.131,148.456c-3-3.395-5.619-6.357-8.605-9.732
		c14.5-15.746,22.619-34.728,22.852-56.508c0.221-21.55-7.137-40.567-22.424-57.693c3.541-2.666,7.068-5.315,10.617-7.979
		C198.877,49.029,198.395,113.455,162.131,148.456z"/>
	<path fill-rule="evenodd" clip-rule="evenodd" fill="#FFFFFF" d="M134.086,44.626c3.008-2.58,5.994-5.143,9.021-7.738
		c19.297,13.475,28.834,61.937-0.629,91.024c-2.832-3.03-5.666-6.058-8.914-9.529C152.281,94.562,152.717,69.931,134.086,44.626z"/>
</g>
</svg>
